<svg width="29" height="28" viewBox="0 0 29 28" fill="none" xmlns="http://www.w3.org/2000/svg">
<path d="M8.98493 15.8711L12.5663 19.3293L4.89109 26.7351C4.55082 27.0641 4.06403 27.2091 3.59087 27.1224C3.28966 27.0616 3.01475 26.9133 2.80308 26.6976L1.30952 25.2558C0.968821 24.9272 0.818648 24.4572 0.908408 24.0004C0.971627 23.7095 1.12504 23.4441 1.34836 23.2397L8.98493 15.8711ZM26.8149 2.83274L26.0658 2.10943C24.6713 0.753163 22.7721 -0.00662316 20.7928 4.35043e-05C19.3903 0.00733524 18.018 0.393169 16.8308 1.1138C15.6437 1.83466 14.6889 2.86154 14.0746 4.07882L9.49273 15.0361L10.2322 15.7501L14.959 4.45679C15.7358 2.91572 17.1327 1.74927 18.8239 1.22906C20.5151 0.708849 22.3533 0.880305 23.9103 1.70343C23.472 1.72635 23.0394 1.80801 22.6245 1.94614C20.5415 2.64614 18.2793 4.38678 16.718 6.5007L10.3381 15.8527L11.0342 16.5248L17.5157 7.02774C18.9319 5.10502 21.0635 3.45771 22.9435 2.82774C23.7187 2.5317 24.5839 2.54337 25.3503 2.86045L11.1163 16.6039V16.6085L11.7977 17.2666H11.8025L26.0365 3.52316C26.3649 4.26316 26.377 5.09858 26.0704 5.84711C25.4179 7.66252 23.7118 9.72044 21.7349 11.0784L11.8851 17.3461L12.5812 18.0182L22.2813 11.8486C24.4563 10.3507 26.2591 8.16652 26.9841 6.15527C27.1271 5.75464 27.2117 5.33692 27.2354 4.91383C28.0854 6.41239 28.2647 8.18092 27.7317 9.80988C27.1987 11.4391 25.9999 12.7874 24.4127 13.5426L12.6876 18.1205L13.427 18.8345L24.8047 14.3965C26.0586 13.8016 27.1156 12.8805 27.8568 11.737C28.598 10.5935 28.9939 9.27282 28.9999 7.92386C29.0077 6.01282 28.2206 4.17842 26.8153 2.8326L26.8149 2.83274ZM1.75937 27.0061C1.54986 27.1119 1.29331 27.0742 1.12608 26.9127C0.958862 26.7513 0.919804 26.5036 1.02942 26.3013L0.628301 25.914C0.527538 25.8188 0.436916 25.714 0.357728 25.6013C0.0282497 25.9767 -0.0826606 26.4873 0.062773 26.9588C0.208201 27.4302 0.590116 27.799 1.07842 27.9394C1.5667 28.0798 2.09555 27.9727 2.48437 27.6546C2.35555 27.5644 2.23451 27.4644 2.12187 27.3561L1.75937 27.0061Z" fill="black"/>
</svg>
