<svg width="26" height="25" viewBox="0 0 26 25" fill="none" xmlns="http://www.w3.org/2000/svg">
<path d="M8.05546 14.1707L11.2663 17.2583L4.38512 23.8706C4.08005 24.1644 3.64361 24.2938 3.2194 24.2164C2.94935 24.1621 2.70288 24.0297 2.5131 23.8372L1.17406 22.5498C0.868598 22.2564 0.73396 21.8368 0.814435 21.4289C0.871114 21.1692 1.00866 20.9322 1.20887 20.7497L8.05546 14.1707ZM24.041 2.52923L23.3693 1.88342C22.1191 0.672467 20.4163 -0.00591354 18.6418 3.88432e-05C17.3844 0.00654932 16.1541 0.351043 15.0897 0.994467C14.0253 1.63809 13.1693 2.55494 12.6186 3.6418L8.51072 13.4251L9.17368 14.0626L13.4116 3.97928C14.1079 2.60332 15.3604 1.56185 16.8766 1.09737C18.3929 0.632901 20.0409 0.785986 21.4368 1.52092C21.0439 1.54138 20.656 1.6143 20.284 1.73762C18.4165 2.36262 16.3884 3.91677 14.9886 5.80419L9.26867 14.1542L9.89276 14.7543L15.7038 6.27477C16.9734 4.55805 18.8845 3.08724 20.57 2.52477C21.265 2.26044 22.0408 2.27086 22.7279 2.55397L9.96635 14.8249V14.829L10.5773 15.4166H10.5815L23.3431 3.14568C23.6375 3.8064 23.6483 4.5523 23.3734 5.22063C22.7885 6.84154 21.2589 8.67896 19.4865 9.89139L10.6556 15.4876L11.2797 16.0877L19.9764 10.5791C21.9263 9.24168 23.5426 7.29154 24.1926 5.49578C24.3209 5.13808 24.3967 4.76511 24.418 4.38735C25.18 5.72535 25.3407 7.30439 24.8629 8.75882C24.3851 10.2134 23.3103 11.4173 21.8873 12.0916L11.375 16.179L12.038 16.8165L22.2387 12.8541C23.3629 12.3228 24.3106 11.5004 24.9751 10.4794C25.6396 9.45844 25.9946 8.2793 25.9999 7.07487C26.0069 5.36859 25.3012 3.73073 24.0413 2.52911L24.041 2.52923ZM1.57737 24.1126C1.38953 24.207 1.15952 24.1734 1.00959 24.0292C0.859669 23.8851 0.824652 23.6639 0.922925 23.4833L0.563304 23.1375C0.472965 23.0525 0.391717 22.9589 0.320721 22.8583C0.0253274 23.1935 -0.0741095 23.6494 0.0562793 24.0703C0.186663 24.4913 0.529069 24.8205 0.966857 24.9459C1.40463 25.0713 1.87877 24.9757 2.22736 24.6916C2.11187 24.6111 2.00335 24.5218 1.90237 24.4251L1.57737 24.1126Z" fill="black"/>
</svg>
