<svg width="35" height="32" viewBox="0 0 35 32" fill="none" xmlns="http://www.w3.org/2000/svg">
<path d="M17.4982 0C16.8335 0 16.1691 0.224864 15.6275 0.676136L0.575027 13.2159C0.0169808 13.6806 -0.181652 14.4911 0.188919 15.1151C0.660888 15.9092 1.70532 16.0644 2.38446 15.4986L17.2631 3.10511C17.3995 2.99166 17.5969 2.99166 17.7333 3.10511L32.6119 15.5C32.8848 15.7276 33.2154 15.8381 33.5451 15.8381C34.0521 15.8381 34.5552 15.5758 34.8331 15.071C35.1723 14.4543 34.9726 13.6753 34.4313 13.2244L32.0876 11.2713V5.09091C32.0876 4.28727 31.4348 3.63636 30.6287 3.63636H29.1697C28.3637 3.63636 27.7108 4.28727 27.7108 5.09091V7.625L19.3689 0.676136C18.8273 0.224864 18.1629 0 17.4982 0ZM17.4982 5.81818L2.90877 17.9673V28.3636C2.90877 30.3716 4.54205 32 6.55612 32H28.4403C30.4543 32 32.0876 30.3716 32.0876 28.3636V17.9673L17.4982 5.81818ZM14.5803 17.4545H20.4161C21.2221 17.4545 21.875 18.1055 21.875 18.9091V29.0909H13.1214V18.9091C13.1214 18.1055 13.7742 17.4545 14.5803 17.4545Z" fill="black"/>
</svg>
