<svg width="29" height="33" viewBox="0 0 29 33" fill="none" xmlns="http://www.w3.org/2000/svg">
<path d="M27.2805 2.6541H11.6917V1.57781C11.6917 1.0571 11.4342 0.605626 10.9931 0.2932C10.5519 0.0154019 10.0003 -0.0887422 9.48558 0.0849118L1.13968 2.72364C0.441062 2.93192 0 3.52215 0 4.21651V28.7989C0 29.4932 0.478038 30.0835 1.13968 30.2918L9.48558 32.9305C9.66946 33 9.85335 33 10.0003 33C10.3311 33 10.6989 32.8959 10.993 32.6876C11.4342 32.3751 11.6917 31.9237 11.6917 31.403V30.3613H27.2805C28.1996 30.3613 28.9349 29.6669 28.9349 28.7989L28.9346 4.21651C28.9716 3.34849 28.2363 2.65388 27.2802 2.65388L27.2805 2.6541ZM8.52979 18.6951C8.52979 19.4244 7.9048 20.0493 7.09592 20.0493C6.3237 20.0493 5.66204 19.459 5.66204 18.6951V14.3202C5.66204 13.5909 6.28703 12.9661 7.09592 12.9661C7.86814 12.9661 8.52979 13.5563 8.52979 14.3202V18.6951ZM25.626 27.2365H11.6917V5.77897H25.626V27.2365Z" fill="black"/>
<path d="M18.408 19.2749C18.6648 18.9002 19.0957 18.6537 19.5833 18.6537C19.5858 18.6537 19.5887 18.6539 19.5915 18.6539C19.4383 18.1452 18.9659 17.7734 18.408 17.7734C17.8502 17.7734 17.3775 18.1452 17.2246 18.6539C17.2272 18.6539 17.23 18.6537 17.2328 18.6537C17.7204 18.6536 18.1512 18.9001 18.408 19.2749Z" fill="black"/>
<path d="M21.2037 20.2838H20.7848C20.8082 20.1889 20.8208 20.0897 20.8208 19.9876C20.8208 19.8792 20.8067 19.774 20.7803 19.6736L20.7381 19.5864L20.6974 19.5078L20.5986 19.3334C20.5986 19.3334 20.5553 19.2557 20.5394 19.2287L20.4648 19.1329L20.3602 19.031L20.2962 18.976L20.2265 18.9322L20.1276 18.8771L20.0319 18.8359C20.0319 18.8359 19.7426 18.752 19.5852 18.752C18.9037 18.752 18.3493 19.3064 18.3493 19.9877C18.3493 20.0898 18.3621 20.1889 18.3855 20.2838H18.1925C18.1722 20.1883 18.1615 20.0892 18.1615 19.9877C18.1615 19.766 18.2125 19.5559 18.3032 19.3685C18.0891 19.0004 17.6903 18.752 17.2346 18.752C16.5531 18.752 15.9987 19.3064 15.9987 19.9876C15.9987 20.0898 16.0115 20.1889 16.0349 20.2838H15.8419L15.616 20.2839C15.5197 20.2839 15.4414 20.362 15.4414 20.4584C15.4414 20.5547 15.5195 20.633 15.616 20.633H15.7929C15.7929 20.6358 15.7927 20.6384 15.7929 20.6411L16.169 23.6309C16.1756 23.8543 16.3596 24.0343 16.5847 24.0343H20.2352C20.4603 24.0343 20.6443 23.8544 20.6509 23.6309L21.0267 20.6411C21.0272 20.6385 21.0267 20.6358 21.0269 20.633H21.2039C21.3002 20.633 21.3784 20.5548 21.3784 20.4584C21.3782 20.3619 21.3001 20.2837 21.2037 20.2837L21.2037 20.2838ZM20.3029 23.5963C20.3021 23.6036 20.3016 23.6109 20.3016 23.6182C20.3016 23.6548 20.2716 23.6848 20.2349 23.6848H16.5846C16.5479 23.6848 16.518 23.6548 16.518 23.6182C16.518 23.6109 16.5173 23.6036 16.5164 23.5963L16.1422 20.6191H20.6776L20.3029 23.5963Z" fill="black"/>
<path d="M18.41 10.605C18.6667 10.2302 19.0976 9.98375 19.5852 9.98375C19.5878 9.98375 19.5906 9.98394 19.5934 9.98394C19.4402 9.47531 18.9678 9.10352 18.41 9.10352C17.8521 9.10352 17.3795 9.47531 17.2266 9.98394C17.2291 9.98394 17.232 9.98375 17.2347 9.98375C17.7223 9.98363 18.1532 10.2301 18.41 10.605Z" fill="black"/>
<path d="M21.2037 11.6138H20.7848C20.8082 11.5189 20.8208 11.4198 20.8208 11.3177C20.8208 11.2093 20.8067 11.1041 20.7803 11.0036L20.7381 10.9165L20.6974 10.8379L20.5986 10.6634C20.5986 10.6634 20.5553 10.5857 20.5394 10.5588L20.4648 10.463L20.3602 10.3611L20.2962 10.306L20.2265 10.2623L20.1276 10.2072L20.0319 10.166C20.0319 10.166 19.7426 10.082 19.5852 10.082C18.9037 10.082 18.3493 10.6365 18.3493 11.3177C18.3493 11.4198 18.3621 11.519 18.3855 11.6139H18.1925C18.1722 11.5184 18.1615 11.4192 18.1615 11.3177C18.1615 11.0961 18.2125 10.886 18.3032 10.6986C18.0891 10.3305 17.6903 10.082 17.2346 10.082C16.5531 10.082 15.9987 10.6364 15.9987 11.3177C15.9987 11.4198 16.0115 11.519 16.0349 11.6139H15.8419L15.616 11.6139C15.5197 11.6139 15.4414 11.6921 15.4414 11.7885C15.4414 11.8848 15.5195 11.963 15.616 11.963H15.7929C15.7929 11.9658 15.7927 11.9685 15.7929 11.9712L16.169 14.9609C16.1756 15.1844 16.3596 15.3644 16.5847 15.3644H20.2352C20.4603 15.3644 20.6443 15.1845 20.6509 14.9609L21.0267 11.9712C21.0272 11.9686 21.0267 11.9658 21.0269 11.963H21.2039C21.3002 11.963 21.3784 11.8849 21.3784 11.7885C21.3782 11.692 21.3001 11.6138 21.2037 11.6138L21.2037 11.6138ZM20.3029 14.9264C20.3021 14.9336 20.3016 14.941 20.3016 14.9482C20.3016 14.9849 20.2716 15.0148 20.2349 15.0148H16.5846C16.5479 15.0148 16.518 14.9849 16.518 14.9482C16.518 14.941 16.5173 14.9336 16.5164 14.9264L16.1422 11.9492H20.6776L20.3029 14.9264Z" fill="black"/>
</svg>
