<svg width="36" height="40" viewBox="0 0 36 40" fill="none" xmlns="http://www.w3.org/2000/svg">
<path d="M33.0673 3.21709H14.1717V1.9125C14.1717 1.28133 13.8596 0.734092 13.3249 0.355394C12.7902 0.018669 12.1216 -0.107566 11.4977 0.102923L1.38143 3.30138C0.534621 3.55385 0 4.26928 0 5.11092V34.9077C0 35.7494 0.57944 36.4648 1.38143 36.7173L11.4977 39.9157C11.7206 40 11.9435 40 12.1216 40C12.5226 40 12.9684 39.8738 13.3249 39.6213C13.8596 39.2426 14.1717 38.6954 14.1717 38.0642V36.8015H33.0672C34.1814 36.8015 35.0726 35.9599 35.0726 34.9077L35.0723 5.11092C35.117 4.05877 34.2258 3.21683 33.0669 3.21683L33.0673 3.21709ZM10.3391 22.6608C10.3391 23.5447 9.58158 24.3021 8.60111 24.3021C7.66509 24.3021 6.86308 23.5867 6.86308 22.6608V17.3578C6.86308 16.4738 7.62064 15.7165 8.60111 15.7165C9.53714 15.7165 10.3391 16.4319 10.3391 17.3578V22.6608ZM31.0618 33.0139H14.1717V7.00482H31.0618V33.0139Z" fill="black"/>
<path d="M22.3153 23.3629C22.6265 22.9087 23.1488 22.6099 23.7399 22.6099C23.7429 22.6099 23.7464 22.6101 23.7498 22.6101C23.5641 21.9936 22.9915 21.543 22.3153 21.543C21.6391 21.543 21.0662 21.9936 20.8809 22.6101C20.8839 22.6101 20.8874 22.6099 20.8908 22.6099C21.4818 22.6098 22.004 22.9086 22.3153 23.3629Z" fill="black"/>
<path d="M25.7034 24.5872H25.1956C25.2239 24.4722 25.2393 24.352 25.2393 24.2282C25.2393 24.0969 25.2221 23.9693 25.1902 23.8476L25.139 23.742L25.0897 23.6466L24.9699 23.4352C24.9699 23.4352 24.9174 23.341 24.8981 23.3084L24.8078 23.1923L24.6809 23.0687L24.6034 23.002L24.5188 22.9489L24.399 22.8822L24.283 22.8322C24.283 22.8322 23.9323 22.7305 23.7415 22.7305C22.9154 22.7305 22.2434 23.4025 22.2434 24.2283C22.2434 24.3521 22.259 24.4722 22.2873 24.5873H22.0534C22.0288 24.4715 22.0158 24.3513 22.0158 24.2283C22.0158 23.9596 22.0776 23.7049 22.1877 23.4778C21.9281 23.0316 21.4447 22.7305 20.8923 22.7305C20.0663 22.7305 19.3943 23.4025 19.3943 24.2283C19.3943 24.352 19.4098 24.4722 19.4382 24.5873H19.2042L18.9303 24.5873C18.8136 24.5873 18.7188 24.682 18.7188 24.7989C18.7188 24.9156 18.8135 25.0105 18.9303 25.0105H19.1448C19.1448 25.0139 19.1446 25.0171 19.1448 25.0204L19.6007 28.6443C19.6087 28.9152 19.8317 29.1333 20.1045 29.1333H24.5294C24.8022 29.1333 25.0252 28.9153 25.0333 28.6443L25.4888 25.0204C25.4893 25.0172 25.4888 25.0139 25.4891 25.0105H25.7036C25.8203 25.0105 25.9151 24.9158 25.9151 24.7989C25.9148 24.6819 25.8201 24.5872 25.7033 24.5872L25.7034 24.5872ZM24.6115 28.6024C24.6104 28.6112 24.6099 28.6201 24.6099 28.6289C24.6099 28.6733 24.5735 28.7096 24.5291 28.7096H20.1044C20.06 28.7096 20.0237 28.6733 20.0237 28.6289C20.0237 28.6201 20.0229 28.6112 20.0218 28.6024L19.5682 24.9937H25.0656L24.6115 28.6024Z" fill="black"/>
<path d="M22.3173 12.8531C22.6285 12.3989 23.1508 12.1002 23.7418 12.1002C23.7449 12.1002 23.7483 12.1004 23.7517 12.1004C23.5661 11.4839 22.9934 11.0332 22.3173 11.0332C21.6411 11.0332 21.0682 11.4839 20.8828 12.1004C20.8859 12.1004 20.8893 12.1002 20.8927 12.1002C21.4838 12.1 22.006 12.3988 22.3173 12.8531Z" fill="black"/>
<path d="M25.7034 14.0774H25.1956C25.2239 13.9624 25.2393 13.8422 25.2393 13.7185C25.2393 13.5871 25.2221 13.4595 25.1902 13.3378L25.139 13.2322L25.0897 13.1369L24.9699 12.9255C24.9699 12.9255 24.9174 12.8313 24.8981 12.7986L24.8078 12.6825L24.6809 12.559L24.6034 12.4922L24.5188 12.4392L24.399 12.3724L24.283 12.3225C24.283 12.3225 23.9323 12.2207 23.7415 12.2207C22.9154 12.2207 22.2434 12.8927 22.2434 13.7185C22.2434 13.8423 22.259 13.9625 22.2873 14.0775H22.0534C22.0288 13.9617 22.0158 13.8416 22.0158 13.7185C22.0158 13.4498 22.0776 13.1952 22.1877 12.968C21.9281 12.5218 21.4447 12.2207 20.8923 12.2207C20.0663 12.2207 19.3943 12.8927 19.3943 13.7185C19.3943 13.8423 19.4098 13.9624 19.4382 14.0775H19.2042L18.9303 14.0776C18.8136 14.0776 18.7188 14.1723 18.7188 14.2891C18.7188 14.4059 18.8135 14.5007 18.9303 14.5007H19.1448C19.1448 14.5041 19.1446 14.5073 19.1448 14.5106L19.6007 18.1345C19.6087 18.4054 19.8317 18.6235 20.1045 18.6235H24.5294C24.8022 18.6235 25.0252 18.4055 25.0333 18.1345L25.4888 14.5106C25.4893 14.5074 25.4888 14.5041 25.4891 14.5007H25.7036C25.8203 14.5007 25.9151 14.406 25.9151 14.2891C25.9148 14.1721 25.8201 14.0774 25.7033 14.0774L25.7034 14.0774ZM24.6115 18.0926C24.6104 18.1014 24.6099 18.1103 24.6099 18.1191C24.6099 18.1635 24.5735 18.1999 24.5291 18.1999H20.1044C20.06 18.1999 20.0237 18.1635 20.0237 18.1191C20.0237 18.1103 20.0229 18.1014 20.0218 18.0926L19.5682 14.4839H25.0656L24.6115 18.0926Z" fill="black"/>
</svg>
