<svg width="31" height="34" viewBox="0 0 31 34" fill="none" xmlns="http://www.w3.org/2000/svg">
<path d="M25.1405 0.0572096C24.7 -0.000521525 24.2038 -0.000240924 23.5343 3.88747e-05H17.4027C15.1211 -0.000241426 13.2402 -0.000241641 11.7509 0.198732C10.1878 0.407519 8.8074 0.862916 7.70178 1.96118C6.59638 3.05949 6.13838 4.4313 5.92797 5.98439C5.86113 6.48071 5.81628 7.02101 5.78667 7.60565C7.10839 7.35819 8.52623 7.74241 9.54895 8.75885C10.5866 9.78987 10.9697 11.2253 10.6977 12.5551H18.3638C20.6902 12.5551 22.576 14.4288 22.576 16.74C22.576 19.0512 20.6902 20.9249 18.3638 20.9249H10.6977C10.9696 22.2547 10.5866 23.6901 9.54895 24.7214C8.52623 25.7373 7.10832 26.1219 5.78667 25.8743C5.81628 26.4587 5.86113 26.9993 5.92797 27.4956C6.13839 29.0487 6.59644 30.4206 7.70178 31.5188C8.8074 32.6171 10.1878 33.0725 11.7509 33.2813C13.2402 33.4802 15.1212 33.48 17.4027 33.48H23.5343C24.2039 33.4802 24.7 33.4805 25.1405 33.4228C28.1645 33.0274 30.5441 30.6626 30.9424 27.6581C31.0002 27.2203 31.0002 26.7274 31 26.0621V7.41744C31.0002 6.75213 31.0002 6.25914 30.9424 5.82144C30.5442 2.8169 28.1645 0.45246 25.1405 0.0567246V0.0572096Z" fill="black"/>
<path d="M7.94509 10.4194C7.28589 9.75344 6.21726 9.75344 5.55809 10.4194L0.494758 15.5344C-0.164155 16.2003 -0.164155 17.2798 0.494758 17.9457L5.55809 23.0607C6.21729 23.7263 7.28592 23.7263 7.94509 23.0607C8.604 22.3948 8.604 21.3152 7.94509 20.6493L5.76294 18.4449H18.5659C19.4981 18.4449 20.2539 17.6817 20.2539 16.74C20.2539 15.7984 19.4981 15.0351 18.5659 15.0351H5.76294L7.94509 12.8307C8.604 12.1648 8.604 11.0853 7.94509 10.4194Z" fill="black"/>
</svg>
