<svg width="30" height="33" viewBox="0 0 30 33" fill="none" xmlns="http://www.w3.org/2000/svg">
<g clip-path="url(#clip0_141_44)">
<path d="M24.3279 0.0563893C23.9016 -0.000514051 23.4214 -0.000237469 22.7734 3.83174e-05H16.8398C14.6319 -0.000237964 12.8116 -0.00023818 11.3704 0.195882C9.85777 0.401676 8.52188 0.850545 7.45195 1.93306C6.38223 3.01563 5.939 4.36776 5.73538 5.8986C5.6707 6.38779 5.6273 6.92035 5.59863 7.49661C6.87772 7.25269 8.2498 7.6314 9.23952 8.63328C10.2437 9.64951 10.6144 11.0644 10.3512 12.3751H17.7699C20.0213 12.3751 21.8461 14.2219 21.8461 16.5C21.8461 18.778 20.0213 20.625 17.7699 20.625H10.3512C10.6143 21.9357 10.2437 23.3505 9.23952 24.367C8.2498 25.3683 6.87765 25.7473 5.59863 25.5034C5.6273 26.0793 5.6707 26.6122 5.73538 27.1014C5.93902 28.6323 6.38228 29.9844 7.45195 31.0669C8.52188 32.1495 9.85777 32.5983 11.3704 32.8041C12.8116 33.0003 14.6319 33 16.8398 33H22.7734C23.4214 33.0003 23.9016 33.0004 24.3279 32.9436C27.2543 32.5539 29.5571 30.223 29.9426 27.2616C29.9986 26.83 29.9986 26.3442 29.9983 25.6884V7.31109C29.9986 6.65533 29.9986 6.16941 29.9426 5.73798C29.5571 2.77651 27.2543 0.446452 24.3279 0.0563893Z" fill="#F1D1D1"/>
<path d="M7.68789 10.2677C7.04997 9.6113 6.01582 9.6113 5.37792 10.2677L0.477992 15.3094C-0.159656 15.9658 -0.159656 17.0297 0.477992 17.6861L5.37792 22.7278C6.01586 23.3839 7.04999 23.3839 7.68789 22.7278C8.32554 22.0714 8.32554 21.0073 7.68789 20.351L5.57617 18.1781H17.9661C18.8681 18.1781 19.5996 17.4259 19.5996 16.4977C19.5996 15.5696 18.8681 14.8173 17.9661 14.8173H5.57617L7.68789 12.6445C8.32554 11.9881 8.32554 10.924 7.68789 10.2677Z" fill="#E7E5F1"/>
</g>
<defs>
<clipPath id="clip0_141_44">
<rect width="30" height="33" fill="white"/>
</clipPath>
</defs>
</svg>
