<svg width="18" height="22" viewBox="0 0 18 22" fill="none" xmlns="http://www.w3.org/2000/svg">
<path d="M14.5968 0.0375929C14.341 -0.000342699 14.0529 -0.000158313 13.6641 2.55449e-05H10.1039C8.77916 -0.000158643 7.687 -0.000158785 6.82229 0.130588C5.91469 0.267784 5.11316 0.56703 4.4712 1.28871C3.82937 2.01042 3.56343 2.91184 3.44126 3.9324C3.40245 4.25853 3.37641 4.61357 3.35921 4.99774C4.12666 4.83513 4.94991 5.0876 5.54374 5.75552C6.14625 6.43301 6.36866 7.37625 6.21077 8.25005H10.662C12.0128 8.25005 13.1077 9.48129 13.1077 11C13.1077 12.5187 12.0128 13.75 10.662 13.75H6.21077C6.36864 14.6238 6.14624 15.567 5.54374 16.2447C4.94991 16.9122 4.12662 17.1649 3.35921 17.0023C3.37641 17.3862 3.40245 17.7415 3.44126 18.0676C3.56344 19.0882 3.8294 19.9896 4.4712 20.7113C5.11316 21.433 5.91469 21.7322 6.82229 21.8694C7.687 22.0002 8.7792 22 10.1039 22H13.6641C14.0529 22.0002 14.341 22.0003 14.5968 21.9624C16.3526 21.7026 17.7343 20.1487 17.9656 18.1744C17.9992 17.8867 17.9992 17.5628 17.999 17.1256V4.87406C17.9992 4.43689 17.9992 4.11294 17.9656 3.82532C17.7343 1.85101 16.3526 0.297316 14.5968 0.0372742V0.0375929Z" fill="black"/>
<path d="M4.6128 6.84576C4.23005 6.40818 3.60956 6.40818 3.22682 6.84576L0.286861 10.2069C-0.0957283 10.6445 -0.0957283 11.3538 0.286861 11.7914L3.22682 15.1525C3.60958 15.5899 4.23006 15.5899 4.6128 15.1525C4.99539 14.7149 4.99539 14.0055 4.6128 13.568L3.34577 12.1194H10.7797C11.3209 12.1194 11.7598 11.6179 11.7598 10.9991C11.7598 10.3804 11.3209 9.87883 10.7797 9.87883H3.34577L4.6128 8.43029C4.99539 7.9927 4.99539 7.28333 4.6128 6.84576Z" fill="black"/>
</svg>
