<svg width="31" height="28" viewBox="0 0 31 28" fill="none" xmlns="http://www.w3.org/2000/svg">
<g clip-path="url(#clip0_141_47)">
<path d="M25.2501 28H13.7503C12.2252 28 10.7625 27.4102 9.68425 26.3597C8.60597 25.3095 8 23.8851 8 22.4V5.6C8 4.115 8.60597 2.6905 9.68425 1.64033C10.7625 0.589917 12.2251 0 13.7503 0H25.2501C26.7752 0 28.2375 0.589842 29.3158 1.64033C30.3943 2.6905 31 4.11492 31 5.6V22.4C31 23.885 30.3944 25.3095 29.3158 26.3597C28.2375 27.4101 26.7753 28 25.2501 28Z" fill="white"/>
<path d="M1.99978 2C2.53026 2 3.03915 2.19478 3.41406 2.54086C3.78899 2.88694 4 3.35665 4 3.84634V24.1538C4 24.8134 3.61879 25.4228 2.99973 25.7525C2.38101 26.0825 1.61857 26.0825 0.999913 25.7525C0.38119 25.4228 0 24.8134 0 24.1538V3.84634C0 3.35667 0.21066 2.88693 0.585588 2.54086C0.960865 2.19478 1.46928 2 1.99978 2Z" fill="white"/>
<path d="M16.6451 6V2.18182H17.801V2.88281H17.8432C17.9228 2.6508 18.057 2.46768 18.2459 2.33345C18.4348 2.19922 18.6602 2.1321 18.9221 2.1321C19.1872 2.1321 19.4142 2.20005 19.6032 2.33594C19.7921 2.47183 19.9122 2.65412 19.9636 2.88281H20.0034C20.0746 2.65578 20.2138 2.47431 20.421 2.33842C20.6281 2.20088 20.8726 2.1321 21.1543 2.1321C21.5156 2.1321 21.8089 2.24811 22.0343 2.48011C22.2596 2.71046 22.3723 3.02699 22.3723 3.42969V6H21.1568V3.7081C21.1568 3.51752 21.1079 3.37251 21.0101 3.27308C20.9123 3.17199 20.7856 3.12145 20.6298 3.12145C20.4624 3.12145 20.3307 3.17614 20.2346 3.28551C20.1401 3.39323 20.0929 3.53823 20.0929 3.72053V6H18.9245V3.69567C18.9245 3.51835 18.8765 3.37831 18.7804 3.27557C18.6842 3.17282 18.5575 3.12145 18.4 3.12145C18.294 3.12145 18.2003 3.14714 18.1191 3.19851C18.0379 3.24822 17.9741 3.31948 17.9277 3.41229C17.883 3.50509 17.8606 3.61446 17.8606 3.74041V6H16.6451ZM19.5612 13.0721C19.1618 13.0721 18.8171 12.9934 18.5271 12.8359C18.2388 12.6768 18.0167 12.4506 17.8609 12.1573C17.7068 11.8623 17.6297 11.5118 17.6297 11.1058C17.6297 10.7114 17.7076 10.3667 17.8634 10.0717C18.0192 9.77509 18.2388 9.54474 18.5222 9.38068C18.8055 9.21496 19.1395 9.1321 19.5239 9.1321C19.7957 9.1321 20.0443 9.17436 20.2697 9.25888C20.495 9.34339 20.6898 9.46851 20.8538 9.63423C21.0179 9.79995 21.1455 10.0046 21.2366 10.2482C21.3278 10.4902 21.3734 10.7678 21.3734 11.081V11.3842H18.0548V10.6783H20.2423C20.2407 10.549 20.21 10.4338 20.1503 10.3327C20.0907 10.2317 20.0087 10.1529 19.9043 10.0966C19.8015 10.0386 19.683 10.0096 19.5488 10.0096C19.4129 10.0096 19.2911 10.0402 19.1834 10.1016C19.0757 10.1612 18.9903 10.2433 18.9273 10.3477C18.8644 10.4504 18.8312 10.5672 18.8279 10.6982V11.4165C18.8279 11.5723 18.8586 11.709 18.9199 11.8267C18.9812 11.9427 19.0682 12.033 19.1809 12.0977C19.2936 12.1623 19.4278 12.1946 19.5836 12.1946C19.6913 12.1946 19.7891 12.1797 19.8769 12.1499C19.9647 12.12 20.0401 12.0761 20.1031 12.0181C20.1661 11.9601 20.2133 11.8888 20.2448 11.8043L21.3609 11.8366C21.3145 12.0869 21.2126 12.3048 21.0552 12.4904C20.8994 12.6744 20.6947 12.8177 20.4412 12.9205C20.1876 13.0215 19.8943 13.0721 19.5612 13.0721ZM18.8826 17.8224V20H17.667V16.1818H18.8229V16.8828H18.8652C18.9497 16.6491 19.0939 16.466 19.2977 16.3335C19.5016 16.1992 19.7443 16.1321 20.0261 16.1321C20.2945 16.1321 20.5274 16.1926 20.7246 16.3136C20.9234 16.4329 21.0775 16.6003 21.1869 16.8157C21.298 17.0295 21.3526 17.2797 21.351 17.5664V20H20.1354V17.805C20.1371 17.5929 20.0832 17.4272 19.9739 17.3079C19.8661 17.1886 19.7162 17.1289 19.5239 17.1289C19.3963 17.1289 19.2836 17.1571 19.1859 17.2134C19.0897 17.2681 19.0152 17.3468 18.9621 17.4496C18.9108 17.5523 18.8842 17.6766 18.8826 17.8224ZM20.1236 25.3519V23.1818H21.3367V27H20.1783V26.2891H20.1385C20.054 26.5227 19.9098 26.7083 19.706 26.8459C19.5038 26.9818 19.2594 27.0497 18.9727 27.0497C18.7125 27.0497 18.4838 26.9901 18.2866 26.8707C18.0894 26.7514 17.9361 26.5849 17.8267 26.3711C17.7174 26.1557 17.6619 25.9038 17.6602 25.6154V23.1818H18.8758V25.3768C18.8774 25.5839 18.9321 25.7472 19.0398 25.8665C19.1475 25.9858 19.2942 26.0455 19.4798 26.0455C19.6008 26.0455 19.7093 26.0189 19.8054 25.9659C19.9032 25.9112 19.9803 25.8325 20.0366 25.7298C20.0946 25.6254 20.1236 25.4994 20.1236 25.3519Z" fill="#E76A86"/>
</g>
<defs>
<clipPath id="clip0_141_47">
<rect width="31" height="28" fill="white"/>
</clipPath>
</defs>
</svg>
