<svg width="31" height="28" viewBox="0 0 31 28" fill="none" xmlns="http://www.w3.org/2000/svg">
<path d="M25.2501 28H13.7503C12.2252 28 10.7625 27.4102 9.68425 26.3597C8.60597 25.3095 8 23.8851 8 22.4V5.6C8 4.115 8.60597 2.6905 9.68425 1.64033C10.7625 0.589917 12.2251 0 13.7503 0H25.2501C26.7752 0 28.2375 0.589842 29.3158 1.64033C30.3943 2.6905 31 4.11492 31 5.6V22.4C31 23.885 30.3944 25.3095 29.3158 26.3597C28.2375 27.4101 26.7753 28 25.2501 28Z" fill="white"/>
<path d="M1.99978 2C2.53026 2 3.03915 2.19478 3.41406 2.54086C3.78899 2.88694 4 3.35665 4 3.84634V24.1538C4 24.8134 3.61879 25.4228 2.99973 25.7525C2.38101 26.0825 1.61857 26.0825 0.999913 25.7525C0.38119 25.4228 -6.1307e-08 24.8134 -6.1307e-08 24.1538V3.84634C-6.1307e-08 3.35667 0.21066 2.88693 0.585588 2.54086C0.960865 2.19478 1.46938 2 1.99988 2H1.99978Z" fill="white"/>
</svg>
