<svg width="1237" height="835" viewBox="0 0 1237 835" fill="none" xmlns="http://www.w3.org/2000/svg">
<g filter="url(#filter0_d_123_77)">
<path fill-rule="evenodd" clip-rule="evenodd" d="M176.854 106.265C176.854 106.265 292.854 20.2654 418.854 106.265C464.854 108.846 498.854 74.2654 522.854 38.2654C546.854 2.26537 620.855 -5.73464 666.855 20.2654C703.126 40.7663 717.014 71.215 734.993 110.631L734.995 110.634C739.817 121.205 744.933 132.422 750.855 144.265C773.255 189.065 808.188 169.599 822.855 154.265C822.855 154.265 886.855 76.2654 938.855 48.2654C980.455 25.8654 1025.52 32.2654 1042.85 38.2654C1042.85 38.2654 1178.85 86.2654 1212.85 250.265C1246.85 414.265 1166.85 526.265 1136.85 564.265C1121.91 583.201 1097.52 601.143 1063.21 619.081C1057.69 636.232 1048.5 665.072 1046.43 673C1043.43 684.5 1037.93 686.5 1033.43 686.5C1028.93 686.5 1026.93 683 1023.43 671.5C1019.95 660.08 1009.08 660.987 1003.05 661.49L1002.93 661.5C996.927 662 988.927 664 984.927 667C980.927 670 976.927 677 974.927 684C973.175 690.132 975.644 707.775 976.619 714.745C976.757 715.731 976.865 716.504 976.927 717C977.046 717.954 977.422 719.847 977.904 722.278C979.443 730.04 982.069 743.289 980.927 749C979.427 756.5 974.927 761 970.927 763.5C966.927 766 957.927 764 953.427 758.5C948.927 753 952.427 733.5 953.427 730.5C954.427 727.5 959.427 701 957.927 688.5C956.427 676 942.427 675.5 929.427 677C916.427 678.5 911.927 683 908.427 686.5C904.927 690 903.927 701 904.927 707C905.927 713 907.427 728 906.927 730.5C906.427 733 903.427 739 893.427 736.5C884.643 734.304 885.504 725.936 886.86 712.751L886.86 712.745C887.048 710.921 887.245 709.005 887.427 707C887.48 706.416 887.533 705.849 887.584 705.297L887.584 705.29C888.729 692.909 889.143 688.421 879.568 685.069C871.984 685.86 864.409 686.284 856.858 686.39C850.52 691.734 848.063 700.956 847.427 703.5C846.427 707.5 841.427 715 834.927 715C828.427 715 824.927 707 823.427 701C821.927 695 818.427 689 815.927 685C815.714 684.659 815.439 684.318 815.112 683.979C803.525 682.547 792.075 680.55 780.827 678.171C780 678.654 779.078 679.376 777.368 680.714C776.579 681.332 775.621 682.082 774.427 683C767.927 688 765.927 704.5 765.927 709.5C765.927 714.5 768.927 727 770.427 730.5C771.927 734 772.927 747 772.927 749C772.927 751 771.927 759 761.927 758.5C753.094 758.058 752.453 750.204 752.08 745.621C752.03 745.015 751.986 744.467 751.927 744C751.427 740 754.427 718.5 755.927 713C757.427 707.5 757.427 697.5 755.927 685C754.711 674.868 747.583 673.934 743.594 673.411C742.662 673.289 741.901 673.189 741.427 673C740.946 672.808 740.817 672.708 740.801 672.661C740.478 672.737 738.537 672.848 728.927 672C712.366 670.539 712.413 686.159 712.427 690.665C712.427 690.785 712.427 690.897 712.427 691C712.427 694.046 714.456 700.57 715.645 704.393L715.646 704.393L715.646 704.396C716.018 705.592 716.308 706.523 716.427 707C716.927 709 717.427 715.5 706.927 715C698.134 714.581 698.809 706.098 699.26 700.415C699.348 699.311 699.427 698.313 699.427 697.5C699.427 695.401 700.132 691.804 700.913 687.819C701.993 682.311 703.217 676.061 702.927 672C702.427 665 696.927 666.5 694.427 668.5C690.586 671.573 683.427 673.222 677.927 672C673.427 671 668.427 663.031 668.427 659C668.427 657.229 667.313 651.708 665.693 644.825C653.901 641.274 642.904 638.275 632.855 636.265C577.18 625.13 563.256 625.382 466.308 669.22C462.387 686.531 456.894 711.036 455.565 718.252C453.442 729.775 449.549 731.779 446.364 731.779C443.18 731.779 441.764 728.272 439.287 716.749C436.827 705.306 429.133 706.215 424.867 706.719L424.779 706.729C420.532 707.23 414.87 709.234 412.04 712.24C409.209 715.246 406.378 722.26 404.962 729.274C403.722 735.419 405.469 753.096 406.16 760.081C406.257 761.069 406.334 761.844 406.378 762.341C406.462 763.297 406.728 765.193 407.069 767.629C408.158 775.406 410.017 788.682 409.209 794.405C408.147 801.92 404.962 806.429 402.131 808.934C399.3 811.439 392.931 809.435 389.746 803.924C386.561 798.413 389.038 778.874 389.746 775.868C390.454 772.862 393.992 746.309 392.931 733.783C391.869 721.258 381.961 720.757 372.761 722.26C363.56 723.763 360.375 728.272 357.898 731.779C355.421 735.286 354.713 746.309 355.421 752.321C356.129 758.333 357.19 773.363 356.837 775.868C356.483 778.373 354.36 784.385 347.282 781.88C341.066 779.679 341.675 771.294 342.634 758.083C342.767 756.253 342.907 754.331 343.036 752.321C343.074 751.733 343.111 751.162 343.147 750.607C344.131 735.538 344.353 732.138 332.066 728.272C332.051 728.268 332.036 728.263 332.021 728.258C328.53 729.359 325.102 730.365 321.738 731.281C317.002 736.565 315.188 746.201 314.727 748.814C314.019 752.822 310.48 760.337 305.88 760.337C301.28 760.337 298.803 752.321 297.741 746.309C297.168 743.062 296.182 739.815 295.117 736.884C281.952 738.79 269.93 739.155 258.974 738.267C257.56 744.61 257.047 751.808 257.047 754.826C257.047 759.836 259.17 772.361 260.232 775.868C261.293 779.375 262.001 792.401 262.001 794.405C262.001 796.409 261.293 804.425 254.216 803.924C247.964 803.481 247.511 795.611 247.246 791.018C247.212 790.412 247.18 789.862 247.139 789.395C246.785 785.387 248.908 763.844 249.969 758.333C250.824 753.896 250.991 746.536 250.469 737.3C238.957 735.601 228.729 732.457 219.681 728.257C219.173 731.381 219.179 734.36 219.183 735.953C219.183 736.073 219.183 736.185 219.183 736.288C219.183 739.341 220.62 745.879 221.461 749.709C221.725 750.909 221.93 751.843 222.014 752.321C222.368 754.325 222.722 760.838 215.291 760.337C209.068 759.917 209.545 751.417 209.865 745.722C209.927 744.616 209.983 743.616 209.983 742.802C209.983 740.698 210.482 737.094 211.034 733.101C211.429 730.252 211.85 727.206 212.138 724.365C208.222 722.131 204.558 719.69 201.135 717.083C199.016 717.753 196.74 717.871 194.767 717.25C191.826 716.325 188.583 709.445 188.104 705.216C172.263 688.055 163.839 667.255 160.854 650.265C160.188 635.599 162.454 597.865 176.854 564.265C191.254 530.665 160.854 467 94.4272 453C10.8946 390.917 3.02453 372.412 26.4272 271C44.4272 193 116.854 144.265 176.854 106.265Z" fill="#ECB06C"/>
</g>
<defs>
<filter id="filter0_d_123_77" x="0" y="0" width="1236.12" height="835" filterUnits="userSpaceOnUse" color-interpolation-filters="sRGB">
<feFlood flood-opacity="0" result="BackgroundImageFix"/>
<feColorMatrix in="SourceAlpha" type="matrix" values="0 0 0 0 0 0 0 0 0 0 0 0 0 0 0 0 0 0 127 0" result="hardAlpha"/>
<feOffset dy="10"/>
<feGaussianBlur stdDeviation="7.5"/>
<feColorMatrix type="matrix" values="0 0 0 0 0 0 0 0 0 0 0 0 0 0 0 0 0 0 0.05 0"/>
<feBlend mode="normal" in2="BackgroundImageFix" result="effect1_dropShadow_123_77"/>
<feBlend mode="normal" in="SourceGraphic" in2="effect1_dropShadow_123_77" result="shape"/>
</filter>
</defs>
</svg>
