<svg width="148" height="146" viewBox="0 0 148 146" fill="none" xmlns="http://www.w3.org/2000/svg">
<g filter="url(#filter0_d_147_211)">
<path d="M109 74.6382C105.008 60.7035 101.12 53.5179 92.5463 45.8474C72.289 27.7228 45.2024 48.0406 35 78" stroke="#3CDFDD" stroke-width="14" stroke-miterlimit="1.5" stroke-linecap="round" stroke-linejoin="round"/>
<path d="M121.467 74.3777C116.745 56.7815 108.025 38.5785 93.2342 30.1482C64.1836 13.5889 31.0249 43.6332 23.9604 75.7962" stroke="#BF1553" stroke-width="16" stroke-miterlimit="1.5" stroke-linecap="round" stroke-linejoin="round"/>
<path d="M133 76.3482C126.335 45.2456 113.643 20.5961 88.6667 11.8936C80.9664 9.21105 67.1891 9.53414 59.6079 11.8861C34.3688 19.7163 16.9752 42.1915 14 76.3482" stroke="#E97C94" stroke-width="20" stroke-miterlimit="1.5" stroke-linecap="round" stroke-linejoin="round"/>
<path d="M101.997 94.8758C101.963 94.4289 101.866 93.9889 101.708 93.5699C101.487 92.9413 100.985 92.4561 100.355 92.2639L99.8909 92.1136C99.6819 92.0471 99.4654 92.0075 99.247 91.9961L98.6026 91.9437V91.9442C98.2004 91.8895 97.7933 91.8895 97.3916 91.9442C96.3433 92.1428 95.3394 92.5322 94.4281 93.0934C93.8354 93.4569 93.2674 93.8605 92.7273 94.3014C92.3377 94.6102 91.9674 94.9437 91.6196 95.3004C90.9883 95.9536 90.3677 96.6063 89.7579 97.2596C89.2479 97.8394 88.7702 98.4476 88.3275 99.0816C87.9734 99.5781 87.6512 100.094 87.3228 100.61C87.2904 100.662 87.2711 100.727 87.2005 100.76L87.2001 100.76C87.1403 100.693 87.1039 100.608 87.0972 100.518C87.0006 100.146 86.9103 99.7739 86.8204 99.4018L86.8199 99.4013C86.717 98.8643 86.5728 98.3359 86.3886 97.8211C86.2493 97.4722 86.0282 97.1625 85.7442 96.9201C85.2112 96.4764 84.557 96.21 83.8694 96.1558C83.4439 96.097 83.0291 96.3207 82.8391 96.711C82.6598 97.029 82.5353 97.3756 82.4719 97.7364C82.427 98.0042 82.3947 98.2785 82.356 98.5527C82.3012 98.9417 82.2814 99.3353 82.2981 99.7279C82.3452 100.659 82.3902 101.591 82.4333 102.523C82.4333 103.026 82.472 103.529 82.5043 104.032C82.556 104.75 82.6139 105.468 82.6719 106.193V106.604C82.6719 107.418 82.6912 108.231 82.7299 109.04H82.7294C82.7488 109.553 82.7272 110.066 82.6652 110.575C82.6306 110.901 82.5614 111.223 82.4589 111.535C82.2985 112.052 81.8954 112.456 81.3832 112.612C80.839 112.795 80.2395 112.66 79.8238 112.26L79.5533 112.031C79.4473 111.944 79.3278 111.876 79.1992 111.829C79.0541 111.764 78.8847 111.792 78.7674 111.9C78.6474 111.996 78.554 112.122 78.4969 112.266C78.4326 112.436 78.3616 112.605 78.2974 112.775C78.1855 113.037 78.0048 113.263 77.7757 113.429C77.3605 113.741 76.8671 113.929 76.3516 113.971C75.7001 114.071 75.0377 113.88 74.5354 113.448C74.4747 113.395 74.41 113.347 74.3421 113.305C74.2788 113.264 74.1988 113.264 74.1359 113.305C73.9224 113.404 73.7562 113.585 73.6721 113.807C73.5625 114.134 73.434 114.46 73.318 114.786L73.3176 114.787C73.2646 114.935 73.1648 115.061 73.0341 115.146C72.9136 115.225 72.7838 115.288 72.6476 115.335C72.2998 115.459 71.939 115.551 71.5849 115.642C71.4955 115.661 71.4051 115.671 71.3144 115.675C70.5208 115.724 69.725 115.658 68.9498 115.479C68.3764 115.36 67.8152 115.185 67.275 114.957C66.809 114.771 66.3741 114.514 65.9867 114.192C65.6848 113.931 65.4008 113.65 65.1361 113.35C64.5075 112.67 63.97 111.908 63.5386 111.084L62.701 109.321C62.5015 108.923 62.2953 108.524 62.1083 108.119C61.7416 107.303 61.4213 106.465 61.1485 105.612C60.7787 104.483 60.5113 103.322 60.35 102.144C60.3113 101.87 60.279 101.602 60.2403 101.328C60.2358 101.221 60.195 101.12 60.1244 101.041C59.9182 100.851 59.7249 100.649 59.5124 100.459C59.2832 100.257 59.068 100.039 58.868 99.8063C58.5139 99.3817 58.1531 98.9572 57.7922 98.5395C57.4314 98.1213 57.2252 97.8863 56.9546 97.5337C56.5619 97.0308 56.175 96.528 55.7692 96.0383H55.7697C54.8651 94.9587 53.8904 93.942 52.8516 92.9954C52.6134 92.7736 52.3618 92.5645 52.1173 92.3422H52.1169C51.2074 91.5227 50.257 90.751 49.2697 90.0305C48.9628 89.8046 48.6375 89.606 48.2969 89.4365C47.9361 89.2493 47.5496 89.1172 47.1501 89.0443C46.6459 88.9382 46.1207 89.0243 45.6749 89.2862C45.1168 89.6392 44.6697 90.1466 44.3866 90.7488C44.2644 90.983 44.1696 91.2308 44.1031 91.4868C43.9481 92.1946 43.9683 92.9303 44.1611 93.6286C44.2927 94.1028 44.4608 94.5656 44.6639 95.0129C45.089 96.025 45.572 96.9721 46.0875 97.9646C46.5386 98.8068 46.9637 99.6623 47.466 100.479V100.479C48.1374 101.593 48.8914 102.654 49.7205 103.653L50.3649 104.397C51.3377 105.54 52.2459 106.735 53.1608 107.917C53.8605 108.804 54.5057 109.732 55.0935 110.699C55.6646 111.641 56.1684 112.623 56.6007 113.638C56.807 114.134 57.0325 114.624 57.2451 115.113C57.3237 115.319 57.4522 115.501 57.6185 115.642C57.6868 115.703 57.7398 115.779 57.7731 115.864C57.9919 116.295 58.2305 116.713 58.4754 117.131C58.7203 117.549 59.0744 118.13 59.358 118.64C59.7381 119.325 60.1246 119.978 60.5371 120.671C61.1639 121.694 61.7526 122.741 62.3022 123.812L62.9466 125.118C63.2881 125.771 63.6808 126.424 64.0479 127.077C64.5377 127.959 65.0401 128.84 65.5875 129.689C66.3927 130.936 67.2623 132.138 68.164 133.32C68.7437 134.091 69.3363 134.848 69.9614 135.579C70.3115 136.008 70.6975 136.406 71.1144 136.768C71.6815 137.256 72.3587 137.595 73.0858 137.754C73.51 137.841 73.9414 137.886 74.3741 137.891C75.6803 137.901 76.9812 137.725 78.2395 137.368C79.1131 137.123 79.9731 136.831 80.8161 136.493C81.5166 136.225 82.1915 135.893 82.8323 135.501C83.7243 134.95 84.5371 134.277 85.248 133.503C85.8263 132.873 86.2905 132.146 86.6204 131.354C87.0082 130.397 87.2261 129.378 87.2648 128.343C87.2935 127.804 87.2935 127.263 87.2648 126.724C87.2504 126.596 87.2958 126.468 87.387 126.378C87.4643 126.299 87.5286 126.215 87.5996 126.13V126.13C88.3158 125.306 88.9746 124.434 89.5709 123.518C90.0005 122.82 90.3878 122.096 90.7302 121.35C91.3746 120.044 91.948 118.738 92.534 117.431C93.0494 116.276 93.5518 115.113 93.9837 113.918C94.2394 113.235 94.4541 112.537 94.628 111.829C94.7633 111.261 94.9116 110.699 95.0531 110.131C95.1367 109.785 95.2207 109.438 95.298 109.093C95.4463 108.439 95.5816 107.734 95.7748 107.068C96.013 106.252 96.2772 105.449 96.5931 104.659L96.5926 104.658C96.8258 104.059 97.1265 103.49 97.4882 102.96C97.7587 102.568 98.0616 102.209 98.3577 101.844C98.9634 101.099 99.5948 100.368 100.155 99.5844C100.627 98.9303 101.028 98.2278 101.353 97.4881C101.573 97.007 101.748 96.5064 101.875 95.9926C101.97 95.6287 102.011 95.2525 101.997 94.8758ZM99.4788 96.9393V96.9397C99.2123 97.408 98.8969 97.8457 98.5383 98.2456C98.3195 98.4871 98.1065 98.7353 97.8939 98.964C97.5897 99.266 97.2338 99.5093 96.8438 99.6824C96.7719 99.7202 96.6928 99.7425 96.6119 99.7475C96.5849 99.7502 96.558 99.7397 96.54 99.7188C96.522 99.6983 96.5153 99.6701 96.5216 99.6432C96.5355 99.5612 96.5661 99.4833 96.6119 99.4145C96.7701 99.1394 96.9467 98.8752 97.1404 98.6242C97.6427 97.971 98.1644 97.3574 98.7252 96.763L99.6333 95.8164L99.7686 95.6793C99.7767 95.6656 99.7915 95.657 99.8072 95.657C99.823 95.657 99.8378 95.6656 99.8459 95.6793C99.8481 95.7007 99.8481 95.7226 99.8459 95.7444C99.8072 96.1653 99.6801 96.573 99.472 96.9397L99.4788 96.9393Z" fill="black"/>
<path d="M75.1861 99.1582V99.2693C75.2441 100.034 75.3582 100.794 75.5271 101.541C75.7141 102.442 75.9006 103.344 76.0556 104.258C76.1176 104.674 76.2102 105.084 76.3324 105.486C76.4807 105.936 76.6478 106.38 76.8092 106.792C76.97 107.203 77.1633 107.673 77.3246 108.098V108.098C77.5146 108.631 77.7542 109.145 78.0395 109.633C78.5419 110.513 79.3162 111.201 80.2427 111.592C80.3842 111.654 80.5343 111.693 80.6875 111.709C81.1733 111.788 81.6635 111.599 81.9758 111.213C82.2153 110.921 82.3577 110.56 82.3816 110.181C82.4108 109.661 82.4108 109.14 82.3816 108.62C82.3816 108.163 82.3173 107.713 82.2787 107.256C82.227 106.603 82.169 105.911 82.0791 105.238C81.9888 104.565 81.9183 104.082 81.8536 103.501C81.757 102.685 81.7053 101.862 81.6473 101.046C81.6473 100.726 81.5956 100.392 81.5956 100.086V98.2246V98.2241C81.6033 97.785 81.6527 97.3473 81.7439 96.9182C81.8041 96.5715 81.899 96.2326 82.027 95.906C82.111 95.6942 82.2409 95.5043 82.4072 95.3508C82.5015 95.2638 82.6215 95.2109 82.7487 95.2004C82.9091 95.1822 83.0713 95.1822 83.2317 95.2004C83.9058 95.2829 84.5528 95.5175 85.1258 95.886C85.2435 95.973 85.3864 96.0167 85.5316 96.0103C85.5999 96.0181 85.6677 95.9949 85.7176 95.947C85.7675 95.8992 85.7935 95.8313 85.7895 95.7621C85.8016 95.5799 85.7661 95.3972 85.6861 95.2332C85.4421 94.7035 85.1712 94.1869 84.8746 93.6854C84.7061 93.393 84.5052 93.1215 84.2756 92.876C84.1017 92.6933 83.9278 92.5038 83.7665 92.308V92.3075C83.4704 91.9513 83.1428 91.6233 82.7873 91.3282C82.2746 90.9109 81.717 90.5538 81.1252 90.2636C80.7653 90.0937 80.3923 89.9516 80.0108 89.8391C79.5219 89.6728 79.002 89.6213 78.4906 89.6892C77.4593 89.8149 76.5157 90.3388 75.8561 91.1519C75.5411 91.5236 75.3317 91.975 75.2503 92.4578C75.1816 92.8532 75.1344 93.2522 75.1088 93.6531C75.0764 94.1428 75.0185 94.6393 75.0378 95.1289C75.0571 95.6186 75.0701 96.0431 75.0958 96.5985C75.1474 97.3883 75.173 98.2762 75.1861 99.158L75.1861 99.1582ZM79.5022 108.875C79.8945 108.83 80.2841 108.76 80.6683 108.666H80.8553C80.9968 108.666 81.0548 108.712 81.0741 108.856C81.0934 108.999 81.0741 109.071 81.0741 109.189C81.0808 109.287 81.0808 109.385 81.0741 109.482C81.0327 109.673 80.8997 109.83 80.7196 109.901C80.627 109.94 80.5223 109.94 80.4297 109.901C80.0298 109.75 79.6901 109.47 79.4636 109.104L79.4506 108.96C79.4425 108.922 79.4654 108.885 79.5022 108.875Z" fill="black"/>
<path d="M67.1268 98.1749C67.1564 98.6783 67.2539 99.1748 67.4166 99.6508C67.5262 99.951 67.6292 100.252 67.7258 100.559C67.919 101.212 68.1059 101.813 68.2991 102.439C68.4924 103.066 68.6469 103.517 68.8146 104.052V104.052C68.9808 104.585 69.1965 105.101 69.4589 105.593C69.5362 105.737 69.6135 105.881 69.6778 106.031V106.031C70.0292 106.834 70.4794 107.589 71.0177 108.277C71.3075 108.65 71.5781 109.041 71.836 109.433C72.1254 109.894 72.4507 110.331 72.8088 110.739L72.9311 110.89C73.3562 111.458 73.8329 111.98 74.2966 112.522V112.522C74.5083 112.76 74.7671 112.949 75.057 113.077C75.2938 113.192 75.5544 113.248 75.8168 113.24C76.3259 113.226 76.8162 113.045 77.2147 112.725C77.3415 112.621 77.4619 112.51 77.5756 112.392C77.9135 112.064 78.0946 111.604 78.0717 111.131C78.0649 110.837 78.0038 110.547 77.8915 110.276C77.6789 109.766 77.4533 109.25 77.2471 108.748C76.7636 107.749 76.3331 106.724 75.9588 105.678C75.6052 104.671 75.3423 103.632 75.1729 102.577C75.1342 102.335 75.1086 102.087 75.0632 101.845C74.9473 101.192 74.857 100.473 74.799 99.7816C74.7473 99.22 74.7154 98.652 74.6961 98.0839C74.6961 97.6657 74.6575 97.2416 74.6319 96.8234V96.608V96.6075C74.5618 96.0919 74.4589 95.5817 74.3227 95.0797C74.2472 94.7685 74.1349 94.4684 73.9875 94.185C73.7322 93.7691 73.3997 93.4075 73.0083 93.1205C72.807 92.9487 72.5751 92.818 72.3253 92.7351C71.7312 92.5338 71.0936 92.5019 70.4829 92.644C70.1158 92.7356 69.7612 92.8791 69.4009 92.9834C69.1694 93.0563 68.9434 93.146 68.7246 93.2512C68.4285 93.3888 68.1696 93.597 67.9706 93.8584C67.6982 94.2128 67.4987 94.6191 67.3846 95.0532C67.1577 95.864 67.0619 96.7063 67.101 97.5481C67.1073 97.7768 67.1142 97.9659 67.1268 98.1749ZM74.5093 110.778C74.8234 110.569 75.1577 110.394 75.5077 110.256C75.6178 110.224 75.7297 110.2 75.843 110.184C75.9805 110.148 76.1238 110.217 76.1845 110.347C76.2285 110.426 76.2654 110.509 76.2937 110.595C76.331 110.717 76.3611 110.842 76.384 110.967C76.4343 111.144 76.4092 111.333 76.3148 111.49C76.2204 111.646 76.0659 111.755 75.8879 111.791H75.6498C75.4947 111.795 75.3428 111.746 75.2179 111.653C74.9223 111.446 74.6742 111.176 74.49 110.863C74.4769 110.833 74.485 110.799 74.5093 110.778Z" fill="black"/>
<path d="M61.5361 104.07C61.665 104.612 61.8003 105.148 61.9805 105.677V105.676C62.1701 106.24 62.4119 106.785 62.7017 107.303L64.1127 109.797C64.3594 110.244 64.6506 110.664 64.9822 111.051C65.3687 111.489 65.7232 111.952 66.071 112.416C66.2175 112.613 66.3815 112.797 66.5608 112.964C67.2209 113.574 67.9471 114.106 68.7253 114.551C68.9122 114.664 69.114 114.749 69.3243 114.806C69.7898 114.934 70.2666 115.015 70.7479 115.047H70.8121C71.306 115.108 71.7949 114.903 72.1009 114.505C72.4293 114.082 72.7205 113.629 72.9704 113.154C73.0391 113.024 73.0683 112.876 73.0539 112.729C73.0454 112.573 73.0148 112.419 72.9641 112.272C72.8531 111.953 72.7016 111.65 72.5129 111.371C72.2038 110.92 71.8685 110.476 71.5854 110.026C71.1257 109.346 70.6858 108.656 70.2648 107.955C69.9363 107.407 69.6205 106.839 69.3243 106.29V106.29C69.0871 105.896 68.8718 105.488 68.6799 105.069C68.427 104.503 68.2117 103.921 68.036 103.325C67.8814 102.803 67.7206 102.28 67.553 101.758C67.3534 101.105 67.1665 100.452 67.0182 99.8316C66.8991 99.3201 66.7486 98.8158 66.5671 98.3233C66.4758 98.0564 66.3527 97.8018 66.1999 97.5658C65.7843 96.9659 65.2514 96.4589 64.6344 96.0767C64.5019 95.9983 64.3617 95.935 64.2156 95.8872C63.8557 95.7569 63.4589 95.7779 63.1143 95.9464C62.7467 96.1081 62.4461 96.3942 62.2641 96.7559C62.0839 97.1021 61.8776 97.4091 61.6777 97.7744V97.7749C61.431 98.2117 61.2548 98.6854 61.156 99.1787C61.0715 99.6557 61.0198 100.138 61.0014 100.622C60.9722 101.423 61.0589 102.223 61.2589 102.999C61.3361 103.371 61.4521 103.717 61.5361 104.07L61.5361 104.07ZM69.6658 112.644C69.8397 112.546 70.0073 112.435 70.1682 112.331C70.3291 112.227 70.4194 112.188 70.5416 112.116V112.115C70.6059 112.083 70.6764 112.065 70.7479 112.063C70.8858 112.04 71.022 112.115 71.0764 112.246C71.1087 112.318 71.1343 112.403 71.1667 112.474C71.2921 112.744 71.257 113.062 71.0764 113.297C70.9816 113.443 70.8333 113.544 70.6643 113.578C70.4886 113.623 70.3048 113.623 70.1296 113.578C69.8101 113.48 69.5032 113.344 69.2147 113.173C69.1491 113.145 69.0979 113.091 69.0731 113.023C69.2664 112.892 69.4596 112.762 69.6658 112.644Z" fill="black"/>
<path d="M29.8222 21.415C29.8222 21.415 30.1372 29.64 30.1372 31.635C30.1372 32.23 30.1372 32.825 30.1022 33.42C30.1022 34.155 30.1022 34.925 30.1022 35.66C30.1022 38.355 29.9272 42.38 29.9272 44.095C29.9272 47.63 30.1022 47.21 31.8522 47.245C32.7622 47.245 33.6722 47.245 34.5822 47.245C50.7872 47.245 49.5972 47.665 49.5972 44.725C49.5972 43.99 49.5272 43.22 49.4222 42.485C49.3172 41.715 49.2472 41.645 47.1822 41.645C46.3072 41.645 37.3122 41.855 37.3122 41.855C37.0322 41.855 36.8572 41.715 36.8572 41.4C36.8572 41.4 36.8572 41.26 36.8572 41.155C36.8572 41.155 36.8572 41.12 36.8572 39.475V38.145C36.8572 33.805 36.7872 26.455 36.7872 26.455C36.7872 25.545 36.1572 25.93 48.1972 25.72C49.3522 25.72 49.4572 25.37 49.4572 23.375C49.4572 22.605 49.3872 21.8 49.3172 21.03C49.2122 20.12 49.9122 20.155 36.4722 20.155C29.7872 20.155 29.8222 20.19 29.8222 21.415ZM51.7322 27.925C51.7322 31.845 51.8372 35.8 51.8372 39.72C51.8372 43.885 51.6972 46.475 51.6972 46.475C51.6972 46.93 51.9422 47.175 52.3972 47.175C52.5722 47.175 52.6772 47.14 53.0622 47.14C53.0622 47.14 55.1972 47.28 57.6822 47.28C71.7172 47.28 71.1222 47.595 71.1222 46.265C71.1572 44.48 71.4022 31.005 71.4022 31.005C71.4022 20.75 71.6122 20.33 69.5122 20.33C69.4772 20.33 69.2322 20.33 69.0572 20.33C67.9372 20.33 54.8472 20.015 53.8672 20.015C51.6272 20.015 51.7322 19.385 51.7322 27.925ZM58.8022 40.945C58.8022 24.04 58.4522 25.895 60.8672 25.895C64.1572 25.895 64.0522 25.825 64.0522 26.315C64.0522 26.315 63.9822 27.75 63.9822 30.235C63.9822 31.04 63.9822 31.845 63.9822 32.65C63.9822 33.035 63.9822 33.42 63.9822 33.805C63.9822 35.1 63.9822 36.43 63.9822 37.725C63.9822 41.785 64.1222 41.54 63.3872 41.54C58.3822 41.54 58.8022 41.575 58.8022 40.945ZM73.5388 27.925C73.5388 31.845 73.6438 35.8 73.6438 39.72C73.6438 43.885 73.5038 46.475 73.5038 46.475C73.5038 46.93 73.7488 47.175 74.2038 47.175C74.3788 47.175 74.4838 47.14 74.8688 47.14C74.8688 47.14 77.0038 47.28 79.4888 47.28C93.5238 47.28 92.9288 47.595 92.9288 46.265C92.9638 44.48 93.2088 31.005 93.2088 31.005C93.2088 20.75 93.4188 20.33 91.3188 20.33C91.2838 20.33 91.0388 20.33 90.8638 20.33C89.7438 20.33 76.6538 20.015 75.6738 20.015C73.4338 20.015 73.5388 19.385 73.5388 27.925ZM80.6088 40.945C80.6088 24.04 80.2588 25.895 82.6738 25.895C85.9638 25.895 85.8588 25.825 85.8588 26.315C85.8588 26.315 85.7888 27.75 85.7888 30.235C85.7888 31.04 85.7888 31.845 85.7888 32.65C85.7888 33.035 85.7888 33.42 85.7888 33.805C85.7888 35.1 85.7888 36.43 85.7888 37.725C85.7888 41.785 85.9288 41.54 85.1938 41.54C80.1888 41.54 80.6088 41.575 80.6088 40.945ZM102.065 31.25C102.1 30.2 102.24 23.935 102.24 22.885C102.24 20.4 102.38 20.295 100.385 20.295C99.3004 20.295 98.2154 20.4 97.1654 20.4C96.5704 20.4 95.9404 20.365 95.9404 20.365C95.4504 20.365 95.3104 20.54 95.3104 21.065C95.3104 21.065 95.5904 24.67 95.5904 39.02C95.5904 40.49 95.5904 41.995 95.5904 43.465C95.5904 44.9 95.5904 45.74 95.5904 45.74C95.5904 46.335 95.5204 46.475 95.5204 46.79C95.5204 47.175 95.7304 47.245 96.3254 47.245C97.0254 47.245 97.9004 47.245 98.6704 47.245C99.6854 47.245 100.315 47.28 102.625 47.28C115.68 47.28 114.735 47.84 114.735 44.97C114.735 41.085 116.17 41.645 103.255 41.645C103.15 41.645 103.01 41.645 102.905 41.645C102.03 41.645 102.065 41.645 102.065 40.945C102.065 40.945 102.065 41.225 102.065 33.35C102.065 32.65 102.065 31.95 102.065 31.25ZM5.79385 60.415C5.79385 60.415 6.10885 68.64 6.10885 70.635C6.10885 71.23 6.10885 71.825 6.07385 72.42C6.07385 73.155 6.07385 73.925 6.07385 74.66C6.07385 77.355 5.89885 81.38 5.89885 83.095C5.89885 86.63 6.07385 86.21 7.82385 86.245C8.73385 86.245 9.64385 86.245 10.5538 86.245C26.7588 86.245 25.5688 86.665 25.5688 83.725C25.5688 82.99 25.4988 82.22 25.3938 81.485C25.2888 80.715 25.2188 80.645 23.1538 80.645C22.2788 80.645 13.2838 80.855 13.2838 80.855C13.0038 80.855 12.8288 80.715 12.8288 80.4C12.8288 80.4 12.8288 80.26 12.8288 80.155C12.8288 80.155 12.8288 80.12 12.8288 78.475V77.145C12.8288 72.805 12.7588 65.455 12.7588 65.455C12.7588 64.545 12.1288 64.93 24.1688 64.72C25.3238 64.72 25.4288 64.37 25.4288 62.375C25.4288 61.605 25.3588 60.8 25.2888 60.03C25.1838 59.12 25.8838 59.155 12.4438 59.155C5.75885 59.155 5.79385 59.19 5.79385 60.415ZM46.5688 84.95C46.6038 83.27 46.9188 68.99 46.9188 67.66C46.9188 58.77 47.0238 59.015 46.2538 59.015C46.1838 59.015 42.1938 59.19 41.2838 59.295C39.9538 59.435 39.9538 59.295 39.9538 63.6C39.9538 63.6 40.0238 73.89 40.0238 80.12C40.0238 80.925 40.5138 80.925 35.0888 80.925C34.4938 80.925 34.4238 80.855 34.4238 80.26C34.4238 80.26 34.6688 67.17 34.6688 64.23C34.6688 59.54 34.7738 59.015 34.0038 59.015C33.9338 59.015 29.8738 59.19 28.7888 59.295C27.8088 59.435 27.7038 59.4 27.7038 63.25C27.7038 87.505 27.3188 86.14 29.1738 86.175C31.1338 86.21 33.1288 86.245 35.1238 86.245C47.2338 86.245 46.5338 86.35 46.5688 84.95ZM55.7862 70.25C55.8212 69.2 55.9612 62.935 55.9612 61.885C55.9612 59.4 56.1012 59.295 54.1062 59.295C53.0212 59.295 51.9362 59.4 50.8862 59.4C50.2912 59.4 49.6612 59.365 49.6612 59.365C49.1712 59.365 49.0312 59.54 49.0312 60.065C49.0312 60.065 49.3112 63.67 49.3112 78.02C49.3112 79.49 49.3112 80.995 49.3112 82.465C49.3112 83.9 49.3112 84.74 49.3112 84.74C49.3112 85.335 49.2412 85.475 49.2412 85.79C49.2412 86.175 49.4512 86.245 50.0462 86.245C50.7462 86.245 51.6212 86.245 52.3912 86.245C53.4062 86.245 54.0362 86.28 56.3462 86.28C69.4012 86.28 68.4562 86.84 68.4562 83.97C68.4562 80.085 69.8912 80.645 56.9762 80.645C56.8712 80.645 56.7312 80.645 56.6262 80.645C55.7512 80.645 55.7862 80.645 55.7862 79.945C55.7862 79.945 55.7862 80.225 55.7862 72.35C55.7862 71.65 55.7862 70.95 55.7862 70.25ZM70.3743 75.36C70.4093 75.36 70.4093 75.36 70.4093 75.36C70.4093 77.11 70.4093 78.86 70.4093 80.61C70.4093 86.595 69.9893 86.14 72.4743 86.14C77.2693 86.14 77.0593 86.315 77.0593 84.74C77.0593 84.74 77.0593 84.25 77.0593 83.935C77.0593 62.83 77.0943 65 78.3193 64.965C83.7093 64.895 83.3593 65.14 83.3593 63.495C83.3593 59.19 83.2893 59.4 82.0993 59.4L71.4593 59.33C71.4593 59.33 70.6543 59.47 64.7743 59.47C64.1093 59.47 63.6543 59.295 64.0393 64.055C64.1793 65.595 64.2843 64.93 67.8543 64.93C68.2043 64.93 68.5893 64.93 68.9743 64.93C70.0243 64.93 70.4093 64.825 70.4093 65.315C70.4093 65.245 70.3743 65.7 70.3743 70.67C70.3743 72.21 70.3743 73.785 70.3743 75.36ZM104.367 84.95C104.402 83.27 104.717 68.99 104.717 67.66C104.717 58.77 104.822 59.015 104.052 59.015C103.982 59.015 99.9917 59.19 99.0817 59.295C97.7517 59.435 97.7517 59.295 97.7517 63.6C97.7517 63.6 97.8217 73.89 97.8217 80.12C97.8217 80.925 98.3117 80.925 92.8867 80.925C92.2917 80.925 92.2217 80.855 92.2217 80.26C92.2217 80.26 92.4667 67.17 92.4667 64.23C92.4667 59.54 92.5717 59.015 91.8017 59.015C91.7317 59.015 87.6717 59.19 86.5867 59.295C85.6067 59.435 85.5017 59.4 85.5017 63.25C85.5017 87.505 85.1167 86.14 86.9717 86.175C88.9317 86.21 90.9267 86.245 92.9217 86.245C105.032 86.245 104.332 86.35 104.367 84.95ZM120.829 75.36C121.389 75.115 121.879 74.94 122.404 74.73C125.239 73.505 127.164 70.46 127.164 67.38C127.164 62.83 123.524 59.19 117.154 59.19C115.614 59.19 114.529 59.4 112.429 59.4C112.044 59.4 111.869 59.4 111.204 59.4C106.899 59.4 107.039 59.33 107.039 60.38C106.969 63.075 106.829 65.77 106.829 68.465C106.829 68.465 106.829 70.705 106.829 73.54C106.829 76.585 106.829 79 106.829 82.92C106.829 85.825 106.689 86.245 107.634 86.245C107.634 86.245 108.754 86.105 110.084 86.105C110.854 86.105 111.659 86.105 112.464 86.105C113.164 86.105 113.969 86.21 113.969 85.3C113.969 85.37 113.899 85.51 113.899 78.44C113.899 77.53 113.864 77.46 113.864 77.46C113.864 77.355 113.899 77.25 114.039 77.215C114.354 77.39 117.679 82.5 119.884 85.58C120.199 86 120.514 86.21 121.039 86.21C121.039 86.21 121.424 86.21 121.774 86.21C121.774 86.21 123.454 86.28 126.849 86.28C139.904 86.28 138.714 86.805 138.714 83.935C138.714 80.155 140.149 80.68 128.459 80.68C127.339 80.68 124.574 80.715 124.574 80.715C123.874 80.715 124.224 80.96 120.829 75.36ZM115.299 69.445C114.739 69.445 114.354 69.445 114.354 69.445C114.004 69.445 113.829 69.305 113.829 68.92C113.829 68.92 113.829 68.71 113.829 68.465C113.829 67.31 113.794 65.98 113.794 65.98C113.794 65.385 113.829 65.455 118.099 65.455C118.799 65.455 119.079 65.42 119.814 66.33C120.059 66.645 120.199 67.17 120.199 67.625C120.199 68.78 119.499 69.41 118.729 69.41C118.729 69.41 118.344 69.41 117.854 69.41C117.434 69.41 117.014 69.41 116.594 69.41C116.594 69.445 116.594 69.445 116.594 69.445C116.139 69.445 115.719 69.445 115.299 69.445ZM128.774 67.485C128.774 67.59 128.704 77.81 128.704 77.81C128.704 78.79 128.004 78.825 138.224 78.825C138.574 78.825 138.679 78.685 138.679 78.37V75.99C138.679 75.115 138.679 75.15 137.909 75.115C135.179 74.975 133.604 75.08 133.289 75.08C132.799 75.08 132.764 75.01 132.764 73.33C132.764 71.825 132.834 71.825 133.569 71.755C134.409 71.65 135.249 71.615 136.089 71.615C136.439 71.615 136.929 71.685 136.929 71.055C136.929 68.08 137.069 68.955 133.324 68.71C132.554 68.675 132.589 68.745 132.589 65.91C132.589 64.895 132.624 65.175 133.989 65.175C135.179 65.175 136.334 65 137.524 65C137.944 65 138.329 65 138.329 65C138.959 65 138.714 64.545 138.819 62.76C138.854 62.305 138.714 62.13 138.259 62.13C138.259 62.13 137.769 62.13 136.894 62.13C127.864 62.13 128.774 62.165 128.774 63.04C128.774 63.04 128.774 62.865 128.774 67.485Z" fill="black"/>
</g>
<defs>
<filter id="filter0_d_147_211" x="-0.000488281" y="0" width="147.002" height="145.891" filterUnits="userSpaceOnUse" color-interpolation-filters="sRGB">
<feFlood flood-opacity="0" result="BackgroundImageFix"/>
<feColorMatrix in="SourceAlpha" type="matrix" values="0 0 0 0 0 0 0 0 0 0 0 0 0 0 0 0 0 0 127 0" result="hardAlpha"/>
<feOffset dy="4"/>
<feGaussianBlur stdDeviation="2"/>
<feComposite in2="hardAlpha" operator="out"/>
<feColorMatrix type="matrix" values="0 0 0 0 0 0 0 0 0 0 0 0 0 0 0 0 0 0 0.25 0"/>
<feBlend mode="normal" in2="BackgroundImageFix" result="effect1_dropShadow_147_211"/>
<feBlend mode="normal" in="SourceGraphic" in2="effect1_dropShadow_147_211" result="shape"/>
</filter>
</defs>
</svg>
