<svg width="327" height="112" viewBox="0 0 327 112" fill="none" xmlns="http://www.w3.org/2000/svg">
<rect x="90" width="185" height="87" rx="19" fill="white" fill-opacity="0.58"/>
<g filter="url(#filter0_f_42_2541)">
<path d="M202.635 30.6392C201.196 26.716 207.433 21.6537 209.496 27.4753M203.954 25.4503C203.715 23.552 205.014 20.0018 207.628 19.7239C210.894 19.3765 211.973 21.0707 212.317 22.113M209.497 27.1586C209.497 25.5952 210.538 22.7257 214.581 22.7257C216.919 22.7257 217.996 25.2832 218.226 26.2097" stroke="#E76A86" stroke-width="3" stroke-linecap="round" stroke-linejoin="round"/>
</g>
<g filter="url(#filter1_f_42_2541)">
<path d="M217.814 29.1071C214.192 28.0151 207.574 31.3254 204.07 33.2024H202.453V30.8135C205.946 27.8103 214.688 26.6045 218.623 26.377L218.785 28.254L217.814 29.4484V29.1071Z" fill="#D67F92"/>
</g>
<g filter="url(#filter2_f_42_2541)">
<path d="M215.609 39.3485C214.418 39.3485 213.286 39.8604 212.801 39.8604L207.627 40.2017L204.555 32.8643C206.768 28.3595 213.116 26.8921 215.609 26.5508L218.137 28.4278L218.461 37.9834L215.609 39.3485Z" fill="#D67F92"/>
</g>
<g filter="url(#filter3_i_42_2541)">
<path d="M209.245 26.5433C208.016 25.0246 206.496 23.9836 203.585 25.6899C203.825 22.7792 204.232 20.5709 206.713 19.6223C211.006 17.9806 212.802 22.4479 212.802 22.4479C209.892 23.301 209.474 25.8484 209.245 26.5433Z" fill="#E76A86"/>
<path d="M209.596 27.6286L202.292 30.9798C201.807 28.2496 202.564 25.9814 205.202 25.3487C205.545 25.2666 207.674 24.2115 209.578 27.3094C209.722 24.8451 211.515 22.7915 214.388 22.6597C217.147 22.5331 218.509 25.2755 218.623 26.202L209.596 27.6286Z" fill="#E76A86"/>
</g>
<g filter="url(#filter4_d_42_2541)">
<path d="M206.236 36.3125L206.924 33.1856M209.159 38.397L210.706 32.4907M212.942 37.7022L214.489 31.1011M217.24 33.1856L217.756 30.4062M206.924 38.7444L207.612 40.3078C210.305 40.3078 216.243 39.7867 218.443 37.7022V35.4439" stroke="white" stroke-width="2" stroke-linecap="round" stroke-linejoin="round"/>
</g>
<path d="M218.717 23.5629L220.264 22.6943M216.653 21.3047L217.513 20.2624M209.776 17.3093L209.948 15.3984M206.853 17.3093L206.338 15.5721M203.931 18.8727L202.211 17.3093M201.18 21.3047H202.899M200.836 24.9527L202.383 24.2578" stroke="#F5A7A8" stroke-linecap="round" stroke-linejoin="round"/>
<g filter="url(#filter5_f_42_2541)">
<path d="M210.537 44.7715C219.821 44.7715 227.237 36.9335 227.237 27.4024C227.237 17.8712 219.821 10.0332 210.537 10.0332C201.254 10.0332 193.838 17.8712 193.838 27.4024C193.838 36.9335 201.254 44.7715 210.537 44.7715Z" stroke="#D67F92" stroke-width="3"/>
</g>
<g filter="url(#filter6_b_42_2541)">
<path d="M210.537 45.7938C220.357 45.7938 228.207 37.4964 228.207 27.4008C228.207 17.3052 220.357 9.00781 210.537 9.00781C200.717 9.00781 192.867 17.3052 192.867 27.4008C192.867 37.4964 200.717 45.7938 210.537 45.7938Z" stroke="white" stroke-width="3"/>
</g>
<g filter="url(#filter7_b_42_2541)">
<path d="M210.538 47.5C221.086 47.5 229.501 38.5005 229.501 27.5713C229.501 16.642 221.086 7.64258 210.538 7.64258C199.989 7.64258 191.574 16.642 191.574 27.5713C191.574 38.5005 199.989 47.5 210.538 47.5Z" stroke="#E76A86" stroke-width="3"/>
</g>
<path d="M213.611 19.7209L214.743 17.332" stroke="#F5A7A8" stroke-linecap="round" stroke-linejoin="round"/>
<g filter="url(#filter8_d_42_2541)">
<path d="M204 32.841C206.981 31.2776 213.904 28.3592 217.755 29.193M202.625 32.841L202.453 31.1038C205.376 29.4246 212.631 26.1704 218.271 26.5873L218.443 28.1508" stroke="#FFFAFB" stroke-width="2" stroke-linecap="round" stroke-linejoin="round"/>
</g>
<g filter="url(#filter9_d_42_2541)">
<path d="M119.42 46.812C117.526 46.812 115.612 46.5413 113.678 46C111.745 45.42 109.889 44.5693 108.11 43.448C106.332 42.288 104.746 40.8767 103.354 39.214C102.001 37.5127 100.918 35.56 100.106 33.356C99.2942 31.1133 98.8882 28.6387 98.8882 25.932C98.8882 23.264 99.2942 20.8667 100.106 18.74C100.918 16.5747 102.001 14.68 103.354 13.056C104.746 11.432 106.312 10.0787 108.052 8.996C109.831 7.91333 111.687 7.10133 113.62 6.56C115.592 5.98 117.545 5.67066 119.478 5.632C121.45 5.632 123.152 5.84466 124.582 6.27C126.013 6.69533 127.173 7.15933 128.062 7.662C128.952 8.126 129.551 8.45466 129.86 8.648C130.479 9.03467 131.059 9.47933 131.6 9.982C132.18 10.446 132.49 11.026 132.528 11.722C132.567 12.186 132.509 12.6113 132.354 12.998C132.2 13.346 131.987 13.7133 131.716 14.1C131.252 14.7573 130.788 15.2407 130.324 15.55C129.86 15.8593 129.396 16.014 128.932 16.014C128.507 16.014 128.101 15.898 127.714 15.666C127.366 15.434 126.922 15.144 126.38 14.796C126.148 14.6413 125.723 14.4093 125.104 14.1C124.524 13.752 123.732 13.4427 122.726 13.172C121.76 12.9013 120.58 12.766 119.188 12.766C117.526 12.766 115.902 13.056 114.316 13.636C112.731 14.216 111.3 15.086 110.024 16.246C108.787 17.3673 107.801 18.7787 107.066 20.48C106.332 22.1427 105.964 24.0567 105.964 26.222C105.964 28.3873 106.332 30.3207 107.066 32.022C107.801 33.6847 108.787 35.096 110.024 36.256C111.3 37.3773 112.731 38.228 114.316 38.808C115.902 39.388 117.526 39.678 119.188 39.678C120.503 39.678 121.624 39.562 122.552 39.33C123.519 39.0593 124.331 38.75 124.988 38.402C125.684 38.0153 126.206 37.7253 126.554 37.532C126.98 37.2613 127.386 37.01 127.772 36.778C128.159 36.546 128.565 36.43 128.99 36.43C129.454 36.43 129.899 36.5847 130.324 36.894C130.788 37.2033 131.233 37.706 131.658 38.402C131.929 38.8273 132.142 39.2333 132.296 39.62C132.451 40.0067 132.509 40.4127 132.47 40.838C132.432 41.534 132.122 42.1333 131.542 42.636C131.001 43.1 130.421 43.506 129.802 43.854C129.493 44.0473 128.894 44.3953 128.004 44.898C127.154 45.362 126.013 45.7873 124.582 46.174C123.152 46.5993 121.431 46.812 119.42 46.812ZM163.632 47.044C160.848 47.044 158.238 46.522 155.802 45.478C153.405 44.3953 151.278 42.926 149.422 41.07C147.566 39.1753 146.116 37.01 145.072 34.574C144.028 32.0993 143.506 29.4507 143.506 26.628C143.506 23.728 144.009 21.0213 145.014 18.508C146.058 15.956 147.469 13.7327 149.248 11.838C151.065 9.90466 153.153 8.39666 155.512 7.314C157.871 6.23133 160.403 5.69 163.11 5.69C165.933 5.69 168.543 6.23133 170.94 7.314C173.376 8.358 175.503 9.82733 177.32 11.722C179.137 13.6167 180.568 15.8207 181.612 18.334C182.656 20.8087 183.178 23.496 183.178 26.396C183.178 29.2187 182.675 31.8867 181.67 34.4C180.665 36.8747 179.253 39.0787 177.436 41.012C175.619 42.9067 173.531 44.3953 171.172 45.478C168.852 46.522 166.339 47.044 163.632 47.044ZM163.342 39.968C165.121 39.968 166.783 39.62 168.33 38.924C169.877 38.228 171.23 37.2613 172.39 36.024C173.589 34.7867 174.517 33.356 175.174 31.732C175.831 30.0693 176.16 28.2907 176.16 26.396C176.16 24.5013 175.812 22.742 175.116 21.118C174.459 19.4553 173.531 18.0053 172.332 16.768C171.172 15.492 169.819 14.506 168.272 13.81C166.764 13.114 165.121 12.766 163.342 12.766C161.602 12.766 159.959 13.114 158.412 13.81C156.865 14.506 155.493 15.492 154.294 16.768C153.134 18.0053 152.225 19.4553 151.568 21.118C150.911 22.7807 150.582 24.54 150.582 26.396C150.582 28.252 150.911 30.0113 151.568 31.674C152.264 33.3367 153.192 34.7867 154.352 36.024C155.512 37.2613 156.846 38.228 158.354 38.924C159.901 39.62 161.563 39.968 163.342 39.968ZM242.897 46.58C241.775 46.58 240.963 46.406 240.461 46.058C239.958 45.7487 239.629 45.3233 239.475 44.782C239.359 44.2407 239.301 43.6607 239.301 43.042V9.576C239.301 8.91866 239.359 8.31933 239.475 7.778C239.629 7.23666 239.939 6.81133 240.403 6.502C240.905 6.19267 241.717 6.038 242.839 6.038C243.921 6.038 244.695 6.19267 245.159 6.502C245.661 6.81133 245.971 7.23666 246.087 7.778C246.241 8.31933 246.319 8.91866 246.319 9.576V40.316L264.009 40.316C264.589 40.316 265.111 40.374 265.575 40.49C266.039 40.5673 266.406 40.838 266.677 41.302C266.947 41.7273 267.083 42.4233 267.083 43.39C267.083 44.3567 266.947 45.072 266.677 45.536C266.406 45.9613 266.039 46.232 265.575 46.348C265.111 46.5027 264.589 46.58 264.009 46.58L242.897 46.58Z" fill="#E76A86"/>
</g>
<path d="M116.135 73.336C115.239 73.336 114.361 73.1867 113.503 72.888C112.663 72.5707 111.897 72.1133 111.207 71.516C110.535 70.9187 109.993 70.1907 109.583 69.332C109.191 68.4547 108.995 67.4653 108.995 66.364C108.995 65.2627 109.191 64.2827 109.583 63.424C109.993 62.5653 110.535 61.8373 111.207 61.24C111.879 60.6427 112.635 60.1853 113.475 59.868C114.315 59.5507 115.183 59.392 116.079 59.392C116.732 59.392 117.348 59.4853 117.927 59.672C118.524 59.8587 119.037 60.0827 119.467 60.344C119.896 60.6053 120.204 60.8667 120.391 61.128C120.633 61.352 120.839 61.5667 121.007 61.772C121.175 61.9773 121.231 62.2293 121.175 62.528C121.119 62.7147 121.035 62.892 120.923 63.06C120.811 63.2093 120.671 63.368 120.503 63.536C120.055 64.04 119.616 64.2267 119.187 64.096C118.944 63.9653 118.701 63.8253 118.459 63.676C118.216 63.5267 117.964 63.3867 117.703 63.256C117.46 63.1067 117.208 62.9853 116.947 62.892C116.685 62.7987 116.396 62.752 116.079 62.752C115.369 62.752 114.735 62.9107 114.175 63.228C113.633 63.5267 113.204 63.9467 112.887 64.488C112.588 65.0293 112.439 65.6547 112.439 66.364C112.439 67.0733 112.588 67.708 112.887 68.268C113.204 68.8093 113.633 69.2387 114.175 69.556C114.716 69.8547 115.332 70.004 116.023 70.004C116.359 70.004 116.676 69.9667 116.975 69.892C117.292 69.7987 117.572 69.6867 117.815 69.556C118.057 69.4067 118.253 69.2573 118.403 69.108C118.608 68.9773 118.795 68.856 118.963 68.744C119.131 68.632 119.308 68.576 119.495 68.576C119.719 68.576 119.933 68.66 120.139 68.828C120.363 68.9773 120.605 69.22 120.867 69.556C121.109 69.836 121.24 70.1067 121.259 70.368C121.296 70.6293 121.24 70.8813 121.091 71.124C120.96 71.3667 120.736 71.5907 120.419 71.796C120.195 72.02 119.859 72.2533 119.411 72.496C118.981 72.72 118.477 72.916 117.899 73.084C117.339 73.252 116.751 73.336 116.135 73.336ZM131.054 73.252C130.195 73.252 129.402 73.1027 128.674 72.804C127.965 72.4867 127.339 72.0387 126.798 71.46C126.257 70.8813 125.837 70.1907 125.538 69.388C125.239 68.5853 125.09 67.6987 125.09 66.728V61.156C125.09 60.8387 125.118 60.5587 125.174 60.316C125.23 60.0547 125.379 59.8493 125.622 59.7C125.865 59.5507 126.238 59.476 126.742 59.476C127.283 59.476 127.666 59.5507 127.89 59.7C128.133 59.8493 128.282 60.0547 128.338 60.316C128.394 60.5773 128.422 60.8667 128.422 61.184V66.728C128.422 67.4 128.534 67.9787 128.758 68.464C129.001 68.9493 129.346 69.332 129.794 69.612C130.242 69.8733 130.793 70.004 131.446 70.004C132.118 70.004 132.687 69.8733 133.154 69.612C133.639 69.332 134.013 68.9493 134.274 68.464C134.535 67.96 134.666 67.3813 134.666 66.728V61.128C134.666 60.8107 134.694 60.5307 134.75 60.288C134.806 60.0267 134.955 59.8307 135.198 59.7C135.441 59.5507 135.823 59.476 136.346 59.476C136.869 59.476 137.242 59.5507 137.466 59.7C137.69 59.8493 137.83 60.0547 137.886 60.316C137.961 60.5773 137.998 60.8573 137.998 61.156V71.656C137.998 71.936 137.961 72.1973 137.886 72.44C137.83 72.6827 137.681 72.8787 137.438 73.028C137.214 73.1773 136.841 73.252 136.318 73.252C135.945 73.252 135.646 73.2053 135.422 73.112C135.217 73.0373 135.058 72.9347 134.946 72.804C134.853 72.6547 134.787 72.5053 134.75 72.356C134.731 72.2067 134.722 72.0573 134.722 71.908L134.946 71.152C134.834 71.32 134.666 71.5253 134.442 71.768C134.218 71.992 133.938 72.2253 133.602 72.468C133.285 72.692 132.911 72.8787 132.482 73.028C132.053 73.1773 131.577 73.252 131.054 73.252ZM147.26 73.28C146.569 73.28 145.953 73.2333 145.412 73.14C144.889 73.0467 144.432 72.888 144.04 72.664C143.667 72.44 143.359 72.1413 143.116 71.768C142.873 71.376 142.687 70.9 142.556 70.34C142.444 69.78 142.388 69.108 142.388 68.324V54.828C142.388 54.5107 142.416 54.2307 142.472 53.988C142.547 53.7267 142.696 53.5213 142.92 53.372C143.163 53.204 143.545 53.12 144.068 53.12C144.591 53.12 144.964 53.1947 145.188 53.344C145.431 53.4933 145.58 53.6987 145.636 53.96C145.711 54.2027 145.748 54.4827 145.748 54.8V68.184C145.748 68.5387 145.767 68.8373 145.804 69.08C145.86 69.304 145.944 69.4907 146.056 69.64C146.187 69.7707 146.345 69.864 146.532 69.92C146.737 69.976 146.98 70.004 147.26 70.004C147.503 70.004 147.717 70.032 147.904 70.088C148.109 70.144 148.268 70.284 148.38 70.508C148.511 70.732 148.576 71.096 148.576 71.6C148.576 72.1227 148.511 72.5053 148.38 72.748C148.268 72.9907 148.109 73.14 147.904 73.196C147.699 73.252 147.484 73.28 147.26 73.28ZM157.955 73.28C157.041 73.28 156.257 73.1867 155.603 73C154.95 72.8133 154.418 72.524 154.007 72.132C153.597 71.74 153.289 71.236 153.083 70.62C152.897 69.9853 152.803 69.2387 152.803 68.38V56.508C152.803 56.172 152.831 55.8827 152.887 55.64C152.962 55.3973 153.111 55.2107 153.335 55.08C153.578 54.9307 153.951 54.856 154.455 54.856C154.978 54.856 155.351 54.9307 155.575 55.08C155.818 55.2293 155.967 55.4347 156.023 55.696C156.098 55.9387 156.135 56.2093 156.135 56.508V68.268C156.135 68.66 156.163 68.9773 156.219 69.22C156.294 69.4627 156.397 69.6493 156.527 69.78C156.677 69.892 156.863 69.976 157.087 70.032C157.33 70.0693 157.619 70.088 157.955 70.088C158.31 70.088 158.609 70.116 158.851 70.172C159.113 70.228 159.309 70.368 159.439 70.592C159.57 70.7973 159.635 71.1427 159.635 71.628C159.635 72.1507 159.551 72.5333 159.383 72.776C159.234 73 159.029 73.14 158.767 73.196C158.525 73.252 158.254 73.28 157.955 73.28ZM151.655 59.756L154.539 59.784L158.403 59.672C158.721 59.672 159.001 59.7093 159.243 59.784C159.505 59.84 159.71 59.9893 159.859 60.232C160.009 60.456 160.083 60.8293 160.083 61.352C160.083 61.8373 160.009 62.2013 159.859 62.444C159.71 62.6867 159.514 62.8453 159.271 62.92C159.029 62.976 158.749 63.004 158.431 63.004L154.679 62.948L151.571 62.976C151.105 62.9573 150.778 62.8267 150.591 62.584C150.423 62.3227 150.339 61.9027 150.339 61.324C150.339 60.7827 150.442 60.3907 150.647 60.148C150.871 59.8867 151.207 59.756 151.655 59.756ZM169.563 73.252C168.704 73.252 167.911 73.1027 167.183 72.804C166.474 72.4867 165.848 72.0387 165.307 71.46C164.766 70.8813 164.346 70.1907 164.047 69.388C163.748 68.5853 163.599 67.6987 163.599 66.728V61.156C163.599 60.8387 163.627 60.5587 163.683 60.316C163.739 60.0547 163.888 59.8493 164.131 59.7C164.374 59.5507 164.747 59.476 165.251 59.476C165.792 59.476 166.175 59.5507 166.399 59.7C166.642 59.8493 166.791 60.0547 166.847 60.316C166.903 60.5773 166.931 60.8667 166.931 61.184V66.728C166.931 67.4 167.043 67.9787 167.267 68.464C167.51 68.9493 167.855 69.332 168.303 69.612C168.751 69.8733 169.302 70.004 169.955 70.004C170.627 70.004 171.196 69.8733 171.663 69.612C172.148 69.332 172.522 68.9493 172.783 68.464C173.044 67.96 173.175 67.3813 173.175 66.728V61.128C173.175 60.8107 173.203 60.5307 173.259 60.288C173.315 60.0267 173.464 59.8307 173.707 59.7C173.95 59.5507 174.332 59.476 174.855 59.476C175.378 59.476 175.751 59.5507 175.975 59.7C176.199 59.8493 176.339 60.0547 176.395 60.316C176.47 60.5773 176.507 60.8573 176.507 61.156V71.656C176.507 71.936 176.47 72.1973 176.395 72.44C176.339 72.6827 176.19 72.8787 175.947 73.028C175.723 73.1773 175.35 73.252 174.827 73.252C174.454 73.252 174.155 73.2053 173.931 73.112C173.726 73.0373 173.567 72.9347 173.455 72.804C173.362 72.6547 173.296 72.5053 173.259 72.356C173.24 72.2067 173.231 72.0573 173.231 71.908L173.455 71.152C173.343 71.32 173.175 71.5253 172.951 71.768C172.727 71.992 172.447 72.2253 172.111 72.468C171.794 72.692 171.42 72.8787 170.991 73.028C170.562 73.1773 170.086 73.252 169.563 73.252ZM182.605 73.28C182.101 73.28 181.727 73.196 181.485 73.028C181.261 72.8787 181.121 72.6733 181.065 72.412C181.009 72.1507 180.981 71.8613 180.981 71.544V61.156C180.981 60.82 181.009 60.5307 181.065 60.288C181.121 60.0267 181.261 59.8307 181.485 59.7C181.727 59.5507 182.11 59.476 182.633 59.476C183.137 59.476 183.501 59.5413 183.725 59.672C183.967 59.8027 184.117 59.9707 184.173 60.176C184.247 60.3627 184.285 60.5493 184.285 60.736L184.061 61.24C184.154 61.0907 184.285 60.9133 184.453 60.708C184.621 60.484 184.845 60.2693 185.125 60.064C185.405 59.84 185.741 59.6627 186.133 59.532C186.525 59.3827 186.991 59.308 187.533 59.308C187.757 59.308 187.99 59.336 188.233 59.392C188.494 59.4293 188.746 59.4947 188.989 59.588C189.25 59.6627 189.483 59.7653 189.689 59.896C189.894 60.0267 190.053 60.1853 190.165 60.372C190.277 60.54 190.333 60.736 190.333 60.96C190.333 61.5573 190.183 62.0613 189.885 62.472C189.586 62.8827 189.231 63.088 188.821 63.088C188.541 63.088 188.335 63.06 188.205 63.004C188.074 62.948 187.962 62.8827 187.869 62.808C187.794 62.7333 187.673 62.668 187.505 62.612C187.355 62.556 187.113 62.528 186.777 62.528C186.497 62.528 186.207 62.5747 185.909 62.668C185.629 62.7613 185.367 62.9013 185.125 63.088C184.882 63.2747 184.686 63.5173 184.537 63.816C184.387 64.096 184.313 64.4227 184.313 64.796V71.6C184.313 71.9173 184.285 72.2067 184.229 72.468C184.173 72.7107 184.023 72.9067 183.781 73.056C183.538 73.2053 183.146 73.28 182.605 73.28ZM200.07 73.448C198.857 73.448 197.793 73.252 196.878 72.86C195.982 72.468 195.226 71.936 194.61 71.264C194.013 70.5733 193.556 69.808 193.238 68.968C192.94 68.1093 192.79 67.2227 192.79 66.308C192.79 64.964 193.098 63.7693 193.714 62.724C194.33 61.6787 195.18 60.8573 196.262 60.26C197.364 59.6627 198.624 59.364 200.042 59.364C201.05 59.364 201.937 59.5227 202.702 59.84C203.468 60.1573 204.102 60.5773 204.606 61.1C205.129 61.604 205.521 62.164 205.782 62.78C206.062 63.396 206.202 63.9933 206.202 64.572C206.202 65.5613 205.96 66.28 205.474 66.728C205.008 67.176 204.42 67.4 203.71 67.4H196.318C196.337 68.0347 196.533 68.5853 196.906 69.052C197.298 69.5187 197.784 69.8827 198.362 70.144C198.96 70.3867 199.566 70.508 200.182 70.508C200.649 70.508 201.06 70.48 201.414 70.424C201.788 70.368 202.105 70.3027 202.366 70.228C202.628 70.1347 202.852 70.0413 203.038 69.948C203.244 69.8547 203.43 69.7707 203.598 69.696C203.766 69.6213 203.925 69.5747 204.074 69.556C204.28 69.5373 204.485 69.584 204.69 69.696C204.896 69.808 205.064 70.004 205.194 70.284C205.306 70.4707 205.381 70.648 205.418 70.816C205.474 70.9653 205.502 71.1147 205.502 71.264C205.502 71.6373 205.278 71.992 204.83 72.328C204.382 72.6453 203.748 72.9067 202.926 73.112C202.124 73.336 201.172 73.448 200.07 73.448ZM196.318 65.412H202.058C202.376 65.412 202.618 65.3653 202.786 65.272C202.954 65.16 203.038 64.936 203.038 64.6C203.038 64.1707 202.908 63.788 202.646 63.452C202.385 63.0973 202.03 62.8267 201.582 62.64C201.134 62.4347 200.612 62.332 200.014 62.332C199.324 62.332 198.698 62.472 198.138 62.752C197.578 63.0133 197.13 63.3773 196.794 63.844C196.477 64.3107 196.318 64.8333 196.318 65.412ZM224.895 73.336C223.999 73.336 223.122 73.1867 222.263 72.888C221.423 72.5707 220.658 72.1133 219.967 71.516C219.295 70.9187 218.754 70.1907 218.343 69.332C217.951 68.4547 217.755 67.4653 217.755 66.364C217.755 65.2627 217.951 64.2827 218.343 63.424C218.754 62.5653 219.295 61.8373 219.967 61.24C220.639 60.6427 221.395 60.1853 222.235 59.868C223.075 59.5507 223.943 59.392 224.839 59.392C225.492 59.392 226.108 59.4853 226.687 59.672C227.284 59.8587 227.798 60.0827 228.227 60.344C228.656 60.6053 228.964 60.8667 229.151 61.128C229.394 61.352 229.599 61.5667 229.767 61.772C229.935 61.9773 229.991 62.2293 229.935 62.528C229.879 62.7147 229.795 62.892 229.683 63.06C229.571 63.2093 229.431 63.368 229.263 63.536C228.815 64.04 228.376 64.2267 227.947 64.096C227.704 63.9653 227.462 63.8253 227.219 63.676C226.976 63.5267 226.724 63.3867 226.463 63.256C226.22 63.1067 225.968 62.9853 225.707 62.892C225.446 62.7987 225.156 62.752 224.839 62.752C224.13 62.752 223.495 62.9107 222.935 63.228C222.394 63.5267 221.964 63.9467 221.647 64.488C221.348 65.0293 221.199 65.6547 221.199 66.364C221.199 67.0733 221.348 67.708 221.647 68.268C221.964 68.8093 222.394 69.2387 222.935 69.556C223.476 69.8547 224.092 70.004 224.783 70.004C225.119 70.004 225.436 69.9667 225.735 69.892C226.052 69.7987 226.332 69.6867 226.575 69.556C226.818 69.4067 227.014 69.2573 227.163 69.108C227.368 68.9773 227.555 68.856 227.723 68.744C227.891 68.632 228.068 68.576 228.255 68.576C228.479 68.576 228.694 68.66 228.899 68.828C229.123 68.9773 229.366 69.22 229.627 69.556C229.87 69.836 230 70.1067 230.019 70.368C230.056 70.6293 230 70.8813 229.851 71.124C229.72 71.3667 229.496 71.5907 229.179 71.796C228.955 72.02 228.619 72.2533 228.171 72.496C227.742 72.72 227.238 72.916 226.659 73.084C226.099 73.252 225.511 73.336 224.895 73.336ZM240.542 73.448C239.646 73.448 238.769 73.28 237.91 72.944C237.07 72.5893 236.305 72.0947 235.614 71.46C234.942 70.8253 234.401 70.0787 233.99 69.22C233.598 68.3613 233.402 67.4187 233.402 66.392C233.402 65.4027 233.589 64.4787 233.962 63.62C234.336 62.7613 234.849 62.0053 235.502 61.352C236.156 60.6987 236.902 60.1947 237.742 59.84C238.601 59.4667 239.516 59.28 240.486 59.28C241.793 59.28 242.978 59.5973 244.042 60.232C245.106 60.848 245.956 61.688 246.59 62.752C247.225 63.816 247.542 65.02 247.542 66.364C247.542 67.428 247.346 68.3987 246.954 69.276C246.562 70.1347 246.03 70.8813 245.358 71.516C244.686 72.132 243.93 72.608 243.09 72.944C242.269 73.28 241.42 73.448 240.542 73.448ZM240.486 70.144C241.102 70.144 241.69 69.9947 242.25 69.696C242.829 69.3787 243.296 68.9307 243.65 68.352C244.024 67.7733 244.21 67.092 244.21 66.308C244.21 65.58 244.042 64.936 243.706 64.376C243.389 63.816 242.95 63.3773 242.39 63.06C241.83 62.7427 241.186 62.584 240.458 62.584C239.768 62.584 239.142 62.752 238.582 63.088C238.022 63.4053 237.574 63.8533 237.238 64.432C236.921 64.992 236.762 65.6267 236.762 66.336C236.762 67.12 236.94 67.8013 237.294 68.38C237.649 68.94 238.106 69.3787 238.666 69.696C239.245 69.9947 239.852 70.144 240.486 70.144ZM252.963 73.28C252.272 73.28 251.787 73.1493 251.507 72.888C251.227 72.608 251.087 72.1227 251.087 71.432C251.087 70.9467 251.143 70.5733 251.255 70.312C251.386 70.032 251.591 69.8267 251.871 69.696C252.151 69.5653 252.524 69.5 252.991 69.5C253.682 69.5 254.167 69.64 254.447 69.92C254.727 70.2 254.867 70.6947 254.867 71.404C254.867 71.8707 254.802 72.244 254.671 72.524C254.559 72.804 254.363 73 254.083 73.112C253.822 73.224 253.448 73.28 252.963 73.28Z" fill="#E76A86"/>
<path d="M69.179 50.8827C66.6223 47.2641 63.1238 44.2095 57.6324 42.2176C44.6581 37.5109 27.3098 42.7871 20.7754 50.5671" stroke="#F89EA0" stroke-width="5" stroke-miterlimit="1.5" stroke-linecap="round" stroke-linejoin="round"/>
<path d="M80.1955 47.0764C76.846 40.1804 70.6598 33.0466 60.168 29.7427C39.5604 23.2531 16.0386 35.0275 11.0273 47.6323" stroke="#F89EA0" stroke-width="5" stroke-miterlimit="1.5" stroke-linecap="round" stroke-linejoin="round"/>
<path d="M90 38.8465C85.1908 27.6751 76.033 18.8214 58.011 15.6957C52.4548 14.7322 44.0355 14.816 38.5653 15.6608C20.3538 18.4733 5.14679 28.3997 3 40.6682" stroke="#F89EA0" stroke-width="5" stroke-miterlimit="1.5" stroke-linecap="round" stroke-linejoin="round"/>
<defs>
<filter id="filter0_f_42_2541" x="197.922" y="15.1777" width="24.8047" height="19.9609" filterUnits="userSpaceOnUse" color-interpolation-filters="sRGB">
<feFlood flood-opacity="0" result="BackgroundImageFix"/>
<feBlend mode="normal" in="SourceGraphic" in2="BackgroundImageFix" result="shape"/>
<feGaussianBlur stdDeviation="1.5" result="effect1_foregroundBlur_42_2541"/>
</filter>
<filter id="filter1_f_42_2541" x="195.453" y="19.377" width="30.332" height="20.8262" filterUnits="userSpaceOnUse" color-interpolation-filters="sRGB">
<feFlood flood-opacity="0" result="BackgroundImageFix"/>
<feBlend mode="normal" in="SourceGraphic" in2="BackgroundImageFix" result="shape"/>
<feGaussianBlur stdDeviation="3.5" result="effect1_foregroundBlur_42_2541"/>
</filter>
<filter id="filter2_f_42_2541" x="197.555" y="19.5508" width="27.9062" height="27.6504" filterUnits="userSpaceOnUse" color-interpolation-filters="sRGB">
<feFlood flood-opacity="0" result="BackgroundImageFix"/>
<feBlend mode="normal" in="SourceGraphic" in2="BackgroundImageFix" result="shape"/>
<feGaussianBlur stdDeviation="3.5" result="effect1_foregroundBlur_42_2541"/>
</filter>
<filter id="filter3_i_42_2541" x="202.154" y="19.2598" width="17.4688" height="12.7207" filterUnits="userSpaceOnUse" color-interpolation-filters="sRGB">
<feFlood flood-opacity="0" result="BackgroundImageFix"/>
<feBlend mode="normal" in="SourceGraphic" in2="BackgroundImageFix" result="shape"/>
<feColorMatrix in="SourceAlpha" type="matrix" values="0 0 0 0 0 0 0 0 0 0 0 0 0 0 0 0 0 0 127 0" result="hardAlpha"/>
<feOffset dx="1" dy="1"/>
<feGaussianBlur stdDeviation="0.5"/>
<feComposite in2="hardAlpha" operator="arithmetic" k2="-1" k3="1"/>
<feColorMatrix type="matrix" values="0 0 0 0 1 0 0 0 0 1 0 0 0 0 1 0 0 0 1 0"/>
<feBlend mode="normal" in2="shape" result="effect1_innerShadow_42_2541"/>
</filter>
<filter id="filter4_d_42_2541" x="204.236" y="29.4062" width="16.207" height="14.9023" filterUnits="userSpaceOnUse" color-interpolation-filters="sRGB">
<feFlood flood-opacity="0" result="BackgroundImageFix"/>
<feColorMatrix in="SourceAlpha" type="matrix" values="0 0 0 0 0 0 0 0 0 0 0 0 0 0 0 0 0 0 127 0" result="hardAlpha"/>
<feOffset dy="2"/>
<feGaussianBlur stdDeviation="0.5"/>
<feComposite in2="hardAlpha" operator="out"/>
<feColorMatrix type="matrix" values="0 0 0 0 0.960784 0 0 0 0 0.654902 0 0 0 0 0.658824 0 0 0 1 0"/>
<feBlend mode="normal" in2="BackgroundImageFix" result="effect1_dropShadow_42_2541"/>
<feBlend mode="normal" in="SourceGraphic" in2="effect1_dropShadow_42_2541" result="shape"/>
</filter>
<filter id="filter5_f_42_2541" x="185.338" y="1.5332" width="50.3984" height="51.7383" filterUnits="userSpaceOnUse" color-interpolation-filters="sRGB">
<feFlood flood-opacity="0" result="BackgroundImageFix"/>
<feBlend mode="normal" in="SourceGraphic" in2="BackgroundImageFix" result="shape"/>
<feGaussianBlur stdDeviation="3.5" result="effect1_foregroundBlur_42_2541"/>
</filter>
<filter id="filter6_b_42_2541" x="187.367" y="3.50781" width="46.3398" height="47.7852" filterUnits="userSpaceOnUse" color-interpolation-filters="sRGB">
<feFlood flood-opacity="0" result="BackgroundImageFix"/>
<feGaussianBlur in="BackgroundImageFix" stdDeviation="2"/>
<feComposite in2="SourceAlpha" operator="in" result="effect1_backgroundBlur_42_2541"/>
<feBlend mode="normal" in="SourceGraphic" in2="effect1_backgroundBlur_42_2541" result="shape"/>
</filter>
<filter id="filter7_b_42_2541" x="186.074" y="2.14258" width="48.9258" height="50.8574" filterUnits="userSpaceOnUse" color-interpolation-filters="sRGB">
<feFlood flood-opacity="0" result="BackgroundImageFix"/>
<feGaussianBlur in="BackgroundImageFix" stdDeviation="2"/>
<feComposite in2="SourceAlpha" operator="in" result="effect1_backgroundBlur_42_2541"/>
<feBlend mode="normal" in="SourceGraphic" in2="effect1_backgroundBlur_42_2541" result="shape"/>
</filter>
<filter id="filter8_d_42_2541" x="197.453" y="23.5508" width="25.9902" height="16.291" filterUnits="userSpaceOnUse" color-interpolation-filters="sRGB">
<feFlood flood-opacity="0" result="BackgroundImageFix"/>
<feColorMatrix in="SourceAlpha" type="matrix" values="0 0 0 0 0 0 0 0 0 0 0 0 0 0 0 0 0 0 127 0" result="hardAlpha"/>
<feOffset dy="2"/>
<feGaussianBlur stdDeviation="2"/>
<feComposite in2="hardAlpha" operator="out"/>
<feColorMatrix type="matrix" values="0 0 0 0 0.835294 0 0 0 0 0.47451 0 0 0 0 0.556863 0 0 0 1 0"/>
<feBlend mode="normal" in2="BackgroundImageFix" result="effect1_dropShadow_42_2541"/>
<feBlend mode="normal" in="SourceGraphic" in2="effect1_dropShadow_42_2541" result="shape"/>
</filter>
<filter id="filter9_d_42_2541" x="94.8887" y="5.63281" width="176.193" height="49.4121" filterUnits="userSpaceOnUse" color-interpolation-filters="sRGB">
<feFlood flood-opacity="0" result="BackgroundImageFix"/>
<feColorMatrix in="SourceAlpha" type="matrix" values="0 0 0 0 0 0 0 0 0 0 0 0 0 0 0 0 0 0 127 0" result="hardAlpha"/>
<feOffset dy="4"/>
<feGaussianBlur stdDeviation="2"/>
<feComposite in2="hardAlpha" operator="out"/>
<feColorMatrix type="matrix" values="0 0 0 0 0 0 0 0 0 0 0 0 0 0 0 0 0 0 0.25 0"/>
<feBlend mode="normal" in2="BackgroundImageFix" result="effect1_dropShadow_42_2541"/>
<feBlend mode="normal" in="SourceGraphic" in2="effect1_dropShadow_42_2541" result="shape"/>
</filter>
</defs>
</svg>
