<svg width="267" height="78" viewBox="0 0 267 78" fill="none" xmlns="http://www.w3.org/2000/svg">
<g filter="url(#filter0_d_106_2)">
<path d="M63.53 46.812C61.6354 46.812 59.7214 46.5413 57.788 46C55.8547 45.42 53.9987 44.5693 52.22 43.448C50.4414 42.288 48.856 40.8767 47.464 39.214C46.1107 37.5127 45.028 35.56 44.216 33.356C43.404 31.1133 42.998 28.6387 42.998 25.932C42.998 23.264 43.404 20.8667 44.216 18.74C45.028 16.5747 46.1107 14.68 47.464 13.056C48.856 11.432 50.422 10.0787 52.162 8.996C53.9407 7.91333 55.7967 7.10133 57.73 6.56C59.702 5.98 61.6547 5.67066 63.588 5.632C65.56 5.632 67.2614 5.84466 68.692 6.27C70.1227 6.69533 71.2827 7.15933 72.172 7.662C73.0614 8.126 73.6607 8.45466 73.97 8.648C74.5887 9.03467 75.1687 9.47933 75.71 9.982C76.29 10.446 76.5994 11.026 76.638 11.722C76.6767 12.186 76.6187 12.6113 76.464 12.998C76.3094 13.346 76.0967 13.7133 75.826 14.1C75.362 14.7573 74.898 15.2407 74.434 15.55C73.97 15.8593 73.506 16.014 73.042 16.014C72.6167 16.014 72.2107 15.898 71.824 15.666C71.476 15.434 71.0314 15.144 70.49 14.796C70.258 14.6413 69.8327 14.4093 69.214 14.1C68.634 13.752 67.8414 13.4427 66.836 13.172C65.8694 12.9013 64.69 12.766 63.298 12.766C61.6354 12.766 60.0114 13.056 58.426 13.636C56.8407 14.216 55.41 15.086 54.134 16.246C52.8967 17.3673 51.9107 18.7787 51.176 20.48C50.4414 22.1427 50.074 24.0567 50.074 26.222C50.074 28.3873 50.4414 30.3207 51.176 32.022C51.9107 33.6847 52.8967 35.096 54.134 36.256C55.41 37.3773 56.8407 38.228 58.426 38.808C60.0114 39.388 61.6354 39.678 63.298 39.678C64.6127 39.678 65.734 39.562 66.662 39.33C67.6287 39.0593 68.4407 38.75 69.098 38.402C69.794 38.0153 70.316 37.7253 70.664 37.532C71.0894 37.2613 71.4954 37.01 71.882 36.778C72.2687 36.546 72.6747 36.43 73.1 36.43C73.564 36.43 74.0087 36.5847 74.434 36.894C74.898 37.2033 75.3427 37.706 75.768 38.402C76.0387 38.8273 76.2514 39.2333 76.406 39.62C76.5607 40.0067 76.6187 40.4127 76.58 40.838C76.5414 41.534 76.232 42.1333 75.652 42.636C75.1107 43.1 74.5307 43.506 73.912 43.854C73.6027 44.0473 73.0034 44.3953 72.114 44.898C71.2634 45.362 70.1227 45.7873 68.692 46.174C67.2614 46.5993 65.5407 46.812 63.53 46.812ZM118.588 46.522C117.505 46.522 116.713 46.3673 116.21 46.058C115.707 45.7487 115.398 45.3233 115.282 44.782C115.166 44.202 115.108 43.6027 115.108 42.984V9.518C115.108 8.89933 115.166 8.31933 115.282 7.778C115.437 7.23666 115.746 6.81133 116.21 6.502C116.713 6.19267 117.525 6.038 118.646 6.038C119.729 6.038 120.502 6.19267 120.966 6.502C121.469 6.81133 121.778 7.23666 121.894 7.778C122.049 8.31933 122.126 8.91866 122.126 9.576V43.042C122.126 43.6607 122.049 44.2407 121.894 44.782C121.778 45.3233 121.469 45.7487 120.966 46.058C120.463 46.3673 119.671 46.522 118.588 46.522ZM93.1839 46.522C92.1012 46.522 91.3085 46.3673 90.8059 46.058C90.3419 45.7487 90.0325 45.3233 89.8779 44.782C89.7619 44.202 89.7039 43.6027 89.7039 42.984V9.518C89.7039 8.89933 89.7619 8.31933 89.8779 7.778C90.0325 7.23666 90.3612 6.81133 90.8639 6.502C91.3665 6.19267 92.1592 6.038 93.2419 6.038C94.3632 6.038 95.1559 6.19267 95.6199 6.502C96.1225 6.81133 96.4319 7.23666 96.5479 7.778C96.6639 8.31933 96.7219 8.91866 96.7219 9.576V43.042C96.7219 43.6607 96.6445 44.2407 96.4899 44.782C96.3739 45.3233 96.0645 45.7487 95.5619 46.058C95.0979 46.3673 94.3052 46.522 93.1839 46.522ZM94.8659 29.064V22.8L116.036 22.8L115.978 29.064L94.8659 29.064ZM139.515 46.58C138.432 46.58 137.639 46.406 137.137 46.058C136.634 45.7487 136.325 45.3233 136.209 44.782C136.093 44.2407 136.035 43.6413 136.035 42.984V9.518C136.035 8.89933 136.093 8.31933 136.209 7.778C136.363 7.23666 136.673 6.81133 137.137 6.502C137.639 6.19267 138.451 6.038 139.573 6.038C140.655 6.038 141.429 6.19267 141.893 6.502C142.395 6.81133 142.705 7.23666 142.821 7.778C142.975 8.31933 143.053 8.91866 143.053 9.576V43.042C143.053 43.6993 142.975 44.2987 142.821 44.84C142.705 45.3427 142.395 45.7487 141.893 46.058C141.39 46.406 140.597 46.58 139.515 46.58ZM160.605 46.58C159.484 46.58 158.672 46.406 158.169 46.058C157.667 45.7487 157.338 45.3233 157.183 44.782C157.067 44.2407 157.009 43.6607 157.009 43.042V9.576C157.009 8.91866 157.067 8.31933 157.183 7.778C157.338 7.23666 157.647 6.81133 158.111 6.502C158.614 6.19267 159.426 6.038 160.547 6.038C161.63 6.038 162.403 6.19267 162.867 6.502C163.37 6.81133 163.679 7.23666 163.795 7.778C163.95 8.31933 164.027 8.91866 164.027 9.576V40.316H181.717C182.297 40.316 182.819 40.374 183.283 40.49C183.747 40.5673 184.115 40.838 184.385 41.302C184.656 41.7273 184.791 42.4233 184.791 43.39C184.791 44.3567 184.656 45.072 184.385 45.536C184.115 45.9613 183.747 46.232 183.283 46.348C182.819 46.5027 182.297 46.58 181.717 46.58H160.605ZM200.714 46.58C199.592 46.58 198.78 46.406 198.278 46.058C197.775 45.7487 197.446 45.3233 197.292 44.782C197.176 44.2407 197.118 43.6607 197.118 43.042V9.576C197.118 8.91866 197.176 8.31933 197.292 7.778C197.446 7.23666 197.756 6.81133 198.22 6.502C198.722 6.19267 199.534 6.038 200.656 6.038C201.738 6.038 202.512 6.19267 202.976 6.502C203.478 6.81133 203.788 7.23666 203.904 7.778C204.058 8.31933 204.136 8.91866 204.136 9.576V40.316H221.826C222.406 40.316 222.928 40.374 223.392 40.49C223.856 40.5673 224.223 40.838 224.494 41.302C224.764 41.7273 224.9 42.4233 224.9 43.39C224.9 44.3567 224.764 45.072 224.494 45.536C224.223 45.9613 223.856 46.232 223.392 46.348C222.928 46.5027 222.406 46.58 221.826 46.58H200.714Z" fill="#E76A86"/>
</g>
<path d="M55.12 77.336C54.224 77.336 53.3467 77.1867 52.488 76.888C51.648 76.5707 50.8827 76.1133 50.192 75.516C49.52 74.9187 48.9787 74.1907 48.568 73.332C48.176 72.4547 47.98 71.4653 47.98 70.364C47.98 69.2627 48.176 68.2827 48.568 67.424C48.9787 66.5653 49.52 65.8373 50.192 65.24C50.864 64.6427 51.62 64.1853 52.46 63.868C53.3 63.5507 54.168 63.392 55.064 63.392C55.7173 63.392 56.3333 63.4853 56.912 63.672C57.5093 63.8587 58.0227 64.0827 58.452 64.344C58.8813 64.6053 59.1893 64.8667 59.376 65.128C59.6187 65.352 59.824 65.5667 59.992 65.772C60.16 65.9773 60.216 66.2293 60.16 66.528C60.104 66.7147 60.02 66.892 59.908 67.06C59.796 67.2093 59.656 67.368 59.488 67.536C59.04 68.04 58.6013 68.2267 58.172 68.096C57.9293 67.9653 57.6867 67.8253 57.444 67.676C57.2013 67.5267 56.9493 67.3867 56.688 67.256C56.4453 67.1067 56.1933 66.9853 55.932 66.892C55.6707 66.7987 55.3813 66.752 55.064 66.752C54.3547 66.752 53.72 66.9107 53.16 67.228C52.6187 67.5267 52.1893 67.9467 51.872 68.488C51.5733 69.0293 51.424 69.6547 51.424 70.364C51.424 71.0733 51.5733 71.708 51.872 72.268C52.1893 72.8093 52.6187 73.2387 53.16 73.556C53.7013 73.8547 54.3173 74.004 55.008 74.004C55.344 74.004 55.6613 73.9667 55.96 73.892C56.2773 73.7987 56.5573 73.6867 56.8 73.556C57.0427 73.4067 57.2387 73.2573 57.388 73.108C57.5933 72.9773 57.78 72.856 57.948 72.744C58.116 72.632 58.2933 72.576 58.48 72.576C58.704 72.576 58.9187 72.66 59.124 72.828C59.348 72.9773 59.5907 73.22 59.852 73.556C60.0947 73.836 60.2253 74.1067 60.244 74.368C60.2813 74.6293 60.2253 74.8813 60.076 75.124C59.9453 75.3667 59.7213 75.5907 59.404 75.796C59.18 76.02 58.844 76.2533 58.396 76.496C57.9667 76.72 57.4627 76.916 56.884 77.084C56.324 77.252 55.736 77.336 55.12 77.336ZM70.7674 77.448C69.8714 77.448 68.9941 77.28 68.1354 76.944C67.2954 76.5893 66.5301 76.0947 65.8394 75.46C65.1674 74.8253 64.6261 74.0787 64.2154 73.22C63.8234 72.3613 63.6274 71.4187 63.6274 70.392C63.6274 69.4027 63.8141 68.4787 64.1874 67.62C64.5607 66.7613 65.0741 66.0053 65.7274 65.352C66.3807 64.6987 67.1274 64.1947 67.9674 63.84C68.8261 63.4667 69.7407 63.28 70.7114 63.28C72.0181 63.28 73.2034 63.5973 74.2674 64.232C75.3314 64.848 76.1807 65.688 76.8154 66.752C77.4501 67.816 77.7674 69.02 77.7674 70.364C77.7674 71.428 77.5714 72.3987 77.1794 73.276C76.7874 74.1347 76.2554 74.8813 75.5834 75.516C74.9114 76.132 74.1554 76.608 73.3154 76.944C72.4941 77.28 71.6447 77.448 70.7674 77.448ZM70.7114 74.144C71.3274 74.144 71.9154 73.9947 72.4754 73.696C73.0541 73.3787 73.5207 72.9307 73.8754 72.352C74.2487 71.7733 74.4354 71.092 74.4354 70.308C74.4354 69.58 74.2674 68.936 73.9314 68.376C73.6141 67.816 73.1754 67.3773 72.6154 67.06C72.0554 66.7427 71.4114 66.584 70.6834 66.584C69.9927 66.584 69.3674 66.752 68.8074 67.088C68.2474 67.4053 67.7994 67.8533 67.4634 68.432C67.1461 68.992 66.9874 69.6267 66.9874 70.336C66.9874 71.12 67.1647 71.8013 67.5194 72.38C67.8741 72.94 68.3314 73.3787 68.8914 73.696C69.4701 73.9947 70.0767 74.144 70.7114 74.144ZM83.3 77.28C82.796 77.28 82.4227 77.196 82.18 77.028C81.956 76.8787 81.816 76.6733 81.76 76.412C81.704 76.1507 81.676 75.8613 81.676 75.544V65.156C81.676 64.82 81.704 64.5307 81.76 64.288C81.816 64.0267 81.956 63.8307 82.18 63.7C82.4227 63.5507 82.8054 63.476 83.328 63.476C83.832 63.476 84.196 63.5413 84.42 63.672C84.6627 63.8027 84.812 63.9707 84.868 64.176C84.9427 64.3627 84.98 64.5493 84.98 64.736L84.756 65.24C84.8494 65.0907 84.98 64.9133 85.148 64.708C85.316 64.484 85.54 64.2693 85.82 64.064C86.1 63.84 86.436 63.6627 86.828 63.532C87.22 63.3827 87.6867 63.308 88.228 63.308C88.452 63.308 88.6854 63.336 88.928 63.392C89.1894 63.4293 89.4414 63.4947 89.684 63.588C89.9454 63.6627 90.1787 63.7653 90.384 63.896C90.5894 64.0267 90.748 64.1853 90.86 64.372C90.972 64.54 91.028 64.736 91.028 64.96C91.028 65.5573 90.8787 66.0613 90.58 66.472C90.2814 66.8827 89.9267 67.088 89.516 67.088C89.236 67.088 89.0307 67.06 88.9 67.004C88.7694 66.948 88.6574 66.8827 88.564 66.808C88.4894 66.7333 88.368 66.668 88.2 66.612C88.0507 66.556 87.808 66.528 87.472 66.528C87.192 66.528 86.9027 66.5747 86.604 66.668C86.324 66.7613 86.0627 66.9013 85.82 67.088C85.5774 67.2747 85.3814 67.5173 85.232 67.816C85.0827 68.096 85.008 68.4227 85.008 68.796V75.6C85.008 75.9173 84.98 76.2067 84.924 76.468C84.868 76.7107 84.7187 76.9067 84.476 77.056C84.2334 77.2053 83.8414 77.28 83.3 77.28ZM96.6011 77.252C96.0971 77.252 95.7238 77.168 95.4811 77C95.2571 76.8507 95.1171 76.6547 95.0611 76.412C95.0051 76.1507 94.9771 75.8613 94.9771 75.544V65.072C94.9771 64.7733 95.0051 64.5027 95.0611 64.26C95.1171 64.0173 95.2665 63.8307 95.5091 63.7C95.7518 63.5507 96.1251 63.476 96.6291 63.476C97.0771 63.476 97.4131 63.532 97.6371 63.644C97.8611 63.756 98.0105 63.896 98.0851 64.064C98.1598 64.232 98.1971 64.4 98.1971 64.568C98.2158 64.736 98.2345 64.8667 98.2531 64.96L98.1411 65.856C98.2531 65.5573 98.4398 65.268 98.7011 64.988C98.9625 64.708 99.2798 64.456 99.6531 64.232C100.026 63.9893 100.428 63.8027 100.857 63.672C101.305 63.5227 101.762 63.448 102.229 63.448C103.106 63.448 103.89 63.6067 104.581 63.924C105.272 64.2413 105.86 64.6893 106.345 65.268C106.849 65.8467 107.232 66.5373 107.493 67.34C107.754 68.124 107.885 69.0107 107.885 70V75.572C107.885 75.8893 107.848 76.1787 107.773 76.44C107.717 76.6827 107.577 76.8787 107.353 77.028C107.129 77.1773 106.746 77.252 106.205 77.252C105.682 77.252 105.3 77.168 105.057 77C104.814 76.8507 104.665 76.6547 104.609 76.412C104.553 76.1507 104.525 75.8613 104.525 75.544V69.972C104.525 69.3 104.404 68.7213 104.161 68.236C103.937 67.7507 103.601 67.3773 103.153 67.116C102.724 66.8547 102.173 66.724 101.501 66.724C100.848 66.724 100.278 66.864 99.7931 67.144C99.3078 67.4053 98.9345 67.7787 98.6731 68.264C98.4118 68.7493 98.2811 69.3187 98.2811 69.972V75.572C98.2811 75.8893 98.2531 76.1787 98.1971 76.44C98.1411 76.6827 97.9918 76.8787 97.7491 77.028C97.5251 77.1773 97.1425 77.252 96.6011 77.252ZM118.961 77.448C117.748 77.448 116.684 77.252 115.769 76.86C114.873 76.468 114.117 75.936 113.501 75.264C112.904 74.5733 112.446 73.808 112.129 72.968C111.83 72.1093 111.681 71.2227 111.681 70.308C111.681 68.964 111.989 67.7693 112.605 66.724C113.221 65.6787 114.07 64.8573 115.153 64.26C116.254 63.6627 117.514 63.364 118.933 63.364C119.941 63.364 120.828 63.5227 121.593 63.84C122.358 64.1573 122.993 64.5773 123.497 65.1C124.02 65.604 124.412 66.164 124.673 66.78C124.953 67.396 125.093 67.9933 125.093 68.572C125.093 69.5613 124.85 70.28 124.365 70.728C123.898 71.176 123.31 71.4 122.601 71.4H115.209C115.228 72.0347 115.424 72.5853 115.797 73.052C116.189 73.5187 116.674 73.8827 117.253 74.144C117.85 74.3867 118.457 74.508 119.073 74.508C119.54 74.508 119.95 74.48 120.305 74.424C120.678 74.368 120.996 74.3027 121.257 74.228C121.518 74.1347 121.742 74.0413 121.929 73.948C122.134 73.8547 122.321 73.7707 122.489 73.696C122.657 73.6213 122.816 73.5747 122.965 73.556C123.17 73.5373 123.376 73.584 123.581 73.696C123.786 73.808 123.954 74.004 124.085 74.284C124.197 74.4707 124.272 74.648 124.309 74.816C124.365 74.9653 124.393 75.1147 124.393 75.264C124.393 75.6373 124.169 75.992 123.721 76.328C123.273 76.6453 122.638 76.9067 121.817 77.112C121.014 77.336 120.062 77.448 118.961 77.448ZM115.209 69.412H120.949C121.266 69.412 121.509 69.3653 121.677 69.272C121.845 69.16 121.929 68.936 121.929 68.6C121.929 68.1707 121.798 67.788 121.537 67.452C121.276 67.0973 120.921 66.8267 120.473 66.64C120.025 66.4347 119.502 66.332 118.905 66.332C118.214 66.332 117.589 66.472 117.029 66.752C116.469 67.0133 116.021 67.3773 115.685 67.844C115.368 68.3107 115.209 68.8333 115.209 69.412ZM130.723 77.28C130.219 77.28 129.846 77.196 129.603 77.028C129.379 76.8787 129.239 76.6733 129.183 76.412C129.127 76.1507 129.099 75.8613 129.099 75.544V65.156C129.099 64.82 129.127 64.5307 129.183 64.288C129.239 64.0267 129.379 63.8307 129.603 63.7C129.846 63.5507 130.228 63.476 130.751 63.476C131.255 63.476 131.619 63.5413 131.843 63.672C132.086 63.8027 132.235 63.9707 132.291 64.176C132.366 64.3627 132.403 64.5493 132.403 64.736L132.179 65.24C132.272 65.0907 132.403 64.9133 132.571 64.708C132.739 64.484 132.963 64.2693 133.243 64.064C133.523 63.84 133.859 63.6627 134.251 63.532C134.643 63.3827 135.11 63.308 135.651 63.308C135.875 63.308 136.108 63.336 136.351 63.392C136.612 63.4293 136.864 63.4947 137.107 63.588C137.368 63.6627 137.602 63.7653 137.807 63.896C138.012 64.0267 138.171 64.1853 138.283 64.372C138.395 64.54 138.451 64.736 138.451 64.96C138.451 65.5573 138.302 66.0613 138.003 66.472C137.704 66.8827 137.35 67.088 136.939 67.088C136.659 67.088 136.454 67.06 136.323 67.004C136.192 66.948 136.08 66.8827 135.987 66.808C135.912 66.7333 135.791 66.668 135.623 66.612C135.474 66.556 135.231 66.528 134.895 66.528C134.615 66.528 134.326 66.5747 134.027 66.668C133.747 66.7613 133.486 66.9013 133.243 67.088C133 67.2747 132.804 67.5173 132.655 67.816C132.506 68.096 132.431 68.4227 132.431 68.796V75.6C132.431 75.9173 132.403 76.2067 132.347 76.468C132.291 76.7107 132.142 76.9067 131.899 77.056C131.656 77.2053 131.264 77.28 130.723 77.28Z" fill="#E76A86"/>
<defs>
<filter id="filter0_d_106_2" x="38.998" y="5.63281" width="189.902" height="49.1797" filterUnits="userSpaceOnUse" color-interpolation-filters="sRGB">
<feFlood flood-opacity="0" result="BackgroundImageFix"/>
<feColorMatrix in="SourceAlpha" type="matrix" values="0 0 0 0 0 0 0 0 0 0 0 0 0 0 0 0 0 0 127 0" result="hardAlpha"/>
<feOffset dy="4"/>
<feGaussianBlur stdDeviation="2"/>
<feComposite in2="hardAlpha" operator="out"/>
<feColorMatrix type="matrix" values="0 0 0 0 0 0 0 0 0 0 0 0 0 0 0 0 0 0 0.25 0"/>
<feBlend mode="normal" in2="BackgroundImageFix" result="effect1_dropShadow_106_2"/>
<feBlend mode="normal" in="SourceGraphic" in2="effect1_dropShadow_106_2" result="shape"/>
</filter>
</defs>
</svg>
