<svg width="140" height="138" viewBox="0 0 140 138" fill="none" xmlns="http://www.w3.org/2000/svg">
<path d="M105 74.6382C101.008 60.7035 97.1203 53.5179 88.5463 45.8474C68.289 27.7228 41.2024 48.0406 31 78" stroke="#3CDFDD" stroke-width="14" stroke-miterlimit="1.5" stroke-linecap="round" stroke-linejoin="round"/>
<path d="M117.467 74.3777C112.745 56.7815 104.025 38.5785 89.2342 30.1482C60.1836 13.5889 27.0249 43.6332 19.9604 75.7962" stroke="#BF1553" stroke-width="16" stroke-miterlimit="1.5" stroke-linecap="round" stroke-linejoin="round"/>
<path d="M129 76.3482C122.335 45.2456 109.643 20.5961 84.6667 11.8936C76.9664 9.21105 63.1891 9.53414 55.6079 11.8861C30.3688 19.7163 12.9752 42.1915 10 76.3482" stroke="#E97C94" stroke-width="20" stroke-miterlimit="1.5" stroke-linecap="round" stroke-linejoin="round"/>
<path d="M21.2763 21.415C21.2763 21.415 21.5913 29.64 21.5913 31.635C21.5913 32.23 21.5913 32.825 21.5563 33.42C21.5563 34.155 21.5563 34.925 21.5563 35.66C21.5563 38.355 21.3813 42.38 21.3813 44.095C21.3813 47.63 21.5563 47.21 23.3063 47.245C24.2163 47.245 25.1263 47.245 26.0363 47.245C42.2413 47.245 41.0513 47.665 41.0513 44.725C41.0513 43.99 40.9813 43.22 40.8763 42.485C40.7713 41.715 40.7013 41.645 38.6363 41.645C37.7613 41.645 28.7663 41.855 28.7663 41.855C28.4863 41.855 28.3113 41.715 28.3113 41.4C28.3113 41.4 28.3113 41.26 28.3113 41.155C28.3113 41.155 28.3113 41.12 28.3113 39.475V38.145C28.3113 33.805 28.2413 26.455 28.2413 26.455C28.2413 25.545 27.6113 25.93 39.6513 25.72C40.8063 25.72 40.9113 25.37 40.9113 23.375C40.9113 22.605 40.8413 21.8 40.7713 21.03C40.6663 20.12 41.3663 20.155 27.9263 20.155C21.2413 20.155 21.2763 20.19 21.2763 21.415ZM43.1513 29.36C43.1513 48.225 43.2213 47.245 44.3763 47.245C45.3913 47.245 48.3313 47.105 49.3463 47.07C50.3613 47.035 50.1513 47.14 50.2563 37.13C50.2563 36.43 50.2563 36.43 50.9213 36.43H51.7263C53.8963 36.43 55.2963 36.43 55.2963 36.43C56.1013 36.43 55.8913 35.625 56.0663 46.055C56.1013 47 56.2763 47.245 57.1513 47.245C58.1663 47.245 61.5263 47.105 61.9813 47.07C62.7513 47.035 62.8913 46.545 62.8913 45.74C62.8913 45.705 62.8563 45.635 62.8563 45.565C62.8563 45.565 62.8913 43.15 62.8913 37.655V33.665C62.8913 32.195 62.8913 30.725 62.8913 29.255C62.8913 19.175 62.8563 20.12 61.2113 20.12C58.5863 20.12 57.7113 20.19 56.8013 20.4C55.6463 20.68 55.8563 20.155 55.8563 30.06C55.8563 30.13 55.8563 30.235 55.8563 30.235C55.8563 30.515 55.7513 30.655 55.4363 30.655H54.5263C52.5313 30.655 50.6413 30.655 50.6413 30.655C50.3963 30.655 50.2563 30.55 50.2563 30.305V30.235C50.2563 19.14 50.1513 20.12 48.6113 20.12C45.1813 20.12 43.2213 20.12 43.2213 21.345V21.38C43.2213 21.38 43.1513 21.485 43.1513 29.36ZM65.2721 45.67C65.2721 45.915 65.2721 46.125 65.2721 46.37C65.2721 47 65.4121 47.455 66.1121 47.455H66.1471C67.0571 47.455 67.9321 47.525 68.8071 47.525C72.5171 47.525 71.8871 47.35 71.9571 41.575C72.0621 36.745 72.1671 31.915 72.1671 27.05C72.1671 19.91 72.7971 20.155 68.2821 20.155C67.0921 20.155 65.4821 20.26 65.4821 20.26C64.5021 20.295 65.2721 45.6 65.2721 45.67ZM74.289 21.065C74.289 21.065 74.569 24.67 74.569 39.02V45.74C74.569 46.335 74.499 46.475 74.499 46.79C74.499 47.175 74.709 47.245 75.304 47.245C76.004 47.245 76.879 47.245 77.649 47.245C78.664 47.245 79.294 47.28 81.604 47.28C94.659 47.28 93.714 47.84 93.714 44.97C93.714 41.085 95.149 41.645 82.234 41.645C82.129 41.645 82.024 41.645 81.884 41.645C81.009 41.645 81.044 41.645 81.044 40.945C81.044 40.945 81.044 41.225 81.044 33.35V31.25C81.079 30.2 81.219 23.935 81.219 22.885C81.219 20.4 81.359 20.295 79.364 20.295C78.279 20.295 77.194 20.4 76.144 20.4C75.549 20.4 74.919 20.365 74.919 20.365C74.429 20.365 74.289 20.54 74.289 21.065ZM95.8563 21.065C95.8563 21.065 96.1363 24.67 96.1363 39.02V45.74C96.1363 46.335 96.0663 46.475 96.0663 46.79C96.0663 47.175 96.2763 47.245 96.8713 47.245C97.5713 47.245 98.4463 47.245 99.2163 47.245C100.231 47.245 100.861 47.28 103.171 47.28C116.226 47.28 115.281 47.84 115.281 44.97C115.281 41.085 116.716 41.645 103.801 41.645C103.696 41.645 103.591 41.645 103.451 41.645C102.576 41.645 102.611 41.645 102.611 40.945C102.611 40.945 102.611 41.225 102.611 33.35V31.25C102.646 30.2 102.786 23.935 102.786 22.885C102.786 20.4 102.926 20.295 100.931 20.295C99.8463 20.295 98.7613 20.4 97.7113 20.4C97.1163 20.4 96.4863 20.365 96.4863 20.365C95.9963 20.365 95.8563 20.54 95.8563 21.065ZM3.5541 60.415C3.5541 60.415 3.8691 68.64 3.8691 70.635C3.8691 71.23 3.8691 71.825 3.8341 72.42C3.8341 73.155 3.8341 73.925 3.8341 74.66C3.8341 77.355 3.6591 81.38 3.6591 83.095C3.6591 86.63 3.8341 86.21 5.5841 86.245C6.4941 86.245 7.4041 86.245 8.3141 86.245C24.5191 86.245 23.3291 86.665 23.3291 83.725C23.3291 82.99 23.2591 82.22 23.1541 81.485C23.0491 80.715 22.9791 80.645 20.9141 80.645C20.0391 80.645 11.0441 80.855 11.0441 80.855C10.7641 80.855 10.5891 80.715 10.5891 80.4C10.5891 80.4 10.5891 80.26 10.5891 80.155C10.5891 80.155 10.5891 80.12 10.5891 78.475V77.145C10.5891 72.805 10.5191 65.455 10.5191 65.455C10.5191 64.545 9.8891 64.93 21.9291 64.72C23.0841 64.72 23.1891 64.37 23.1891 62.375C23.1891 61.605 23.1191 60.8 23.0491 60.03C22.9441 59.12 23.6441 59.155 10.2041 59.155C3.5191 59.155 3.5541 59.19 3.5541 60.415ZM25.4641 66.925C25.4641 70.845 25.5691 74.8 25.5691 78.72C25.5691 82.885 25.4291 85.475 25.4291 85.475C25.4291 85.93 25.6741 86.175 26.1291 86.175C26.3041 86.175 26.4091 86.14 26.7941 86.14C26.7941 86.14 28.9291 86.28 31.4141 86.28C45.4491 86.28 44.8541 86.595 44.8541 85.265C44.8891 83.48 45.1341 70.005 45.1341 70.005C45.1341 59.75 45.3441 59.33 43.2441 59.33C43.2091 59.33 42.9641 59.33 42.7891 59.33C41.6691 59.33 28.5791 59.015 27.5991 59.015C25.3591 59.015 25.4641 58.385 25.4641 66.925ZM32.5341 79.945C32.5341 63.04 32.1841 64.895 34.5991 64.895C37.8891 64.895 37.7841 64.825 37.7841 65.315C37.7841 65.315 37.7141 66.75 37.7141 69.235C37.7141 70.04 37.7141 70.845 37.7141 71.65C37.7141 72.035 37.7141 72.42 37.7141 72.805C37.7141 74.1 37.7141 75.43 37.7141 76.725C37.7141 80.785 37.8541 80.54 37.1191 80.54C32.1141 80.54 32.5341 80.575 32.5341 79.945ZM61.2357 75.325C65.1907 73.89 67.5707 71.44 67.5707 67.135C67.5707 63.215 64.2807 59.19 57.4557 59.19C57.4557 59.19 57.2457 59.26 48.3907 59.435C47.1307 59.47 47.2357 58.035 47.2357 81.765C47.2357 82.675 47.3057 83.55 47.3057 84.46C47.3057 84.95 47.2707 85.475 47.2707 85.475C47.2707 86 47.4807 86.245 47.9007 86.245C47.9007 86.245 49.0207 86.105 50.6307 86.105C51.4357 86.105 52.2057 86.105 53.0107 86.105C53.8507 86.105 54.3757 86.14 54.3757 85.23C54.3757 85.23 54.3057 84.075 54.3057 82.43C54.3057 81.065 54.3407 79.665 54.3407 78.3C54.3407 77.67 54.3057 77.565 54.3057 77.565C54.3057 77.425 54.3407 77.285 54.4807 77.145C61.8307 87.295 58.6457 86.21 66.7307 86.21C67.1857 86.21 67.4307 86.105 67.4307 85.825C67.4307 85.475 67.6057 85.86 61.2357 75.325ZM55.7057 69.445C55.1457 69.445 54.7607 69.445 54.7607 69.445C54.4107 69.445 54.2357 69.305 54.2357 68.92C54.2357 68.92 54.2357 68.885 54.2357 68.85C54.2357 67.38 54.2007 65.98 54.2007 65.98C54.2007 65.35 54.3757 65.455 58.1907 65.455C58.4357 65.455 58.6457 65.455 58.8907 65.455C59.4857 65.455 60.6057 66.19 60.6057 67.695C60.6057 68.57 60.0807 69.41 59.1007 69.41C59.2057 69.41 55.8107 69.445 55.7057 69.445ZM82.0476 70.25C81.4526 69.83 78.0226 61.955 76.9376 60.065C76.6576 59.61 76.6926 59.155 71.0226 59.155C69.4826 59.155 69.6576 59.435 69.6576 66.96C69.6576 87.295 69.4476 86.14 70.6726 86.14C76.7976 86.14 76.6226 86.21 76.6226 84.915C76.6576 78.615 76.6926 75.115 76.6926 75.115C76.6926 75.045 76.6576 74.94 76.6576 74.87C76.6576 74.765 76.6926 74.66 76.8676 74.555C82.3276 84.775 81.6626 86.105 83.3776 86.105C83.3776 86.105 83.9726 86.105 85.2676 86.105C85.5476 86.105 85.8626 86.105 86.1426 86.105C89.7476 86.105 89.0476 89.22 89.0476 61.78C89.0476 61.255 88.9776 60.765 88.9426 60.24C88.8026 59.225 88.4526 59.295 86.5976 59.295C85.4426 59.295 84.2526 59.365 83.0976 59.505C81.9076 59.645 82.0476 59.82 82.0476 62.69C82.0476 63.25 82.0826 63.81 82.0826 64.37C82.0826 64.37 82.0476 65.385 82.0476 66.715C82.0476 67.87 82.0476 69.025 82.0476 70.25ZM91.225 64.16C91.225 66.365 91.33 70.915 91.365 73.26H91.33V74.03C91.33 74.66 91.26 85.055 91.26 85.51C91.26 86.14 91.4 86.315 91.96 86.315C91.96 86.315 92.835 86.28 93.71 86.28C96.685 86.28 99.66 86.315 102.6 86.315C111.105 86.315 110.615 86.735 110.615 84.215C110.615 83.375 110.545 82.535 110.51 81.66C110.475 80.505 109.6 80.54 108.865 80.54C108.865 80.54 102.285 80.715 98.89 80.715C98.295 80.715 98.295 80.645 98.295 80.015C98.295 74.765 98.19 75.255 99.03 75.255C106.17 75.15 105.855 75.115 105.855 72.525C105.855 69.235 105.785 69.41 100.395 69.41C99.625 69.41 98.75 69.445 98.75 69.445C98.225 69.445 98.295 69.62 98.295 65.49C98.295 65.105 98.435 64.965 98.785 64.965C98.785 64.965 98.96 64.965 99.1 64.965C99.205 64.965 99.275 64.965 99.38 64.965C99.38 64.965 102.53 65.07 104.665 65.07C110.3 65.07 109.985 64.93 110.23 64.09C110.335 63.635 110.335 63.53 110.335 61.395C110.335 59.68 110.405 59.155 109.18 59.155C109.18 59.155 105.155 59.435 93.255 59.435C92.555 59.435 91.925 59.365 91.925 59.365C91.575 59.365 91.365 59.61 91.365 60.03C91.295 61.43 91.225 62.795 91.225 64.16ZM126.724 75.325C130.679 73.89 133.059 71.44 133.059 67.135C133.059 63.215 129.769 59.19 122.944 59.19C122.944 59.19 122.734 59.26 113.879 59.435C112.619 59.47 112.724 58.035 112.724 81.765C112.724 82.675 112.794 83.55 112.794 84.46C112.794 84.95 112.759 85.475 112.759 85.475C112.759 86 112.969 86.245 113.389 86.245C113.389 86.245 114.509 86.105 116.119 86.105C116.924 86.105 117.694 86.105 118.499 86.105C119.339 86.105 119.864 86.14 119.864 85.23C119.864 85.23 119.794 84.075 119.794 82.43C119.794 81.065 119.829 79.665 119.829 78.3C119.829 77.67 119.794 77.565 119.794 77.565C119.794 77.425 119.829 77.285 119.969 77.145C127.319 87.295 124.134 86.21 132.219 86.21C132.674 86.21 132.919 86.105 132.919 85.825C132.919 85.475 133.094 85.86 126.724 75.325ZM121.194 69.445C120.634 69.445 120.249 69.445 120.249 69.445C119.899 69.445 119.724 69.305 119.724 68.92C119.724 68.92 119.724 68.885 119.724 68.85C119.724 67.38 119.689 65.98 119.689 65.98C119.689 65.35 119.864 65.455 123.679 65.455C123.924 65.455 124.134 65.455 124.379 65.455C124.974 65.455 126.094 66.19 126.094 67.695C126.094 68.57 125.569 69.41 124.589 69.41C124.694 69.41 121.299 69.445 121.194 69.445Z" fill="black"/>
<path d="M80.4484 94.7602L74.3456 98.0171C74.2128 98.0881 74.0951 98.1771 73.9943 98.2793L70.1051 97.766C70.0676 97.7452 70.0301 97.7251 69.9902 97.7074L65.3688 95.6416C64.6852 96.7767 63.4649 97.4282 62.2 97.4182L63.6521 98.0676H66.7666V98.068H66.8966V98.0746C66.941 98.0711 66.9857 98.068 67.0308 98.068C67.9772 98.0739 68.7406 98.8536 68.7344 99.8044L68.731 100.338L68.742 100.342L68.7307 100.428L68.6711 111.373L68.656 114.308L68.646 115.989C68.6402 116.886 67.9497 117.62 67.0786 117.695L68.4643 134.512C68.5589 135.655 69.5098 136.52 70.629 136.52C70.6895 136.52 70.7508 136.517 70.8113 136.511C71.4718 136.457 72.0374 136.109 72.3955 135.607C72.5686 135.72 72.7599 135.813 72.968 135.875C73.1748 135.937 73.3829 135.966 73.5883 135.966C74.5255 135.966 75.3903 135.351 75.6717 134.401L78.7907 123.838C78.9283 123.371 78.9077 122.871 78.7312 122.416L75.071 113.012C75.0497 112.956 75.0232 112.903 74.9984 112.85L76.6601 100.085L77.4066 99.6866C77.4658 98.7953 78.2055 98.0846 79.1075 98.0763L79.0972 98.0659H80.4437L82.36 97.0434C81.3977 96.5685 80.7299 95.7241 80.4482 94.7598L80.4484 94.7602ZM72.4517 129.944L71.2324 115.147L74.4095 123.311L72.4517 129.944Z" fill="black"/>
<path d="M76.5999 94.0393C76.5999 96.0277 74.9882 97.6395 73.0001 97.6395C71.0116 97.6395 69.3999 96.0277 69.3999 94.0393C69.3999 92.0512 71.0116 90.4395 73.0001 90.4395C74.9882 90.4395 76.5999 92.0512 76.5999 94.0393Z" fill="black"/>
<path d="M81.8222 137.961C80.3256 137.961 79.1076 136.74 79.1076 135.242L79.1072 118.537C79.0207 118.548 78.9336 118.552 78.8457 118.552C77.5941 118.543 76.5928 117.527 76.6001 116.288L76.6901 99.896C76.6901 99.8581 76.6926 99.8192 76.6957 99.7799C76.7521 98.939 77.2608 98.2303 77.9701 97.8858L77.7562 97.6617L82.4195 97.6511L82.4149 97.6543H86.399C86.433 97.6554 87.548 97.7066 88.2696 97.7066C88.4394 97.7066 88.5521 97.7034 88.6264 97.6999L88.6726 97.6406L88.9446 97.6638C90.1044 97.7624 91.007 98.7531 91.0001 99.9187L90.9101 116.31C90.9017 117.543 89.8952 118.546 88.6656 118.546C88.6075 118.546 88.5497 118.543 88.4923 118.539V135.151C88.4923 136.651 87.2747 137.871 85.7787 137.871C85.0369 137.871 84.3433 137.57 83.8402 137.055C83.3312 137.621 82.5991 137.96 81.8222 137.96L81.8222 137.961ZM80.1106 117.061V135.24C80.1106 136.185 80.878 136.954 81.8215 136.954C82.4786 136.954 83.0854 136.567 83.3672 135.969L83.7957 135.059L84.2645 135.949C84.5628 136.514 85.1422 136.865 85.7776 136.865C86.7208 136.865 87.4875 136.096 87.4875 135.15L87.4882 117.149L88.1842 117.441C88.3361 117.505 88.4958 117.538 88.6579 117.539C89.3441 117.539 89.9011 116.985 89.9049 116.303L89.9949 99.9121C89.9987 99.2981 89.5461 98.7723 88.9499 98.6758C88.7892 98.7084 88.5739 98.7109 88.2689 98.7109C87.5243 98.7109 86.4218 98.66 86.3756 98.6579L78.9336 98.667C78.2841 98.673 77.7422 99.183 77.6988 99.8289L77.6939 99.9019L77.6039 116.294C77.5994 116.98 78.1539 117.542 78.8387 117.547C79.0333 117.547 79.215 117.504 79.3866 117.419L80.1106 117.061Z" fill="black"/>
<path d="M60.2055 137.961C58.7136 137.961 57.5 136.74 57.5 135.241L57.4996 118.531C57.4134 118.542 57.3265 118.546 57.2389 118.546C56.627 118.542 56.0664 118.304 55.6455 117.876C55.2245 117.447 54.9955 116.881 55.0001 116.28L55.0891 99.8844C55.0961 98.8927 55.7387 98.0336 56.6878 97.7452L56.7688 97.7206L56.8532 97.7241C58.3203 97.7845 60.1957 97.6441 60.2115 97.6427L66.8589 97.6406L67.0934 97.6417C67.1189 97.6413 67.1444 97.6417 67.1695 97.6417L67.4913 97.6427V97.6726C67.9528 97.7505 68.3755 97.9708 68.7099 98.3109C69.1302 98.7394 69.3599 99.3061 69.356 99.9065L69.355 100.108L69.4 100.126L69.3518 100.57L69.2667 116.302C69.2586 117.453 68.3595 118.431 67.2184 118.528C67.1091 118.54 66.9776 118.541 66.8561 118.531V135.149C66.8561 136.649 65.6421 137.87 64.1499 137.87C63.4103 137.87 62.7187 137.569 62.2179 137.054C61.7111 137.62 60.9805 137.96 60.2056 137.96L60.2055 137.961ZM58.5003 117.055V135.24C58.5003 136.185 59.2651 136.953 60.2051 136.953C60.8606 136.953 61.4655 136.567 61.7462 135.968L62.1734 135.057L62.6411 135.948C62.9378 136.513 63.5159 136.865 64.1494 136.865C65.0897 136.865 65.8549 136.095 65.8549 135.15L65.8556 117.142L66.5495 117.435C66.701 117.499 66.8598 117.531 67.0214 117.533C67.0609 117.533 67.0933 117.531 67.1254 117.527C67.7635 117.473 68.2609 116.932 68.2647 116.296L68.3517 100.489L68.3506 100.44L68.3541 99.8998C68.3562 99.5679 68.2295 99.2548 67.9967 99.018C67.7639 98.7811 67.4539 98.6492 67.123 98.6471C67.093 98.6471 67.0605 98.6495 67.0281 98.652L66.4895 98.6934V98.6471L62 98.6467L60.2481 98.6471C60.2286 98.6502 58.404 98.7843 56.9038 98.7327C56.4239 98.9117 56.0926 99.3777 56.0891 99.8907L56.0001 116.287C55.9977 116.619 56.1247 116.932 56.3568 117.169C56.5897 117.407 56.8996 117.538 57.2305 117.541C57.4243 117.541 57.6058 117.497 57.7778 117.412L58.5003 117.055Z" fill="black"/>
<path d="M88.8544 95.7305L87.5784 94.7598C87.5612 94.8068 87.5444 94.8543 87.5254 94.9014C87.0551 96.085 86.2125 96.9214 85.24 97.3097L86.6235 98.3629L87.1841 98.7895C87.3641 98.9256 87.5575 99.0124 87.755 99.0534C88.1756 99.1393 88.6101 99.0132 88.9509 98.7066C89.0562 98.6121 89.1532 98.5011 89.2376 98.3724C89.264 98.3314 89.2899 98.2899 89.3141 98.2454C89.7749 97.4008 89.5694 96.2746 88.8544 95.7305Z" fill="black"/>
<path d="M58.5241 94.7598L56.6687 97.9899C56.5861 98.1346 56.5256 98.2876 56.4886 98.4434C56.335 99.0791 56.5506 99.7678 57.0581 100.178C57.1026 100.213 57.1482 100.247 57.1964 100.278C57.7322 100.623 58.3836 100.587 58.8754 100.247C59.0656 100.116 59.2334 99.9399 59.3593 99.7196L60.146 98.3509L60.7599 97.283C60.7065 97.2593 60.6538 97.236 60.6015 97.2099C59.5831 96.7046 58.8627 95.8024 58.5241 94.7598Z" fill="black"/>
<path d="M83.7929 97.64C83.1574 97.64 82.5419 97.502 81.9631 97.2305L81.9029 97.2002C80.8156 96.6687 79.9964 95.6974 79.6545 94.5346C79.3581 93.5219 79.4412 92.4397 79.8888 91.4859C80.5973 89.9752 82.1325 89 83.8008 89C84.4362 89 85.0521 89.138 85.632 89.4095C87.7517 90.405 88.6884 92.8709 87.7652 95.0229L87.7078 95.1538C87.2028 96.2296 86.3049 97.0312 85.1791 97.412C84.7305 97.5633 84.264 97.64 83.7929 97.64ZM83.8004 90.0227C82.527 90.0227 81.3548 90.7678 80.8138 91.9199C80.4729 92.6476 80.409 93.4744 80.6348 94.2466C80.8962 95.1345 81.5213 95.8764 82.3504 96.2812L82.1796 96.7671L82.3968 96.3044C82.8386 96.512 83.3079 96.6169 83.7918 96.6169C84.1516 96.6169 84.5075 96.558 84.8502 96.4425C85.71 96.1521 86.3947 95.5404 86.7795 94.7207L86.8101 94.6515C87.5291 92.9768 86.8141 91.0949 85.1961 90.335C84.755 90.1278 84.2846 90.0226 83.8004 90.0226L83.8004 90.0227Z" fill="black"/>
<path d="M62.196 97.64H62.1632C61.6019 97.6354 61.0548 97.5234 60.5359 97.3061C60.4785 97.2826 60.4215 97.2576 60.3648 97.2309C59.2984 96.7308 58.4996 95.8404 58.1163 94.724C57.7497 93.6567 57.811 92.5071 58.2896 91.4859C58.9982 89.976 60.5342 89 62.2017 89C62.8376 89 63.4539 89.138 64.0337 89.4095C65.0775 89.8992 65.8691 90.7671 66.2608 91.8522C66.6524 92.9373 66.5989 94.1104 66.1085 95.1552C66.0429 95.2954 65.9691 95.432 65.8903 95.5622C65.1136 96.8449 63.6981 97.64 62.196 97.64ZM62.2017 90.0238C60.9282 90.0238 59.756 90.7689 59.215 91.921C58.8498 92.6993 58.8031 93.5772 59.083 94.3919C59.3755 95.2444 59.9849 95.9239 60.7987 96.3056C60.8423 96.3259 60.8858 96.3445 60.9296 96.363C61.3258 96.5286 61.7431 96.6145 62.1711 96.6177L62.196 97.1292V96.6177C63.3429 96.6177 64.4224 96.0106 65.0151 95.034C65.0743 94.9352 65.1317 94.831 65.1824 94.7229C65.5565 93.9246 65.5982 93.0293 65.299 92.2007C64.9998 91.3725 64.396 90.7101 63.599 90.3362C63.1564 90.129 62.6864 90.0238 62.2017 90.0238Z" fill="black"/>
</svg>
