<svg width="444" height="248" viewBox="0 0 444 248" fill="none" xmlns="http://www.w3.org/2000/svg">
<g filter="url(#filter0_d_124_2)">
<path d="M40.5 126.5C36 125.5 33.5 119 30 117C22.811 112.892 15 108.591 15 100.311V5H429V85.5826C429 101.277 411.962 115.814 408 131C405 142.5 399.5 144.5 395 144.5C390.5 144.5 388.5 141 385 129.5C381.524 118.08 370.652 118.987 364.625 119.49L364.5 119.5C358.5 120 350.5 122 346.5 125C342.5 128 338.5 135 336.5 142C334.5 149 338 171 338.5 175C339 179 344 199.5 342.5 207C341 214.5 336.5 219 332.5 221.5C328.5 224 319.5 222 315 216.5C310.5 211 314 191.5 315 188.5C316 185.5 321 159 319.5 146.5C318 134 304 133.5 291 135C278 136.5 273.5 141 270 144.5C266.5 148 265.5 159 266.5 165C267.5 171 269 186 268.5 188.5C268 191 265 197 255 194.5C245 192 247.5 181.5 249 165C250.5 148.5 251.5 145 233.5 141C215.5 137 210 157.5 209 161.5C208 165.5 203 173 196.5 173C190 173 186.5 165 185 159C183.5 153 180 147 177.5 143C175 139 164 135 160 135C156 135 149 134 145.5 135C142 136 142.5 136 136 141C129.5 146 127.5 162.5 127.5 167.5C127.5 172.5 130.5 185 132 188.5C133.5 192 134.5 205 134.5 207C134.5 209 133.5 217 123.5 216.5C113.5 216 114 206 113.5 202C113 198 116 176.5 117.5 171C119 165.5 119 155.5 117.5 143C116 130.5 105.5 132 103 131C102.519 130.808 102.39 130.708 102.373 130.661C102.051 130.737 100.11 130.848 90.5 130C73.5 128.5 74 145 74 149C74 153 77.5 163 78 165C78.5 167 79 173.5 68.5 173C58 172.5 61 160.5 61 155.5C61 150.5 65 137 64.5 130C64 123 58.5 124.5 56 126.5C53.5 128.5 45 127.5 40.5 126.5Z" fill="#986883"/>
</g>
<defs>
<filter id="filter0_d_124_2" x="0" y="0" width="444" height="247.564" filterUnits="userSpaceOnUse" color-interpolation-filters="sRGB">
<feFlood flood-opacity="0" result="BackgroundImageFix"/>
<feColorMatrix in="SourceAlpha" type="matrix" values="0 0 0 0 0 0 0 0 0 0 0 0 0 0 0 0 0 0 127 0" result="hardAlpha"/>
<feOffset dy="10"/>
<feGaussianBlur stdDeviation="7.5"/>
<feColorMatrix type="matrix" values="0 0 0 0 0 0 0 0 0 0 0 0 0 0 0 0 0 0 0.05 0"/>
<feBlend mode="normal" in2="BackgroundImageFix" result="effect1_dropShadow_124_2"/>
<feBlend mode="normal" in="SourceGraphic" in2="effect1_dropShadow_124_2" result="shape"/>
</filter>
</defs>
</svg>
