<svg width="144" height="144" viewBox="0 0 144 144" fill="none" xmlns="http://www.w3.org/2000/svg">
<path d="M108 74.6382C104.008 60.7035 100.12 53.5179 91.5463 45.8474C71.289 27.7228 44.2024 48.0406 34 78" stroke="#3CDFDD" stroke-width="14" stroke-miterlimit="1.5" stroke-linecap="round" stroke-linejoin="round"/>
<path d="M120.467 74.3777C115.745 56.7815 107.025 38.5785 92.2342 30.1482C63.1836 13.5889 30.0249 43.6332 22.9604 75.7962" stroke="#BF1553" stroke-width="16" stroke-miterlimit="1.5" stroke-linecap="round" stroke-linejoin="round"/>
<path d="M132 76.3482C125.335 45.2456 112.643 20.5961 87.6667 11.8936C79.9664 9.21105 66.1891 9.53414 58.6079 11.8861C33.3688 19.7163 15.9752 42.1915 13 76.3482" stroke="#E97C94" stroke-width="20" stroke-miterlimit="1.5" stroke-linecap="round" stroke-linejoin="round"/>
<path d="M9.91191 20.155C0.216914 20.155 0.811914 20.295 0.811914 21.94C0.811914 35.87 0.846914 36.395 2.14191 36.395C2.14191 36.395 3.22691 36.36 4.97691 36.36C6.06191 36.36 7.18191 36.36 8.30191 36.36C10.9269 36.36 12.6769 36.22 12.6769 36.22C13.2019 36.22 13.1669 36.08 13.1669 40.805C13.1669 41.855 3.78691 41.05 1.82691 41.47C1.23191 41.61 1.02191 41.785 1.02191 42.38C1.02191 43.185 1.09191 45.11 1.23191 46.51C1.33691 47.42 1.12691 47.28 11.1019 47.28C20.5519 47.28 20.1669 47.455 20.1669 46.16C20.1669 46.16 20.1669 45.565 20.1669 45.075C20.1669 40.91 20.3419 39.825 20.3419 35.1C20.3419 30.62 20.4819 30.62 19.0819 30.62C16.0369 30.62 12.9919 30.41 9.91191 30.41C9.35191 30.41 8.75691 30.445 8.75691 30.445C8.19691 30.445 8.12691 30.34 8.12691 29.325C8.12691 28.52 8.23191 27.75 8.37191 26.945C8.54691 26.105 8.65191 26 9.45691 25.965C11.3469 25.825 13.2369 25.65 15.1269 25.65C16.0019 25.65 16.1769 25.685 17.0519 25.685C21.0419 25.685 20.6919 25.72 20.6919 23.76C20.6919 22.99 20.6569 22.185 20.5169 21.38C20.2369 19.595 20.3069 20.925 11.3119 20.155C10.8219 20.155 10.3669 20.155 9.91191 20.155ZM47.1145 20.365C42.5645 20.365 45.0845 20.295 36.5095 20.295C30.6645 20.295 31.4695 20.155 27.2695 20.155C22.6495 20.155 22.7895 19.805 22.7895 22.045C22.7895 33.56 22.8945 29.255 22.8945 35.345C22.8945 47 22.5795 47.105 23.7345 47.105C29.7545 47.105 29.4045 47.315 29.4045 46.09C29.4045 46.09 29.3345 40.315 29.3345 37.76C29.3345 33.805 29.5095 30.305 29.6495 26.35C29.6495 25.685 29.0195 25.615 34.6545 25.615C35.1795 25.615 35.0745 24.495 35.0745 40.315C35.0745 42.275 34.7595 41.96 40.9195 41.96C42.2145 41.96 42.3195 41.96 42.3195 39.265C42.3195 39.16 42.1445 26.525 42.1445 26.35C42.1445 25.79 42.1795 25.86 43.6495 25.86C47.2895 25.86 47.1845 25.86 47.1845 25.86C47.5695 25.86 47.7095 26 47.7095 26.35C47.7095 39.16 47.3945 43.99 47.7095 46.545C47.7795 47.21 47.7795 47.28 48.3045 47.28C48.5145 47.28 50.5795 47.245 54.0095 47.14C54.8495 47.105 54.7795 46.965 54.7795 44.025C54.7795 44.025 54.6745 44.865 54.6745 20.4L47.1145 20.365ZM56.9016 27.925C56.9016 31.845 57.0066 35.8 57.0066 39.72C57.0066 43.885 56.8666 46.475 56.8666 46.475C56.8666 46.93 57.1116 47.175 57.5666 47.175C57.7416 47.175 57.8466 47.14 58.2316 47.14C58.2316 47.14 60.3666 47.28 62.8516 47.28C76.8866 47.28 76.2916 47.595 76.2916 46.265C76.3266 44.48 76.5716 31.005 76.5716 31.005C76.5716 20.75 76.7816 20.33 74.6816 20.33C74.6466 20.33 74.4016 20.33 74.2266 20.33C73.1066 20.33 60.0166 20.015 59.0366 20.015C56.7966 20.015 56.9016 19.385 56.9016 27.925ZM63.9716 40.945C63.9716 24.04 63.6216 25.895 66.0366 25.895C69.3266 25.895 69.2216 25.825 69.2216 26.315C69.2216 26.315 69.1516 27.75 69.1516 30.235C69.1516 31.04 69.1516 31.845 69.1516 32.65C69.1516 33.035 69.1516 33.42 69.1516 33.805C69.1516 35.1 69.1516 36.43 69.1516 37.725C69.1516 41.785 69.2916 41.54 68.5566 41.54C63.5516 41.54 63.9716 41.575 63.9716 40.945ZM78.7082 27.925C78.7082 31.845 78.8132 35.8 78.8132 39.72C78.8132 43.885 78.6732 46.475 78.6732 46.475C78.6732 46.93 78.9182 47.175 79.3732 47.175C79.5482 47.175 79.6532 47.14 80.0382 47.14C80.0382 47.14 82.1732 47.28 84.6582 47.28C98.6932 47.28 98.0982 47.595 98.0982 46.265C98.1332 44.48 98.3782 31.005 98.3782 31.005C98.3782 20.75 98.5882 20.33 96.4882 20.33C96.4532 20.33 96.2082 20.33 96.0332 20.33C94.9132 20.33 81.8232 20.015 80.8432 20.015C78.6032 20.015 78.7082 19.385 78.7082 27.925ZM85.7782 40.945C85.7782 24.04 85.4282 25.895 87.8432 25.895C91.1332 25.895 91.0282 25.825 91.0282 26.315C91.0282 26.315 90.9582 27.75 90.9582 30.235C90.9582 31.04 90.9582 31.845 90.9582 32.65C90.9582 33.035 90.9582 33.42 90.9582 33.805C90.9582 35.1 90.9582 36.43 90.9582 37.725C90.9582 41.785 91.0982 41.54 90.3632 41.54C85.3582 41.54 85.7782 41.575 85.7782 40.945ZM106.955 36.36C106.99 36.36 106.99 36.36 106.99 36.36C106.99 38.11 106.99 39.86 106.99 41.61C106.99 47.595 106.57 47.14 109.055 47.14C113.85 47.14 113.64 47.315 113.64 45.74C113.64 45.74 113.64 45.25 113.64 44.935C113.64 23.83 113.675 26 114.9 25.965C120.29 25.895 119.94 26.14 119.94 24.495C119.94 20.19 119.87 20.4 118.68 20.4L108.04 20.33C108.04 20.33 107.235 20.47 101.355 20.47C100.69 20.47 100.235 20.295 100.62 25.055C100.76 26.595 100.865 25.93 104.435 25.93C104.785 25.93 105.17 25.93 105.555 25.93C106.605 25.93 106.99 25.825 106.99 26.315C106.99 26.245 106.955 26.7 106.955 31.67C106.955 33.21 106.955 34.785 106.955 36.36ZM141.752 33.665C141.787 33.665 141.787 33.665 141.787 33.665C141.787 32.195 141.787 30.725 141.787 29.255C141.787 19.175 141.752 20.12 140.107 20.12C137.482 20.12 136.607 20.19 135.697 20.4C134.542 20.68 134.752 20.155 134.752 30.06C134.752 30.13 134.752 30.235 134.752 30.235C134.752 30.515 134.647 30.655 134.332 30.655C134.332 30.655 133.947 30.655 133.422 30.655C131.427 30.655 129.537 30.655 129.537 30.655C129.292 30.655 129.152 30.55 129.152 30.305C129.152 30.305 129.152 30.27 129.152 30.235C129.152 19.14 129.047 20.155 127.507 20.155C124.077 20.155 122.117 20.12 122.117 21.345V21.38C122.117 21.38 122.047 21.485 122.047 29.36C122.047 48.225 122.117 47.245 123.272 47.245C124.287 47.245 127.227 47.105 128.242 47.07C129.257 47 129.047 47.14 129.152 37.13C129.152 36.465 129.152 36.43 129.817 36.43C129.817 36.43 130.237 36.43 130.622 36.43C132.792 36.43 134.192 36.43 134.192 36.43C134.997 36.43 134.787 35.625 134.962 46.055C134.997 47 135.172 47.245 136.047 47.245C137.062 47.245 140.422 47.105 140.877 47.07C141.647 47.035 141.752 46.545 141.752 45.74C141.752 45.705 141.752 45.635 141.752 45.565C141.752 45.565 141.752 43.15 141.752 37.655C141.752 36.325 141.752 34.995 141.752 33.665ZM21.1058 59.155C11.4108 59.155 12.0058 59.295 12.0058 60.94C12.0058 74.87 12.0408 75.395 13.3358 75.395C13.3358 75.395 14.4208 75.36 16.1708 75.36C17.2558 75.36 18.3758 75.36 19.4958 75.36C22.1208 75.36 23.8708 75.22 23.8708 75.22C24.3958 75.22 24.3608 75.08 24.3608 79.805C24.3608 80.855 14.9808 80.05 13.0208 80.47C12.4258 80.61 12.2158 80.785 12.2158 81.38C12.2158 82.185 12.2858 84.11 12.4258 85.51C12.5308 86.42 12.3208 86.28 22.2958 86.28C31.7458 86.28 31.3608 86.455 31.3608 85.16C31.3608 85.16 31.3608 84.565 31.3608 84.075C31.3608 79.91 31.5358 78.825 31.5358 74.1C31.5358 69.62 31.6758 69.62 30.2758 69.62C27.2308 69.62 24.1858 69.41 21.1058 69.41C20.5458 69.41 19.9508 69.445 19.9508 69.445C19.3908 69.445 19.3208 69.34 19.3208 68.325C19.3208 67.52 19.4258 66.75 19.5658 65.945C19.7408 65.105 19.8458 65 20.6508 64.965C22.5408 64.825 24.4308 64.65 26.3208 64.65C27.1958 64.65 27.3708 64.685 28.2458 64.685C32.2358 64.685 31.8858 64.72 31.8858 62.76C31.8858 61.99 31.8508 61.185 31.7108 60.38C31.4308 58.595 31.5008 59.925 22.5058 59.155C22.0158 59.155 21.5608 59.155 21.1058 59.155ZM40.4583 75.36C40.4933 75.36 40.4933 75.36 40.4933 75.36C40.4933 77.11 40.4933 78.86 40.4933 80.61C40.4933 86.595 40.0733 86.14 42.5583 86.14C47.3533 86.14 47.1433 86.315 47.1433 84.74C47.1433 84.74 47.1433 84.25 47.1433 83.935C47.1433 62.83 47.1783 65 48.4033 64.965C53.7933 64.895 53.4433 65.14 53.4433 63.495C53.4433 59.19 53.3733 59.4 52.1833 59.4L41.5433 59.33C41.5433 59.33 40.7383 59.47 34.8583 59.47C34.1933 59.47 33.7383 59.295 34.1233 64.055C34.2633 65.595 34.3683 64.93 37.9383 64.93C38.2883 64.93 38.6733 64.93 39.0583 64.93C40.1083 64.93 40.4933 64.825 40.4933 65.315C40.4933 65.245 40.4583 65.7 40.4583 70.67C40.4583 72.21 40.4583 73.785 40.4583 75.36ZM69.5507 75.36C70.1107 75.115 70.6007 74.94 71.1257 74.73C73.9607 73.505 75.8857 70.46 75.8857 67.38C75.8857 62.83 72.2457 59.19 65.8757 59.19C64.3357 59.19 63.2507 59.4 61.1507 59.4C60.7657 59.4 60.5907 59.4 59.9257 59.4C55.6207 59.4 55.7607 59.33 55.7607 60.38C55.6907 63.075 55.5507 65.77 55.5507 68.465C55.5507 68.465 55.5507 70.705 55.5507 73.54C55.5507 76.585 55.5507 79 55.5507 82.92C55.5507 85.825 55.4107 86.245 56.3557 86.245C56.3557 86.245 57.4757 86.105 58.8057 86.105C59.5757 86.105 60.3807 86.105 61.1857 86.105C61.8857 86.105 62.6907 86.21 62.6907 85.3C62.6907 85.37 62.6207 85.51 62.6207 78.44C62.6207 77.53 62.5857 77.46 62.5857 77.46C62.5857 77.355 62.6207 77.25 62.7607 77.215C63.0757 77.39 66.4007 82.5 68.6057 85.58C68.9207 86 69.2357 86.21 69.7607 86.21C69.7607 86.21 70.1457 86.21 70.4957 86.21C70.4957 86.21 72.1757 86.28 75.5707 86.28C88.6257 86.28 87.4357 86.805 87.4357 83.935C87.4357 80.155 88.8707 80.68 77.1807 80.68C76.0607 80.68 73.2957 80.715 73.2957 80.715C72.5957 80.715 72.9457 80.96 69.5507 75.36ZM64.0207 69.445C63.4607 69.445 63.0757 69.445 63.0757 69.445C62.7257 69.445 62.5507 69.305 62.5507 68.92C62.5507 68.92 62.5507 68.71 62.5507 68.465C62.5507 67.31 62.5157 65.98 62.5157 65.98C62.5157 65.385 62.5507 65.455 66.8207 65.455C67.5207 65.455 67.8007 65.42 68.5357 66.33C68.7807 66.645 68.9207 67.17 68.9207 67.625C68.9207 68.78 68.2207 69.41 67.4507 69.41C67.4507 69.41 67.0657 69.41 66.5757 69.41C66.1557 69.41 65.7357 69.41 65.3157 69.41C65.3157 69.445 65.3157 69.445 65.3157 69.445C64.8607 69.445 64.4407 69.445 64.0207 69.445ZM77.4957 67.485C77.4957 67.59 77.4257 77.81 77.4257 77.81C77.4257 78.79 76.7257 78.825 86.9457 78.825C87.2957 78.825 87.4007 78.685 87.4007 78.37V75.99C87.4007 75.115 87.4007 75.15 86.6307 75.115C83.9007 74.975 82.3257 75.08 82.0107 75.08C81.5207 75.08 81.4857 75.01 81.4857 73.33C81.4857 71.825 81.5557 71.825 82.2907 71.755C83.1307 71.65 83.9707 71.615 84.8107 71.615C85.1607 71.615 85.6507 71.685 85.6507 71.055C85.6507 68.08 85.7907 68.955 82.0457 68.71C81.2757 68.675 81.3107 68.745 81.3107 65.91C81.3107 64.895 81.3457 65.175 82.7107 65.175C83.9007 65.175 85.0557 65 86.2457 65C86.6657 65 87.0507 65 87.0507 65C87.6807 65 87.4357 64.545 87.5407 62.76C87.5757 62.305 87.4357 62.13 86.9807 62.13C86.9807 62.13 86.4907 62.13 85.6157 62.13C76.5857 62.13 77.4957 62.165 77.4957 63.04C77.4957 63.04 77.4957 62.865 77.4957 67.485ZM89.6278 64.16C89.6278 66.365 89.7328 70.915 89.7678 73.26H89.7328V74.03C89.7328 74.66 89.6628 85.055 89.6628 85.51C89.6628 86.14 89.8028 86.315 90.3628 86.315C90.3628 86.315 91.2378 86.28 92.1128 86.28C95.0878 86.28 98.0628 86.315 101.003 86.315C109.508 86.315 109.018 86.735 109.018 84.215C109.018 83.375 108.948 82.535 108.913 81.66C108.878 80.505 108.003 80.54 107.268 80.54C107.268 80.54 100.688 80.715 97.2928 80.715C96.6978 80.715 96.6978 80.645 96.6978 80.015C96.6978 74.765 96.5928 75.255 97.4328 75.255C104.573 75.15 104.258 75.115 104.258 72.525C104.258 69.235 104.188 69.41 98.7978 69.41C98.0278 69.41 97.1528 69.445 97.1528 69.445C96.6278 69.445 96.6978 69.62 96.6978 65.49C96.6978 65.105 96.8378 64.965 97.1878 64.965C97.1878 64.965 97.3628 64.965 97.5028 64.965C97.6078 64.965 97.6778 64.965 97.7828 64.965C97.7828 64.965 100.933 65.07 103.068 65.07C108.703 65.07 108.388 64.93 108.633 64.09C108.738 63.635 108.738 63.53 108.738 61.395C108.738 59.68 108.808 59.155 107.583 59.155C107.583 59.155 103.558 59.435 91.6578 59.435C90.9578 59.435 90.3278 59.365 90.3278 59.365C89.9778 59.365 89.7678 59.61 89.7678 60.03C89.6978 61.43 89.6278 62.795 89.6278 64.16ZM117.602 75.36C117.637 75.36 117.637 75.36 117.637 75.36C117.637 77.11 117.637 78.86 117.637 80.61C117.637 86.595 117.217 86.14 119.702 86.14C124.497 86.14 124.287 86.315 124.287 84.74C124.287 84.74 124.287 84.25 124.287 83.935C124.287 62.83 124.322 65 125.547 64.965C130.937 64.895 130.587 65.14 130.587 63.495C130.587 59.19 130.517 59.4 129.327 59.4L118.687 59.33C118.687 59.33 117.882 59.47 112.002 59.47C111.337 59.47 110.882 59.295 111.267 64.055C111.407 65.595 111.512 64.93 115.082 64.93C115.432 64.93 115.817 64.93 116.202 64.93C117.252 64.93 117.637 64.825 117.637 65.315C117.637 65.245 117.602 65.7 117.602 70.67C117.602 72.21 117.602 73.785 117.602 75.36Z" fill="black"/>
<path d="M88.8205 98.8556C88.8335 98.8084 88.8398 98.7596 88.8391 98.7107C88.8398 98.638 88.8063 98.5696 88.7486 98.5265L88.7066 98.4938C88.6876 98.4792 88.6668 98.4671 88.6448 98.4579L88.5806 98.4286L88.5806 98.4287C88.5413 98.4081 88.4995 98.393 88.4563 98.3837C88.3413 98.3653 88.2237 98.368 88.1094 98.3919C88.035 98.4072 87.9617 98.4276 87.8899 98.4528C87.8385 98.4701 87.7881 98.4906 87.7391 98.5143C87.6501 98.558 87.5622 98.602 87.4753 98.6464C87.4015 98.6871 87.3299 98.7318 87.2609 98.7805C87.2061 98.8183 87.1539 98.8593 87.1011 98.9001C87.0958 98.9043 87.0914 98.9103 87.0829 98.9111L87.0829 98.911C87.0792 98.9019 87.0787 98.8918 87.0813 98.8824C87.0852 98.8406 87.0897 98.799 87.0943 98.7575L87.0942 98.7574C87.1036 98.6985 87.1084 98.6389 87.1086 98.5792C87.1072 98.5382 87.096 98.4982 87.0758 98.4628C87.0375 98.3974 86.9802 98.3458 86.9116 98.3148C86.8701 98.2929 86.8193 98.3005 86.7853 98.3336C86.7551 98.3596 86.7294 98.3905 86.7095 98.4252C86.695 98.4511 86.6815 98.478 86.6674 98.5047C86.6473 98.5427 86.6307 98.5823 86.6178 98.6233C86.5881 98.7207 86.5582 98.818 86.5281 98.9153C86.5094 98.9669 86.4947 99.02 86.4794 99.0728C86.4581 99.1485 86.4374 99.2244 86.4165 99.301L86.4012 99.3432C86.371 99.4268 86.3429 99.5109 86.3169 99.5954L86.3168 99.5954C86.2998 99.6488 86.2785 99.7007 86.2533 99.7506C86.2376 99.7829 86.2186 99.8134 86.1965 99.8416C86.1609 99.8887 86.1045 99.9152 86.0461 99.9123C85.9835 99.9109 85.9269 99.8748 85.8991 99.8183L85.8798 99.7848C85.8721 99.7719 85.8624 99.7604 85.8509 99.7509C85.8384 99.7388 85.82 99.7354 85.8039 99.7422C85.7881 99.7476 85.7738 99.7571 85.7626 99.7697C85.7497 99.7848 85.7361 99.7995 85.7232 99.8146C85.702 99.8374 85.6751 99.8539 85.6454 99.8623C85.5912 99.879 85.5336 99.88 85.4791 99.8652C85.4085 99.8513 85.3476 99.8072 85.312 99.7442C85.3077 99.7365 85.3029 99.7292 85.2975 99.7223C85.2925 99.7158 85.2843 99.7128 85.2763 99.7146C85.2507 99.717 85.2269 99.7293 85.2101 99.749C85.1867 99.7785 85.1614 99.8073 85.1374 99.8365L85.1373 99.8365C85.1264 99.8497 85.1115 99.859 85.0949 99.8628C85.0796 99.8665 85.0639 99.8682 85.0482 99.868C85.0079 99.8678 84.9674 99.8638 84.9277 99.8601C84.9178 99.8586 84.9081 99.8564 84.8987 99.8534C84.8154 99.829 84.7361 99.7927 84.6632 99.7456C84.6087 99.7121 84.5576 99.6734 84.5106 99.6299C84.4696 99.5935 84.4345 99.551 84.4066 99.5036C84.3853 99.4656 84.3666 99.4262 84.3505 99.3856C84.3112 99.2924 84.2843 99.1942 84.2705 99.0936L84.2499 98.8816C84.2442 98.8333 84.2378 98.7847 84.2336 98.7362C84.2262 98.6388 84.2244 98.5409 84.228 98.4431C84.2319 98.3135 84.2475 98.1844 84.2746 98.0575C84.2808 98.0279 84.2875 97.9992 84.2937 97.9696C84.2971 97.9585 84.2967 97.9465 84.2924 97.9358C84.2782 97.9087 84.2659 97.8808 84.2511 97.8534C84.2351 97.8241 84.2211 97.7937 84.2092 97.7625C84.1885 97.7058 84.1672 97.6488 84.1457 97.5925C84.1241 97.5362 84.1117 97.5044 84.097 97.4582C84.0753 97.392 84.0542 97.326 84.0307 97.2607L84.0308 97.2607C83.9779 97.1163 83.9155 96.9758 83.844 96.84C83.8277 96.8084 83.8096 96.7776 83.7928 96.7457L83.7927 96.7457C83.7297 96.6279 83.6608 96.5134 83.5861 96.4028C83.563 96.3682 83.537 96.3358 83.5083 96.3057C83.4782 96.2731 83.4434 96.2452 83.4051 96.2229C83.3572 96.1933 83.3001 96.1827 83.2446 96.1931C83.1742 96.2086 83.1095 96.2441 83.0581 96.2955C83.0369 96.315 83.0179 96.3369 83.0016 96.3607C82.9595 96.4277 82.9343 96.5039 82.9282 96.5828C82.9241 96.6364 82.9242 96.6901 82.9284 96.7436C82.9346 96.8633 82.949 96.9784 82.9652 97.0994C82.9803 97.2027 82.9922 97.3063 83.0135 97.4087L83.0135 97.4087C83.0411 97.548 83.0792 97.6849 83.1273 97.8182L83.1658 97.9185C83.2233 98.072 83.2723 98.2283 83.3224 98.3836C83.3613 98.5006 83.3932 98.6199 83.4177 98.741C83.4414 98.8588 83.4567 98.9783 83.4635 99.0986C83.4662 99.1572 83.4712 99.2159 83.4749 99.274C83.4754 99.298 83.4818 99.3214 83.4936 99.3422C83.4984 99.3509 83.501 99.3607 83.5013 99.3707C83.5078 99.423 83.5168 99.4748 83.5264 99.5268C83.5361 99.5788 83.5509 99.6516 83.5611 99.7144C83.5747 99.7989 83.5902 99.8803 83.6068 99.9667C83.6333 100.095 83.6549 100.224 83.6716 100.355L83.6893 100.513C83.7002 100.592 83.7163 100.674 83.7298 100.755C83.7474 100.863 83.7663 100.973 83.791 101.08C83.8274 101.238 83.8721 101.394 83.9209 101.548C83.9518 101.649 83.9846 101.749 84.0217 101.847C84.0417 101.904 84.0666 101.959 84.096 102.012C84.1361 102.083 84.1931 102.143 84.2618 102.186C84.3022 102.211 84.3448 102.231 84.389 102.248C84.5228 102.297 84.6629 102.328 84.8053 102.338C84.9041 102.345 85.0032 102.347 85.1023 102.343C85.1842 102.342 85.2658 102.333 85.3461 102.316C85.4582 102.293 85.5666 102.254 85.6683 102.201C85.751 102.157 85.8256 102.1 85.8889 102.031C85.9642 101.947 86.0244 101.85 86.0667 101.746C86.0896 101.691 86.1097 101.636 86.1267 101.579C86.13 101.566 86.1394 101.554 86.1521 101.548C86.163 101.543 86.1727 101.537 86.1832 101.531L86.1831 101.531C86.2872 101.473 86.3872 101.408 86.4824 101.336C86.5524 101.28 86.619 101.22 86.6819 101.156C86.7964 101.046 86.9037 100.933 87.0124 100.821C87.1081 100.721 87.2028 100.62 87.2915 100.514C87.3431 100.453 87.391 100.389 87.4351 100.323C87.4701 100.27 87.5062 100.217 87.5418 100.164C87.5632 100.132 87.5846 100.1 87.6054 100.067C87.6448 100.005 87.6849 99.9379 87.7294 99.8767C87.7841 99.8017 87.841 99.7291 87.9028 99.6597L87.9028 99.6596C87.9489 99.6067 88.0009 99.5594 88.0577 99.5184C88.1 99.4882 88.1444 99.4626 88.1884 99.436C88.2782 99.3821 88.3701 99.3304 88.4567 99.2707C88.5294 99.221 88.5967 99.1638 88.6574 99.0999C88.6978 99.0586 88.7344 99.0137 88.7665 98.9657C88.7897 98.9318 88.8079 98.8947 88.8205 98.8556ZM88.4853 98.974L88.4853 98.9741C88.4406 99.0123 88.392 99.0455 88.3403 99.0733C88.3089 99.09 88.2778 99.1076 88.2475 99.1232C88.2051 99.1429 88.1595 99.1547 88.1131 99.158C88.1043 99.1592 88.0953 99.1586 88.0868 99.1561C88.084 99.1553 88.0816 99.1533 88.0805 99.1505C88.0794 99.1477 88.0798 99.1445 88.0814 99.142C88.0859 99.1341 88.0919 99.1272 88.0992 99.1219C88.1256 99.0995 88.1536 99.0789 88.1828 99.0603C88.2586 99.0119 88.3349 98.9682 88.4145 98.928L88.5429 98.8645L88.5618 98.8554C88.5632 98.8543 88.565 98.854 88.5666 98.8545C88.5682 98.8551 88.5694 98.8566 88.5698 98.8583C88.5692 98.8606 88.5684 98.8628 88.5673 98.865C88.5478 98.9067 88.5196 98.9439 88.4846 98.9738L88.4853 98.974Z" fill="black"/>
<path d="M85.9085 98.3012L85.9044 98.3126C85.882 98.3933 85.8655 98.4755 85.8552 98.5586C85.841 98.658 85.8267 98.7575 85.8087 98.8571C85.7996 98.9021 85.7939 98.9477 85.7916 98.9934C85.7901 99.0452 85.7908 99.097 85.7921 99.1452C85.7934 99.1934 85.7958 99.2488 85.7966 99.2984L85.7966 99.2984C85.7963 99.3603 85.8019 99.4219 85.8131 99.4825C85.832 99.5916 85.886 99.6909 85.9667 99.7654C85.9789 99.777 85.9928 99.7866 86.008 99.7939C86.055 99.82 86.1123 99.8188 86.1587 99.7907C86.1941 99.7697 86.2221 99.7379 86.2386 99.6998C86.2609 99.6476 86.2802 99.5941 86.2965 99.5396C86.3134 99.4926 86.3235 99.444 86.3365 99.3957C86.3554 99.3267 86.3751 99.2535 86.3909 99.1811C86.4065 99.1086 86.4172 99.0564 86.4321 98.9943C86.4525 98.9069 86.4777 98.8206 86.502 98.7346C86.5138 98.7018 86.5209 98.6656 86.5323 98.6341L86.6013 98.443L86.6013 98.443C86.6184 98.3982 86.6397 98.3551 86.6649 98.3144C86.684 98.281 86.7063 98.2497 86.7315 98.221C86.748 98.2023 86.7684 98.1876 86.7912 98.178C86.8041 98.1726 86.8184 98.1716 86.8318 98.1753C86.849 98.1793 86.8656 98.1854 86.8814 98.1932C86.9476 98.2266 87.0053 98.2747 87.0505 98.3338C87.0593 98.3471 87.0724 98.3569 87.0875 98.3616C87.0942 98.3649 87.1021 98.3651 87.109 98.362C87.1159 98.359 87.1211 98.353 87.1232 98.3457C87.1312 98.3274 87.1343 98.3074 87.1322 98.2876C87.1268 98.2241 87.1181 98.161 87.1063 98.0985C87.0998 98.0623 87.0893 98.0269 87.0748 97.9932C87.0637 97.968 87.0529 97.9421 87.0436 97.916L87.0436 97.916C87.0264 97.8684 87.0049 97.8226 86.9794 97.7791C86.9422 97.7172 86.8982 97.6599 86.8482 97.6082C86.8175 97.5774 86.7845 97.5489 86.7495 97.5232C86.7055 97.488 86.654 97.4635 86.599 97.4515C86.4884 97.4261 86.3721 97.4449 86.2742 97.504C86.2281 97.5305 86.1898 97.569 86.1636 97.6156C86.1419 97.6536 86.1222 97.6929 86.1047 97.7331C86.0833 97.7822 86.0589 97.831 86.0427 97.882C86.0265 97.933 86.0121 97.9771 85.9942 98.035C85.9702 98.118 85.9399 98.2102 85.9085 98.3012L85.9085 98.3012ZM85.9914 99.459C86.0333 99.4689 86.0759 99.4762 86.1189 99.4808L86.1381 99.4877C86.1526 99.4929 86.1569 99.4998 86.1535 99.5153C86.1502 99.5307 86.1455 99.5374 86.1412 99.5495C86.1382 99.5598 86.1346 99.5698 86.1303 99.5796C86.1189 99.5977 86.0995 99.6089 86.0783 99.6094C86.0674 99.61 86.0566 99.6061 86.0486 99.5987C86.0131 99.5684 85.9886 99.527 85.9789 99.481L85.9829 99.4658C85.9835 99.4616 85.9872 99.4586 85.9914 99.459Z" fill="black"/>
<path d="M85.1174 97.9004C85.1018 97.9532 85.0934 98.0078 85.0925 98.0627C85.0926 98.0976 85.092 98.1323 85.0906 98.1674C85.0862 98.2416 85.0831 98.3102 85.0797 98.3818C85.0763 98.4533 85.0754 98.5053 85.0728 98.5665L85.0728 98.5665C85.0701 98.6274 85.0731 98.6884 85.0818 98.7486C85.0844 98.7662 85.087 98.7839 85.088 98.8017L85.0881 98.8016C85.0944 98.8971 85.1126 98.9913 85.1423 99.082C85.1583 99.131 85.1715 99.1812 85.1835 99.231C85.1961 99.2891 85.2133 99.346 85.2349 99.4012L85.2419 99.4212C85.2645 99.4953 85.2941 99.5666 85.3216 99.6395L85.3216 99.6394C85.3345 99.6717 85.3541 99.7007 85.3791 99.7246C85.3991 99.7452 85.4238 99.7607 85.4511 99.7696C85.5039 99.7869 85.5609 99.7865 85.6137 99.7684C85.6306 99.7625 85.6471 99.7555 85.6631 99.7476C85.71 99.7265 85.7456 99.686 85.7608 99.6366C85.771 99.6061 85.7755 99.5741 85.774 99.5421C85.7711 99.4819 85.7671 99.4206 85.7645 99.3613C85.7519 99.2408 85.7457 99.1196 85.7461 98.9984C85.7471 98.8818 85.7586 98.7654 85.7804 98.6507C85.7854 98.6245 85.7919 98.5981 85.7963 98.5716C85.8086 98.5002 85.8259 98.4231 85.8456 98.3499C85.8612 98.2903 85.8789 98.2308 85.898 98.1718C85.9135 98.1288 85.9253 98.0838 85.9382 98.0399L85.9462 98.0178L85.9462 98.0178C85.9581 97.9622 85.9665 97.906 85.9711 97.8494C85.9749 97.8147 85.9745 97.7797 85.9698 97.7451C85.9591 97.693 85.9383 97.6435 85.9088 97.5995C85.8945 97.5744 85.8755 97.5524 85.8529 97.5346C85.7994 97.4919 85.7351 97.465 85.6671 97.457C85.6261 97.4527 85.5843 97.4543 85.5435 97.4517C85.517 97.4506 85.4905 97.4514 85.4641 97.4541C85.4286 97.4572 85.3943 97.469 85.3641 97.4885C85.323 97.5148 85.2875 97.5491 85.2597 97.5894C85.2063 97.6643 85.1652 97.7472 85.138 97.8351C85.1302 97.8588 85.1239 97.8785 85.1174 97.9004ZM85.4081 99.4683C85.4481 99.4584 85.4889 99.4528 85.53 99.4517C85.5425 99.4525 85.5549 99.4542 85.5671 99.4567C85.5825 99.4581 85.5947 99.4705 85.5961 99.4861C85.5977 99.4959 85.5984 99.5058 85.5981 99.5156C85.5974 99.5296 85.5959 99.5435 85.5936 99.5572C85.5922 99.5772 85.5826 99.5957 85.5671 99.6083C85.5516 99.6208 85.5317 99.6263 85.5121 99.6233L85.4877 99.6145C85.4716 99.6092 85.4578 99.5986 85.4484 99.5844C85.4258 99.5521 85.4103 99.5153 85.403 99.4763C85.4027 99.4727 85.4049 99.4695 85.4081 99.4683Z" fill="black"/>
<path d="M84.3251 98.2986C84.3182 98.3591 84.3122 98.419 84.3111 98.4801L84.3111 98.48C84.3097 98.5449 84.3143 98.6098 84.3249 98.6737L84.3773 98.9822C84.386 99.0373 84.4003 99.0912 84.42 99.1432C84.4435 99.2025 84.4627 99.2632 84.4812 99.3237C84.489 99.3494 84.499 99.3743 84.5112 99.3982C84.5564 99.4853 84.6112 99.5668 84.6746 99.6414C84.6896 99.6599 84.7072 99.6761 84.7267 99.6897C84.7697 99.7202 84.8157 99.7461 84.8639 99.7673L84.8705 99.7697C84.9189 99.7943 84.9767 99.7913 85.0229 99.7618C85.0723 99.7305 85.119 99.6949 85.1623 99.6553C85.1742 99.6445 85.1827 99.6304 85.1866 99.6148C85.1915 99.5985 85.1941 99.5816 85.1943 99.5646C85.1948 99.5277 85.1905 99.4909 85.1814 99.4553C85.1664 99.3975 85.1484 99.3395 85.1361 99.2828C85.1141 99.196 85.0945 99.1088 85.0773 99.0212C85.0639 98.9527 85.0525 98.8827 85.0424 98.8153L85.0424 98.8154C85.0327 98.7661 85.0257 98.7162 85.0215 98.6661C85.0166 98.5986 85.0161 98.5308 85.0201 98.4632C85.0236 98.4038 85.0264 98.3442 85.0286 98.2843C85.0323 98.2099 85.0374 98.1359 85.0451 98.0667C85.0519 98.0098 85.0551 97.9524 85.0547 97.8951C85.0553 97.8643 85.0521 97.8336 85.0451 97.8037C85.0247 97.7267 84.9888 97.6549 84.9396 97.5927C84.9289 97.5798 84.9169 97.5681 84.9036 97.5578C84.8715 97.531 84.83 97.5185 84.7884 97.523C84.7446 97.526 84.7031 97.5442 84.671 97.5746C84.6397 97.6034 84.6071 97.6273 84.5731 97.6574L84.573 97.6575C84.5315 97.6932 84.4959 97.7353 84.4674 97.7823C84.4411 97.8281 84.4179 97.8757 84.398 97.9247C84.3653 98.0059 84.3446 98.0913 84.3363 98.1783C84.3305 98.2194 84.3295 98.2592 84.3251 98.2986L84.3251 98.2986ZM84.8419 99.4805C84.8634 99.4769 84.8847 99.4717 84.9051 99.4669C84.9255 99.4622 84.9362 99.4615 84.9514 99.4586L84.9514 99.4586C84.9592 99.4577 84.9671 99.4585 84.9745 99.4609C84.9896 99.4636 85.0007 99.4764 85.0015 99.4919C85.0021 99.5004 85.0016 99.5101 85.0023 99.5187C85.0051 99.551 84.9898 99.5824 84.9625 99.5998C84.9474 99.6113 84.9284 99.6161 84.9098 99.6134C84.8901 99.6115 84.8712 99.6047 84.8549 99.5936C84.8257 99.5716 84.7992 99.5463 84.7759 99.518C84.7702 99.5127 84.767 99.5052 84.767 99.4974C84.7917 99.4911 84.8163 99.4849 84.8419 99.4805Z" fill="black"/>
<path d="M116.07 106.987C116.07 106.987 115.786 106.771 115.554 106.64C115.323 106.508 114.583 105.969 114.143 105.729C113.704 105.491 113.039 104.994 112.682 104.801C112.325 104.608 111.909 104.362 111.624 104.195C111.34 104.028 110.927 103.815 110.578 103.512C110.226 103.208 109.923 102.875 109.769 102.802C109.613 102.73 107.376 100.703 107.164 100.562C106.951 100.421 106.331 100.053 106.062 99.8922C105.792 99.7295 105.321 99.3044 105.182 99.1888C105.042 99.0742 104.731 98.8494 104.367 98.4943C104.003 98.1387 103.591 97.733 103.452 97.6676C103.312 97.6007 102.575 97.0946 102.51 97.0056C102.443 96.9176 102.091 96.6623 101.762 96.3507C101.431 96.0388 101.003 95.4985 100.791 95.3586C100.579 95.2177 100.335 95.0334 100.248 95.0021C100.161 94.9708 97.5592 93.9029 97.2936 93.8233C97.0266 93.7426 95.6052 93.5019 95.3383 93.4224C95.071 93.3422 92.8655 92.4973 92.8655 92.4973C92.8655 92.4973 88.5909 90.8417 88.5165 90.8149C88.4443 90.7888 86.5963 90.1377 86.5963 90.1377C86.5963 90.1377 85.0854 89.6882 84.9533 89.6405C84.8238 89.5937 83.8139 89.9345 83.6717 89.9635C83.5312 89.9926 82.4329 91.4887 82.4021 91.5254C82.3727 91.5632 80.3461 93.8134 80.3461 93.8134C80.3461 93.8134 78.9454 95.9059 78.925 95.9625C78.9045 96.0192 78.3497 97.4064 78.3497 97.4064L78.2112 97.7899L78.0096 98.1003L77.7902 97.7019L76.9176 96.7133L76.049 95.598L74.9754 94.5368L73.4643 93.2535L72.4521 91.957C72.4521 91.957 71.562 90.7976 71.1614 90.5291C70.9824 90.4088 70.5633 90.2586 70.348 90.2353C70.1555 90.2141 69.7639 90.2323 69.5761 90.2769C68.5964 90.5174 65.8299 91.7465 65.8299 91.7465L60.7389 93.7558C60.7389 93.7558 56.6568 94.6924 55.4412 95.3398C54.8109 95.6738 53.2467 97.1443 53.2467 97.1443L44.7713 105.437L41.4863 108.26C41.4863 108.26 39.5057 109.787 38.6959 110.074C37.9221 110.349 35.5213 110.403 35.542 110.346L33.0001 117.384L45.3435 121.842L45.9422 121.64L47.5947 121.514L49.3837 121.287L50.773 121.078C50.773 121.078 52.5545 121.142 52.6616 121.116C52.7687 121.091 54.0192 120.901 54.1162 120.903C54.2133 120.906 55.3359 120.799 55.3359 120.799L56.8214 120.5C56.8214 120.5 57.9865 120.727 58.0839 120.731C58.1806 120.734 59.8984 121.162 59.985 121.193C60.0716 121.224 61.8908 121.368 61.8908 121.368C61.8908 121.368 64.519 121.457 65.3838 121.602C66.0621 121.718 67.9522 122.304 68.0496 122.308C68.1472 122.31 68.5815 122.472 68.7578 122.531C69.2991 122.715 70.9364 123.223 70.9364 123.223C70.9364 123.223 72.4764 123.465 72.9246 123.715C73.1861 123.861 73.7001 124.477 73.8162 124.519C73.9317 124.561 74.1372 124.725 74.2389 124.8C74.5108 124.998 75.2393 125.481 75.3357 125.581C75.4302 125.679 76.2179 126.315 76.3435 126.426C76.4677 126.534 77.0749 126.852 77.2214 126.905C77.3664 126.957 77.6677 126.938 77.9212 126.964C78.1742 126.99 78.4679 126.528 78.5176 126.314C78.5874 126.016 78.512 125.509 78.5016 125.089C78.5006 125.037 78.4969 124.975 78.4953 124.917C78.4953 124.917 78.5252 125.383 78.5718 125.531C78.6422 125.753 78.8119 126.234 79.0142 126.35C79.1286 126.414 79.4867 126.359 79.5407 126.346C79.5938 126.333 79.9221 126.106 80.0391 126.012C80.3045 125.802 81.0541 125.112 81.0541 125.112L81.9937 124.281C81.9937 124.281 83.026 123.467 83.0835 123.44C83.1433 123.413 83.773 122.92 84.0256 122.786C84.1743 122.708 84.4626 122.623 84.6624 122.567C84.8636 122.512 85.4104 122.357 85.4553 122.373C85.4981 122.388 85.7701 122.502 85.8382 122.493C85.906 122.486 86.1008 122.492 86.1892 122.428C86.2782 122.364 86.4674 122.207 86.4674 122.207C86.4674 122.207 86.6634 122.116 86.732 122.11C86.8 122.103 86.8982 122.01 87.1285 121.965C87.358 121.92 87.9214 121.723 87.9774 121.662C88.0312 121.601 88.3223 121.386 88.3669 121.353C88.411 121.321 89.4062 121.247 89.4651 121.221C89.5242 121.195 90.5945 120.96 90.9758 120.9C91.5919 120.805 93.455 120.626 93.455 120.626C93.455 120.626 94.6482 120.591 94.6967 120.592C94.7463 120.594 95.7087 120.653 95.8788 120.635C96.0499 120.617 96.9859 120.618 97.2394 120.549C97.4938 120.48 97.9983 120.309 98.1902 120.234C98.3814 120.16 98.8708 120.032 99.0167 120.037C99.1627 120.041 99.4016 120.015 99.4016 120.015C99.4016 120.015 100.357 120.055 100.603 120.049C100.852 120.042 101.614 120.206 101.934 120.273C102.254 120.339 102.922 120.31 103.262 120.368C103.601 120.425 104.75 120.697 104.873 120.724C104.994 120.752 106.306 120.889 106.609 120.917C106.909 120.946 107.758 120.917 107.903 120.92C108.05 120.925 108.8 120.94 108.975 120.955C109.149 120.97 110.249 120.966 110.351 121.003C110.452 121.039 111.465 121.323 111.673 121.384C111.88 121.446 112.7 121.901 112.816 121.943L112.819 121.944L117.855 107.999L116.07 106.987ZM91.7656 112.033C91.6205 112.234 91.1046 112.772 91.1046 112.772C91.1046 112.772 90.2844 113.454 90.2142 113.51C90.1448 113.565 89.0743 114.215 88.6748 114.413C88.3336 114.581 87.6244 114.862 87.2668 114.995C86.5684 115.257 85.1401 115.698 84.4586 116.002C84.19 116.121 83.6411 116.446 83.4022 116.518C83.1614 116.592 82.4176 116.76 82.1231 116.923C81.7387 117.135 81.084 117.619 80.769 117.927C80.503 118.188 80.2559 118.486 79.7603 119.148C79.7061 119.221 78.6309 120.96 78.6309 120.96C78.6309 120.96 78.2602 121.611 78.1658 122.293C78.1311 122.54 78.2894 123.283 78.2894 123.283C78.2467 123.085 78.2005 122.881 78.1528 122.737C78.0477 122.419 77.7558 121.7 77.6022 121.399C77.4086 121.023 76.8564 120.366 76.5841 120.039C76.3674 119.777 75.89 119.286 75.6174 119.079C75.0189 118.629 72.9943 117.62 72.9943 117.62C72.9943 117.62 68.5312 115.798 66.9971 115.326C66.6784 115.229 66.0213 115.095 65.7182 114.96C65.4871 114.859 64.9666 114.495 64.85 114.453C64.7345 114.412 64.322 113.861 64.1541 113.657C64.0103 113.481 63.6189 113.046 63.5425 112.987C63.4655 112.927 63.1366 112.41 63.0403 112.196C62.9227 111.934 62.6791 111.104 62.6791 111.104C62.6791 111.104 62.4671 110.167 62.4097 109.851C62.3612 109.585 62.291 109.047 62.2738 108.776C62.2569 108.542 62.2684 108.071 62.251 107.838C62.2376 107.648 62.1821 107.269 62.1963 107.081C62.2049 106.956 62.2828 106.704 62.2453 106.583C62.2183 106.502 62.0661 106.377 62.0549 106.29C62.0163 105.96 62.4443 105.212 62.5053 105.043C62.5673 104.872 62.7838 104.366 62.9208 104.166C63.0252 104.015 63.2953 103.765 63.4366 103.646C63.6077 103.506 64.1759 103.144 64.1759 103.144L64.9209 102.354C64.9209 102.354 65.2932 101.671 65.5091 101.54C65.6564 101.454 66.0283 101.47 66.1933 101.467C66.3579 101.463 67.0086 101.024 67.1162 100.999C67.2237 100.972 68.0348 100.447 68.3568 100.292C68.575 100.185 69.0408 100.032 69.2504 99.9087C69.4755 99.7741 69.868 99.422 70.0513 99.2361C70.1832 99.1018 70.4678 98.7523 70.5003 98.6287C70.6897 97.922 71.0929 96.141 71.1075 96.1003C71.3318 95.4795 70.8358 97.9912 70.8138 98.6246C70.8087 98.7491 70.8126 99.0479 70.9108 99.1293C71.0294 99.2278 71.3266 99.3454 71.478 99.4521C71.6657 99.5833 71.7441 99.7882 71.8411 99.9145C71.9982 100.116 72.5335 100.453 72.6785 100.505C72.8041 100.551 73.3417 100.878 73.5007 100.924L74.7969 100.517L76.2543 99.968C76.2543 99.968 75.6454 100.403 75.403 100.506C75.2876 100.554 73.6227 101.14 73.5752 101.151L73.5578 101.07C73.5578 101.07 73.7961 102.198 73.8001 102.58C73.8024 102.751 73.7278 103.095 73.7487 103.266C73.7784 103.506 74.0172 104.068 74.1517 104.149C74.2863 104.23 75.0533 104.925 75.1693 104.967C75.2848 105.009 75.8563 105.436 76.1041 105.561C76.351 105.686 76.8752 105.898 77.149 105.939C77.3104 105.961 77.6382 105.925 77.7931 105.883C77.9624 105.836 78.2916 105.637 78.3648 105.48C78.3766 105.454 78.3848 105.42 78.3892 105.381C78.4251 105.442 78.4586 105.51 78.4994 105.561C78.666 105.771 79.2537 105.983 79.5166 105.928C80.2394 105.771 81.3341 104.653 81.7894 104.086C82.0887 103.711 82.6381 102.372 82.6381 102.372L82.8228 101.541C82.8228 101.541 82.8252 101.137 82.8716 101.009L82.9225 100.739C82.5261 99.6389 79.912 98.1592 80.0196 97.8982C80.0196 97.8982 82.8409 99.7532 83.0473 100.554C83.1058 100.776 83.3242 99.7809 83.4488 99.5381C83.5104 99.4159 83.7469 99.1646 83.8107 99.1235C83.875 99.0827 84.3231 98.9785 84.4824 98.9006C84.6854 98.8022 85.2336 98.3739 85.2022 98.3589C85.1444 98.3314 85.1167 98.1201 85.1167 98.1201C85.1167 98.1201 84.6742 97.3267 84.6049 97.0363C84.4048 96.2029 84.3916 93.5812 84.5087 93.6235C84.6839 93.6874 84.695 96.4673 84.8669 96.9152C84.9399 97.1048 85.4927 98.256 85.4927 98.256L86.1744 98.7101C86.1744 98.7101 86.7473 99.0772 86.7865 99.1077C86.8251 99.138 87.449 99.5882 87.449 99.5882L88.2005 100.052C88.2005 100.052 88.7418 100.357 88.8942 100.495C89.0178 100.606 89.3131 101.015 89.3131 101.015C89.3131 101.015 89.9267 101.589 89.973 101.639C90.021 101.688 90.6157 102.223 90.6693 102.258C90.7219 102.294 91.2342 102.832 91.2662 102.875C91.2998 102.919 91.6981 103.817 91.6981 103.817C91.6981 103.817 92.0277 104.449 92.0365 104.517C92.0449 104.584 92.3955 105.385 92.3801 105.427C92.3648 105.47 92.2848 106.113 92.2949 106.343C92.3076 106.616 92.4811 107.421 92.4811 107.421L92.5775 108.834C92.5775 108.834 92.6965 109.901 92.6248 110.247C92.523 110.728 92.0574 111.631 91.7657 112.033L91.7656 112.033Z" fill="black"/>
</svg>
