<svg width="376" height="75" viewBox="0 0 376 75" fill="none" xmlns="http://www.w3.org/2000/svg">
<path d="M32.5 57H89M5 35H76" stroke="#F3C42E" stroke-width="10" stroke-linecap="round"/>
<g filter="url(#filter0_d_106_30)">
<path d="M108.064 47.102C106.324 47.102 104.739 46.8893 103.308 46.464C101.916 46.0387 100.679 45.4973 99.5963 44.84C98.5523 44.1827 97.6629 43.506 96.9283 42.81C96.1936 42.114 95.6523 41.476 95.3043 40.896C94.8016 40.2 94.4729 39.5813 94.3183 39.04C94.1636 38.4987 94.2023 37.9767 94.4343 37.474C94.7049 36.9327 95.1883 36.372 95.8843 35.792C96.5803 35.1733 97.2183 34.864 97.7983 34.864C98.4169 34.8253 98.9969 34.9993 99.5383 35.386C100.118 35.7727 100.679 36.314 101.22 37.01C102.148 38.2473 103.192 39.1367 104.352 39.678C105.512 40.1807 106.672 40.432 107.832 40.432C109.34 40.432 110.655 40.2387 111.776 39.852C112.898 39.4267 113.768 38.808 114.386 37.996C115.044 37.184 115.372 36.14 115.372 34.864C115.372 33.82 115.044 32.9693 114.386 32.312C113.768 31.616 112.936 31.036 111.892 30.572C110.848 30.0693 109.669 29.6247 108.354 29.238C107.078 28.8127 105.783 28.3487 104.468 27.846C103.54 27.5367 102.612 27.1693 101.684 26.744C100.756 26.28 99.8863 25.758 99.0743 25.178C98.3009 24.598 97.6049 23.9213 96.9863 23.148C96.4063 22.336 95.9423 21.408 95.5943 20.364C95.2463 19.32 95.0723 18.102 95.0723 16.71C95.0723 14.506 95.6136 12.5727 96.6963 10.91C97.7789 9.20866 99.287 7.87466 101.22 6.908C103.154 5.90266 105.358 5.4 107.832 5.4C109.418 5.4 110.829 5.55466 112.066 5.864C113.342 6.13466 114.425 6.502 115.314 6.966C116.242 7.39133 116.996 7.836 117.576 8.3C118.195 8.72533 118.64 9.09266 118.91 9.402C119.8 10.2913 120.283 11.0453 120.36 11.664C120.476 12.244 120.128 13.0367 119.316 14.042C118.504 15.086 117.712 15.666 116.938 15.782C116.204 15.8593 115.372 15.55 114.444 14.854C113.826 14.1967 113.207 13.6747 112.588 13.288C111.97 12.8627 111.274 12.5533 110.5 12.36C109.766 12.1667 108.857 12.07 107.774 12.07C107.001 12.07 106.247 12.186 105.512 12.418C104.816 12.6113 104.217 12.9207 103.714 13.346C103.212 13.7327 102.806 14.216 102.496 14.796C102.226 15.376 102.09 16.0333 102.09 16.768C102.09 17.7733 102.361 18.6047 102.902 19.262C103.482 19.8807 104.256 20.4027 105.222 20.828C106.189 21.2147 107.272 21.582 108.47 21.93C109.669 22.278 110.887 22.6453 112.124 23.032C113.4 23.4573 114.657 23.96 115.894 24.54C117.132 25.12 118.234 25.8547 119.2 26.744C120.167 27.5947 120.94 28.6773 121.52 29.992C122.1 31.268 122.39 32.834 122.39 34.69C122.39 36.8167 121.984 38.6727 121.172 40.258C120.36 41.8433 119.258 43.1387 117.866 44.144C116.474 45.1493 114.928 45.884 113.226 46.348C111.525 46.8507 109.804 47.102 108.064 47.102ZM138.445 46.522C137.44 46.522 136.686 46.3673 136.183 46.058C135.68 45.7487 135.352 45.3233 135.197 44.782C135.081 44.2407 135.023 43.6413 135.023 42.984V9.518C135.023 8.89933 135.081 8.33866 135.197 7.836C135.352 7.29466 135.68 6.86933 136.183 6.56C136.686 6.212 137.478 6.038 138.561 6.038C139.373 6.038 139.972 6.096 140.359 6.212C140.784 6.28933 141.113 6.42467 141.345 6.618C141.577 6.77267 141.809 6.98533 142.041 7.256L156.193 27.034H154.859L169.069 7.198C169.34 6.88866 169.61 6.65666 169.881 6.502C170.152 6.34733 170.5 6.23133 170.925 6.154C171.35 6.07667 171.911 6.038 172.607 6.038C173.651 6.038 174.424 6.212 174.927 6.56C175.43 6.86933 175.739 7.29466 175.855 7.836C176.01 8.37733 176.087 8.97666 176.087 9.634V43.1C176.087 43.68 176.01 44.2407 175.855 44.782C175.739 45.3233 175.43 45.7487 174.927 46.058C174.424 46.3673 173.632 46.522 172.549 46.522C171.505 46.522 170.732 46.348 170.229 46C169.726 45.6907 169.398 45.2653 169.243 44.724C169.127 44.1827 169.069 43.6027 169.069 42.984V18.102L158.513 33.356C158.397 33.5107 158.223 33.7233 157.991 33.994C157.759 34.226 157.45 34.4387 157.063 34.632C156.676 34.8253 156.154 34.922 155.497 34.922C154.878 34.922 154.376 34.8253 153.989 34.632C153.602 34.4387 153.293 34.226 153.061 33.994C152.868 33.762 152.674 33.53 152.481 33.298L141.983 18.102V43.1C141.983 43.68 141.906 44.2407 141.751 44.782C141.635 45.3233 141.326 45.7487 140.823 46.058C140.32 46.3673 139.528 46.522 138.445 46.522ZM208.295 47.044C205.511 47.044 202.901 46.522 200.465 45.478C198.068 44.3953 195.941 42.926 194.085 41.07C192.229 39.1753 190.779 37.01 189.735 34.574C188.691 32.0993 188.169 29.4507 188.169 26.628C188.169 23.728 188.672 21.0213 189.677 18.508C190.721 15.956 192.132 13.7327 193.911 11.838C195.728 9.90466 197.816 8.39666 200.175 7.314C202.534 6.23133 205.066 5.69 207.773 5.69C210.596 5.69 213.206 6.23133 215.603 7.314C218.039 8.358 220.166 9.82733 221.983 11.722C223.8 13.6167 225.231 15.8207 226.275 18.334C227.319 20.8087 227.841 23.496 227.841 26.396C227.841 29.2187 227.338 31.8867 226.333 34.4C225.328 36.8747 223.916 39.0787 222.099 41.012C220.282 42.9067 218.194 44.3953 215.835 45.478C213.515 46.522 211.002 47.044 208.295 47.044ZM208.005 39.968C209.784 39.968 211.446 39.62 212.993 38.924C214.54 38.228 215.893 37.2613 217.053 36.024C218.252 34.7867 219.18 33.356 219.837 31.732C220.494 30.0693 220.823 28.2907 220.823 26.396C220.823 24.5013 220.475 22.742 219.779 21.118C219.122 19.4553 218.194 18.0053 216.995 16.768C215.835 15.492 214.482 14.506 212.935 13.81C211.427 13.114 209.784 12.766 208.005 12.766C206.265 12.766 204.622 13.114 203.075 13.81C201.528 14.506 200.156 15.492 198.957 16.768C197.797 18.0053 196.888 19.4553 196.231 21.118C195.574 22.7807 195.245 24.54 195.245 26.396C195.245 28.252 195.574 30.0113 196.231 31.674C196.927 33.3367 197.855 34.7867 199.015 36.024C200.175 37.2613 201.509 38.228 203.017 38.924C204.564 39.62 206.226 39.968 208.005 39.968ZM258.032 47.044C255.248 47.044 252.638 46.522 250.202 45.478C247.805 44.3953 245.678 42.926 243.822 41.07C241.966 39.1753 240.516 37.01 239.472 34.574C238.428 32.0993 237.906 29.4507 237.906 26.628C237.906 23.728 238.409 21.0213 239.414 18.508C240.458 15.956 241.87 13.7327 243.648 11.838C245.466 9.90466 247.554 8.39666 249.912 7.314C252.271 6.23133 254.804 5.69 257.51 5.69C260.333 5.69 262.943 6.23133 265.34 7.314C267.776 8.358 269.903 9.82733 271.72 11.722C273.538 13.6167 274.968 15.8207 276.012 18.334C277.056 20.8087 277.578 23.496 277.578 26.396C277.578 29.2187 277.076 31.8867 276.07 34.4C275.065 36.8747 273.654 39.0787 271.836 41.012C270.019 42.9067 267.931 44.3953 265.572 45.478C263.252 46.522 260.739 47.044 258.032 47.044ZM257.742 39.968C259.521 39.968 261.184 39.62 262.73 38.924C264.277 38.228 265.63 37.2613 266.79 36.024C267.989 34.7867 268.917 33.356 269.574 31.732C270.232 30.0693 270.56 28.2907 270.56 26.396C270.56 24.5013 270.212 22.742 269.516 21.118C268.859 19.4553 267.931 18.0053 266.732 16.768C265.572 15.492 264.219 14.506 262.672 13.81C261.164 13.114 259.521 12.766 257.742 12.766C256.002 12.766 254.359 13.114 252.812 13.81C251.266 14.506 249.893 15.492 248.694 16.768C247.534 18.0053 246.626 19.4553 245.968 21.118C245.311 22.7807 244.982 24.54 244.982 26.396C244.982 28.252 245.311 30.0113 245.968 31.674C246.664 33.3367 247.592 34.7867 248.752 36.024C249.912 37.2613 251.246 38.228 252.754 38.924C254.301 39.62 255.964 39.968 257.742 39.968ZM316.205 5.98C316.785 5.98 317.287 6.038 317.713 6.154C318.177 6.27 318.544 6.56 318.815 7.024C319.085 7.44933 319.221 8.14533 319.221 9.112C319.221 10.0787 319.085 10.794 318.815 11.258C318.544 11.6833 318.177 11.954 317.713 12.07C317.249 12.1473 316.727 12.186 316.147 12.186L305.475 12.186V43.1C305.475 43.7573 305.397 44.3567 305.243 44.898C305.127 45.4007 304.817 45.8067 304.315 46.116C303.851 46.4253 303.058 46.58 301.937 46.58C300.893 46.58 300.119 46.406 299.617 46.058C299.114 45.7487 298.805 45.3427 298.689 44.84C298.573 44.2987 298.515 43.6993 298.515 43.042V12.186L287.727 12.186C287.185 12.186 286.683 12.128 286.219 12.012C285.755 11.896 285.368 11.6253 285.059 11.2C284.788 10.7747 284.653 10.0787 284.653 9.112C284.653 8.14533 284.788 7.44933 285.059 7.024C285.329 6.56 285.697 6.27 286.161 6.154C286.663 6.038 287.185 5.98 287.727 5.98L316.205 5.98ZM360.763 46.522C359.68 46.522 358.888 46.3673 358.385 46.058C357.882 45.7487 357.573 45.3233 357.457 44.782C357.341 44.202 357.283 43.6027 357.283 42.984V9.518C357.283 8.89933 357.341 8.31933 357.457 7.778C357.612 7.23666 357.921 6.81133 358.385 6.502C358.888 6.19267 359.7 6.038 360.821 6.038C361.904 6.038 362.677 6.19267 363.141 6.502C363.644 6.81133 363.953 7.23666 364.069 7.778C364.224 8.31933 364.301 8.91866 364.301 9.576V43.042C364.301 43.6607 364.224 44.2407 364.069 44.782C363.953 45.3233 363.644 45.7487 363.141 46.058C362.638 46.3673 361.846 46.522 360.763 46.522ZM335.359 46.522C334.276 46.522 333.484 46.3673 332.981 46.058C332.517 45.7487 332.208 45.3233 332.053 44.782C331.937 44.202 331.879 43.6027 331.879 42.984V9.518C331.879 8.89933 331.937 8.31933 332.053 7.778C332.208 7.23666 332.536 6.81133 333.039 6.502C333.542 6.19267 334.334 6.038 335.417 6.038C336.538 6.038 337.331 6.19267 337.795 6.502C338.298 6.81133 338.607 7.23666 338.723 7.778C338.839 8.31933 338.897 8.91866 338.897 9.576V43.042C338.897 43.6607 338.82 44.2407 338.665 44.782C338.549 45.3233 338.24 45.7487 337.737 46.058C337.273 46.3673 336.48 46.522 335.359 46.522ZM337.041 29.064V22.8L358.211 22.8L358.153 29.064L337.041 29.064Z" fill="#E76A86"/>
</g>
<path d="M102.244 74.448C101.759 74.448 101.245 74.392 100.704 74.28C100.163 74.1867 99.64 74.0467 99.136 73.86C98.632 73.6547 98.1933 73.4213 97.82 73.16C97.4653 72.88 97.2413 72.572 97.148 72.236C97.0733 72.0493 97.0453 71.872 97.064 71.704C97.0827 71.5173 97.1387 71.3307 97.232 71.144C97.3253 70.9387 97.4653 70.7333 97.652 70.528C97.82 70.3227 97.988 70.2107 98.156 70.192C98.3427 70.1547 98.576 70.2107 98.856 70.36C99.0987 70.4533 99.36 70.5747 99.64 70.724C99.9387 70.8733 100.237 71.0227 100.536 71.172C100.853 71.3213 101.171 71.4427 101.488 71.536C101.824 71.6293 102.151 71.676 102.468 71.676C103.159 71.676 103.709 71.564 104.12 71.34C104.531 71.0973 104.736 70.7613 104.736 70.332C104.736 70.0893 104.671 69.8747 104.54 69.688C104.409 69.5013 104.232 69.352 104.008 69.24C103.803 69.1093 103.551 68.9973 103.252 68.904C102.972 68.792 102.664 68.6987 102.328 68.624C102.011 68.5307 101.675 68.428 101.32 68.316C100.853 68.1853 100.387 68.0267 99.92 67.84C99.4533 67.6533 99.0333 67.4107 98.66 67.112C98.3053 66.8133 98.016 66.44 97.792 65.992C97.568 65.544 97.456 64.984 97.456 64.312C97.456 63.472 97.652 62.7627 98.044 62.184C98.4547 61.5867 99.0427 61.1293 99.808 60.812C100.573 60.4947 101.497 60.336 102.58 60.336C102.953 60.336 103.308 60.364 103.644 60.42C103.999 60.476 104.335 60.56 104.652 60.672C104.988 60.7653 105.305 60.8867 105.604 61.036C105.921 61.1853 106.22 61.3533 106.5 61.54C106.967 61.8013 107.209 62.1093 107.228 62.464C107.247 62.8 107.116 63.164 106.836 63.556C106.631 63.8173 106.425 64.004 106.22 64.116C106.015 64.2093 105.8 64.2093 105.576 64.116C105.277 63.9667 104.951 63.808 104.596 63.64C104.26 63.4533 103.905 63.2947 103.532 63.164C103.177 63.0333 102.804 62.968 102.412 62.968C102.039 62.968 101.703 63.024 101.404 63.136C101.105 63.248 100.881 63.4067 100.732 63.612C100.583 63.8173 100.508 64.06 100.508 64.34C100.508 64.6013 100.583 64.816 100.732 64.984C100.881 65.152 101.077 65.292 101.32 65.404C101.563 65.516 101.852 65.6187 102.188 65.712C102.524 65.7867 102.879 65.8613 103.252 65.936C103.775 66.048 104.307 66.188 104.848 66.356C105.389 66.524 105.884 66.7573 106.332 67.056C106.799 67.3547 107.172 67.756 107.452 68.26C107.732 68.7453 107.872 69.38 107.872 70.164C107.872 71.5267 107.368 72.5813 106.36 73.328C105.371 74.0747 103.999 74.448 102.244 74.448ZM118.354 74.28C117.439 74.28 116.655 74.1867 116.002 74C115.349 73.8133 114.817 73.524 114.406 73.132C113.995 72.74 113.687 72.236 113.482 71.62C113.295 70.9853 113.202 70.2387 113.202 69.38V57.508C113.202 57.172 113.23 56.8827 113.286 56.64C113.361 56.3973 113.51 56.2107 113.734 56.08C113.977 55.9307 114.35 55.856 114.854 55.856C115.377 55.856 115.75 55.9307 115.974 56.08C116.217 56.2293 116.366 56.4347 116.422 56.696C116.497 56.9387 116.534 57.2093 116.534 57.508V69.268C116.534 69.66 116.562 69.9773 116.618 70.22C116.693 70.4627 116.795 70.6493 116.926 70.78C117.075 70.892 117.262 70.976 117.486 71.032C117.729 71.0693 118.018 71.088 118.354 71.088C118.709 71.088 119.007 71.116 119.25 71.172C119.511 71.228 119.707 71.368 119.838 71.592C119.969 71.7973 120.034 72.1427 120.034 72.628C120.034 73.1507 119.95 73.5333 119.782 73.776C119.633 74 119.427 74.14 119.166 74.196C118.923 74.252 118.653 74.28 118.354 74.28ZM112.054 60.756L114.938 60.784L118.802 60.672C119.119 60.672 119.399 60.7093 119.642 60.784C119.903 60.84 120.109 60.9893 120.258 61.232C120.407 61.456 120.482 61.8293 120.482 62.352C120.482 62.8373 120.407 63.2013 120.258 63.444C120.109 63.6867 119.913 63.8453 119.67 63.92C119.427 63.976 119.147 64.004 118.83 64.004L115.078 63.948L111.97 63.976C111.503 63.9573 111.177 63.8267 110.99 63.584C110.822 63.3227 110.738 62.9027 110.738 62.324C110.738 61.7827 110.841 61.3907 111.046 61.148C111.27 60.8867 111.606 60.756 112.054 60.756ZM125.902 74.28C125.398 74.28 125.024 74.196 124.782 74.028C124.558 73.8787 124.418 73.6733 124.362 73.412C124.306 73.1507 124.278 72.8613 124.278 72.544V62.156C124.278 61.82 124.306 61.5307 124.362 61.288C124.418 61.0267 124.558 60.8307 124.782 60.7C125.024 60.5507 125.407 60.476 125.93 60.476C126.434 60.476 126.798 60.5413 127.022 60.672C127.264 60.8027 127.414 60.9707 127.47 61.176C127.544 61.3627 127.582 61.5493 127.582 61.736L127.358 62.24C127.451 62.0907 127.582 61.9133 127.75 61.708C127.918 61.484 128.142 61.2693 128.422 61.064C128.702 60.84 129.038 60.6627 129.43 60.532C129.822 60.3827 130.288 60.308 130.83 60.308C131.054 60.308 131.287 60.336 131.53 60.392C131.791 60.4293 132.043 60.4947 132.286 60.588C132.547 60.6627 132.78 60.7653 132.986 60.896C133.191 61.0267 133.35 61.1853 133.462 61.372C133.574 61.54 133.63 61.736 133.63 61.96C133.63 62.5573 133.48 63.0613 133.182 63.472C132.883 63.8827 132.528 64.088 132.118 64.088C131.838 64.088 131.632 64.06 131.502 64.004C131.371 63.948 131.259 63.8827 131.166 63.808C131.091 63.7333 130.97 63.668 130.802 63.612C130.652 63.556 130.41 63.528 130.074 63.528C129.794 63.528 129.504 63.5747 129.206 63.668C128.926 63.7613 128.664 63.9013 128.422 64.088C128.179 64.2747 127.983 64.5173 127.834 64.816C127.684 65.096 127.61 65.4227 127.61 65.796V72.6C127.61 72.9173 127.582 73.2067 127.526 73.468C127.47 73.7107 127.32 73.9067 127.078 74.056C126.835 74.2053 126.443 74.28 125.902 74.28ZM143.367 74.448C142.154 74.448 141.09 74.252 140.175 73.86C139.279 73.468 138.523 72.936 137.907 72.264C137.31 71.5733 136.852 70.808 136.535 69.968C136.236 69.1093 136.087 68.2227 136.087 67.308C136.087 65.964 136.395 64.7693 137.011 63.724C137.627 62.6787 138.476 61.8573 139.559 61.26C140.66 60.6627 141.92 60.364 143.339 60.364C144.347 60.364 145.234 60.5227 145.999 60.84C146.764 61.1573 147.399 61.5773 147.903 62.1C148.426 62.604 148.818 63.164 149.079 63.78C149.359 64.396 149.499 64.9933 149.499 65.572C149.499 66.5613 149.256 67.28 148.771 67.728C148.304 68.176 147.716 68.4 147.007 68.4H139.615C139.634 69.0347 139.83 69.5853 140.203 70.052C140.595 70.5187 141.08 70.8827 141.659 71.144C142.256 71.3867 142.863 71.508 143.479 71.508C143.946 71.508 144.356 71.48 144.711 71.424C145.084 71.368 145.402 71.3027 145.663 71.228C145.924 71.1347 146.148 71.0413 146.335 70.948C146.54 70.8547 146.727 70.7707 146.895 70.696C147.063 70.6213 147.222 70.5747 147.371 70.556C147.576 70.5373 147.782 70.584 147.987 70.696C148.192 70.808 148.36 71.004 148.491 71.284C148.603 71.4707 148.678 71.648 148.715 71.816C148.771 71.9653 148.799 72.1147 148.799 72.264C148.799 72.6373 148.575 72.992 148.127 73.328C147.679 73.6453 147.044 73.9067 146.223 74.112C145.42 74.336 144.468 74.448 143.367 74.448ZM139.615 66.412H145.355C145.672 66.412 145.915 66.3653 146.083 66.272C146.251 66.16 146.335 65.936 146.335 65.6C146.335 65.1707 146.204 64.788 145.943 64.452C145.682 64.0973 145.327 63.8267 144.879 63.64C144.431 63.4347 143.908 63.332 143.311 63.332C142.62 63.332 141.995 63.472 141.435 63.752C140.875 64.0133 140.427 64.3773 140.091 64.844C139.774 65.3107 139.615 65.8333 139.615 66.412ZM160.141 74.448C158.927 74.448 157.863 74.252 156.949 73.86C156.053 73.468 155.297 72.936 154.681 72.264C154.083 71.5733 153.626 70.808 153.309 69.968C153.01 69.1093 152.861 68.2227 152.861 67.308C152.861 65.964 153.169 64.7693 153.785 63.724C154.401 62.6787 155.25 61.8573 156.333 61.26C157.434 60.6627 158.694 60.364 160.113 60.364C161.121 60.364 162.007 60.5227 162.773 60.84C163.538 61.1573 164.173 61.5773 164.677 62.1C165.199 62.604 165.591 63.164 165.853 63.78C166.133 64.396 166.273 64.9933 166.273 65.572C166.273 66.5613 166.03 67.28 165.545 67.728C165.078 68.176 164.49 68.4 163.781 68.4H156.389C156.407 69.0347 156.603 69.5853 156.977 70.052C157.369 70.5187 157.854 70.8827 158.433 71.144C159.03 71.3867 159.637 71.508 160.253 71.508C160.719 71.508 161.13 71.48 161.485 71.424C161.858 71.368 162.175 71.3027 162.437 71.228C162.698 71.1347 162.922 71.0413 163.109 70.948C163.314 70.8547 163.501 70.7707 163.669 70.696C163.837 70.6213 163.995 70.5747 164.145 70.556C164.35 70.5373 164.555 70.584 164.761 70.696C164.966 70.808 165.134 71.004 165.265 71.284C165.377 71.4707 165.451 71.648 165.489 71.816C165.545 71.9653 165.573 72.1147 165.573 72.264C165.573 72.6373 165.349 72.992 164.901 73.328C164.453 73.6453 163.818 73.9067 162.997 74.112C162.194 74.336 161.242 74.448 160.141 74.448ZM156.389 66.412H162.129C162.446 66.412 162.689 66.3653 162.857 66.272C163.025 66.16 163.109 65.936 163.109 65.6C163.109 65.1707 162.978 64.788 162.717 64.452C162.455 64.0973 162.101 63.8267 161.653 63.64C161.205 63.4347 160.682 63.332 160.085 63.332C159.394 63.332 158.769 63.472 158.209 63.752C157.649 64.0133 157.201 64.3773 156.865 64.844C156.547 65.3107 156.389 65.8333 156.389 66.412ZM176.781 74.28C175.866 74.28 175.082 74.1867 174.429 74C173.776 73.8133 173.244 73.524 172.833 73.132C172.422 72.74 172.114 72.236 171.909 71.62C171.722 70.9853 171.629 70.2387 171.629 69.38V57.508C171.629 57.172 171.657 56.8827 171.713 56.64C171.788 56.3973 171.937 56.2107 172.161 56.08C172.404 55.9307 172.777 55.856 173.281 55.856C173.804 55.856 174.177 55.9307 174.401 56.08C174.644 56.2293 174.793 56.4347 174.849 56.696C174.924 56.9387 174.961 57.2093 174.961 57.508V69.268C174.961 69.66 174.989 69.9773 175.045 70.22C175.12 70.4627 175.222 70.6493 175.353 70.78C175.502 70.892 175.689 70.976 175.913 71.032C176.156 71.0693 176.445 71.088 176.781 71.088C177.136 71.088 177.434 71.116 177.677 71.172C177.938 71.228 178.134 71.368 178.265 71.592C178.396 71.7973 178.461 72.1427 178.461 72.628C178.461 73.1507 178.377 73.5333 178.209 73.776C178.06 74 177.854 74.14 177.593 74.196C177.35 74.252 177.08 74.28 176.781 74.28ZM170.481 60.756L173.365 60.784L177.229 60.672C177.546 60.672 177.826 60.7093 178.069 60.784C178.33 60.84 178.536 60.9893 178.685 61.232C178.834 61.456 178.909 61.8293 178.909 62.352C178.909 62.8373 178.834 63.2013 178.685 63.444C178.536 63.6867 178.34 63.8453 178.097 63.92C177.854 63.976 177.574 64.004 177.257 64.004L173.505 63.948L170.397 63.976C169.93 63.9573 169.604 63.8267 169.417 63.584C169.249 63.3227 169.165 62.9027 169.165 62.324C169.165 61.7827 169.268 61.3907 169.473 61.148C169.697 60.8867 170.033 60.756 170.481 60.756Z" fill="#E76A86"/>
<defs>
<filter id="filter0_d_106_30" x="90.0859" y="5.40039" width="278.215" height="49.7012" filterUnits="userSpaceOnUse" color-interpolation-filters="sRGB">
<feFlood flood-opacity="0" result="BackgroundImageFix"/>
<feColorMatrix in="SourceAlpha" type="matrix" values="0 0 0 0 0 0 0 0 0 0 0 0 0 0 0 0 0 0 127 0" result="hardAlpha"/>
<feOffset dy="4"/>
<feGaussianBlur stdDeviation="2"/>
<feComposite in2="hardAlpha" operator="out"/>
<feColorMatrix type="matrix" values="0 0 0 0 0 0 0 0 0 0 0 0 0 0 0 0 0 0 0.25 0"/>
<feBlend mode="normal" in2="BackgroundImageFix" result="effect1_dropShadow_106_30"/>
<feBlend mode="normal" in="SourceGraphic" in2="effect1_dropShadow_106_30" result="shape"/>
</filter>
</defs>
</svg>
