<svg width="3352" height="972" viewBox="0 0 3352 972" fill="none" xmlns="http://www.w3.org/2000/svg">
<g filter="url(#filter0_d_123_77)">
<path fill-rule="evenodd" clip-rule="evenodd" d="M15.5 5.26192L1515.5 5.26172L1764 5.26192L2080.16 5.26172H2261H2428H2666.23L3337 5.26202C3337 5.26202 3225.46 71.2617 3301.52 235.262C3377.57 399.262 3198.62 511.262 3131.51 549.262C3112.76 559.883 3087.36 570.191 3055.13 580.362L3057.26 580.465C3057.04 580.457 3056.77 580.449 3056.45 580.443C3056.01 580.435 3055.49 580.431 3054.89 580.435C3039.75 585.208 3023.1 589.951 3004.92 594.682C2994.91 600.681 2984.82 609.183 2976 621.22C2954.62 650.4 2941.01 688.915 2933.16 711.126C2931.54 715.693 2930.17 719.571 2929.03 722.537C2922.32 739.927 2910.02 742.952 2899.95 742.952C2889.89 742.952 2885.41 737.659 2877.58 720.269C2869.81 702.999 2845.49 704.37 2832.01 705.131L2831.73 705.147C2818.31 705.903 2800.42 708.927 2791.47 713.464C2782.52 718 2773.58 728.586 2769.1 739.171C2765.19 748.443 2770.71 775.12 2772.89 785.661C2773.2 787.154 2773.44 788.323 2773.58 789.074C2773.84 790.516 2774.68 793.379 2775.76 797.055C2779.2 808.792 2785.08 828.828 2782.52 837.464C2779.17 848.805 2769.1 855.61 2760.16 859.391C2751.21 863.171 2731.08 860.147 2721.01 851.83C2710.95 843.513 2718.78 814.025 2721.01 809.488C2723.25 804.952 2734.43 764.878 2731.08 745.976C2727.72 727.073 2696.41 726.317 2667.33 728.586C2638.26 730.854 2628.19 737.659 2620.36 742.952C2612.53 748.244 2610.3 764.878 2612.53 773.952C2614.77 783.025 2618.13 805.708 2617.01 809.488C2615.89 813.269 2609.18 822.342 2586.81 818.561C2567.16 815.241 2569.09 802.586 2572.12 782.648C2572.54 779.887 2572.98 776.986 2573.39 773.952C2573.51 773.065 2573.63 772.204 2573.74 771.366C2576.85 748.623 2577.55 743.493 2538.72 737.659C2498.46 731.61 2486.16 762.61 2483.92 768.659C2481.69 774.708 2470.5 786.049 2455.96 786.049C2441.43 786.049 2433.6 773.952 2430.24 764.878C2426.89 755.805 2419.06 746.732 2413.47 740.683C2407.87 734.634 2383.27 728.586 2374.32 728.586C2371.52 728.586 2368.07 728.438 2364.4 728.28C2356.34 727.935 2347.27 727.547 2341.89 728.586C2335.5 729.82 2335.07 730.047 2327.22 734.202C2325.45 735.137 2323.31 736.27 2320.64 737.659C2306.1 745.22 2301.63 770.171 2301.63 777.732C2301.63 785.293 2308.34 804.196 2311.7 809.488C2315.05 814.781 2317.29 834.44 2317.29 837.464C2317.29 840.488 2315.05 852.586 2292.68 851.83C2272.93 851.162 2271.49 839.285 2270.66 832.354C2270.55 831.438 2270.45 830.609 2270.32 829.903C2269.2 823.854 2275.91 791.342 2279.26 783.025C2282.62 774.708 2282.62 759.586 2279.26 740.683C2276.54 725.362 2260.6 723.95 2251.68 723.159C2249.59 722.974 2247.89 722.823 2246.83 722.537C2245.76 722.246 2245.47 722.095 2245.43 722.025C2244.71 722.14 2240.37 722.307 2218.87 721.025C2181.83 718.815 2181.93 742.437 2181.96 749.251V749.286C2181.97 749.454 2181.97 749.611 2181.97 749.756C2181.97 754.363 2186.51 764.23 2189.16 770.01C2190 771.821 2190.65 773.23 2190.91 773.952C2192.03 776.976 2193.15 786.805 2169.66 786.049C2150 785.416 2151.51 772.588 2152.52 763.993L2152.52 763.987C2152.71 762.32 2152.89 760.814 2152.89 759.586C2152.89 756.412 2154.47 750.973 2156.21 744.946C2158.63 736.617 2161.37 727.166 2160.72 721.025C2159.6 710.439 2147.3 712.708 2141.71 715.732C2133.11 720.379 2117.1 722.873 2104.8 721.025C2094.73 719.513 2083.55 707.462 2083.55 701.366C2083.55 692.97 1998.15 627.605 1973.24 618.612C1971.4 618.463 1969.57 618.318 1967.76 618.178L1966.5 619.5C1966.5 618.89 1966.67 618.433 1967.01 618.119C1888.47 612.047 1843.69 613.853 1724.61 636H1726.5C1726.5 636 1661.99 648.452 1636 677.338C1613.43 702.424 1611.34 741.709 1609.92 768.502C1609.41 778.114 1608.98 786.118 1607.72 791.282C1602.97 810.839 1594.26 814.24 1587.13 814.24C1580 814.24 1576.83 808.288 1571.28 788.731C1565.77 769.309 1548.55 770.851 1539 771.706L1538.8 771.724C1529.29 772.574 1516.61 775.976 1510.28 781.078C1503.94 786.18 1497.6 798.084 1494.43 809.989C1491.65 820.418 1495.57 850.424 1497.11 862.276C1497.33 863.953 1497.5 865.267 1497.6 866.11C1497.79 867.733 1498.38 870.951 1499.15 875.085C1501.58 888.285 1505.75 910.818 1503.94 920.531C1501.56 933.286 1494.43 940.939 1488.09 945.19C1481.75 949.442 1467.49 946.041 1460.36 936.687C1453.23 927.333 1458.78 894.171 1460.36 889.069C1461.95 883.967 1469.87 838.9 1467.49 817.642C1465.12 796.384 1442.93 795.533 1422.33 798.084C1401.73 800.635 1394.6 808.288 1389.06 814.24C1383.51 820.193 1381.93 838.9 1383.51 849.104C1385.1 859.307 1387.47 884.817 1386.68 889.069C1385.89 893.32 1381.14 903.524 1365.29 899.273C1351.37 895.538 1352.74 881.307 1354.88 858.884C1355.18 855.779 1355.49 852.517 1355.78 849.104C1355.87 848.107 1355.95 847.138 1356.03 846.196C1358.23 820.619 1358.73 814.849 1331.22 808.288C1302.7 801.485 1293.99 836.349 1292.4 843.151C1290.82 849.954 1282.89 862.709 1272.59 862.709C1262.29 862.709 1256.75 849.104 1254.37 838.9C1252 828.696 1246.45 818.492 1242.49 811.689C1238.53 804.887 1221.1 798.084 1214.76 798.084C1212.78 798.084 1210.33 797.918 1207.73 797.741C1202.02 797.353 1195.59 796.916 1191.78 798.084C1187.26 799.473 1186.95 799.727 1181.39 804.4C1180.14 805.452 1178.62 806.727 1176.73 808.288C1166.43 816.791 1163.26 844.852 1163.26 853.355C1163.26 861.859 1168.01 883.117 1170.39 889.069C1172.77 895.021 1174.35 917.13 1174.35 920.531C1174.35 923.932 1172.77 937.537 1156.92 936.687C1142.93 935.936 1141.91 922.579 1141.32 914.784C1141.24 913.754 1141.17 912.821 1141.08 912.028C1140.28 905.225 1145.04 868.661 1147.42 859.307C1149.79 849.954 1149.79 832.948 1147.42 811.689C1145.49 794.459 1134.19 792.87 1127.87 791.981C1126.4 791.773 1125.19 791.604 1124.44 791.282C1123.68 790.955 1123.47 790.785 1123.45 790.706C1122.94 790.835 1119.86 791.023 1104.63 789.581C1078.39 787.096 1078.47 813.661 1078.49 821.324C1078.49 821.528 1078.49 821.717 1078.49 821.893C1078.49 827.074 1081.7 838.171 1083.59 844.672C1084.18 846.708 1084.64 848.292 1084.83 849.104C1085.62 852.505 1086.41 863.559 1069.77 862.709C1055.84 861.997 1056.91 847.57 1057.62 837.904C1057.76 836.027 1057.89 834.33 1057.89 832.948C1057.89 829.378 1059.01 823.261 1060.24 816.484C1061.95 807.116 1063.89 796.488 1063.43 789.581C1062.64 777.676 1053.93 780.227 1049.97 783.629C1043.88 788.855 1032.54 791.66 1023.82 789.581C1016.69 787.88 1008.77 774.328 1008.77 767.473C1008.77 756.418 992.5 707 981 687.5C975.797 678.678 969.161 667.297 963.454 657.479C958.614 651.469 955.185 645.561 953 640C952.786 639.454 952.576 638.911 952.372 638.371C951.494 636.855 951 636 951 636H951.499C945.057 617.983 943.966 602.912 943.005 589.638C941.467 568.396 940.262 551.754 918 535C869.5 498.5 805.593 473 657 459C544.011 421.46 513.306 366.348 485.058 315.645C466.59 282.498 449.173 251.236 410.5 228C289 155 15.5 5.26192 15.5 5.26192Z" fill="#ECB06C"/>
</g>
<defs>
<filter id="filter0_d_123_77" x="0.5" y="0.261719" width="3351.5" height="971.738" filterUnits="userSpaceOnUse" color-interpolation-filters="sRGB">
<feFlood flood-opacity="0" result="BackgroundImageFix"/>
<feColorMatrix in="SourceAlpha" type="matrix" values="0 0 0 0 0 0 0 0 0 0 0 0 0 0 0 0 0 0 127 0" result="hardAlpha"/>
<feOffset dy="10"/>
<feGaussianBlur stdDeviation="7.5"/>
<feColorMatrix type="matrix" values="0 0 0 0 0 0 0 0 0 0 0 0 0 0 0 0 0 0 0.05 0"/>
<feBlend mode="normal" in2="BackgroundImageFix" result="effect1_dropShadow_123_77"/>
<feBlend mode="normal" in="SourceGraphic" in2="effect1_dropShadow_123_77" result="shape"/>
</filter>
</defs>
</svg>
