<svg width="2728" height="835" viewBox="0 0 2728 835" fill="none" xmlns="http://www.w3.org/2000/svg">
<g filter="url(#filter0_d_123_77)">
<path fill-rule="evenodd" clip-rule="evenodd" d="M377.058 106.265C377.058 106.265 636.542 20.2654 918.395 106.265C1021.29 108.846 1097.35 74.2654 1151.04 38.2654C1204.72 2.26537 1370.26 -5.73464 1473.16 20.2654C1554.29 40.7663 1585.36 71.2149 1625.58 110.631C1636.36 121.203 1647.81 132.421 1661.06 144.265C1711.16 189.065 1789.31 169.599 1822.12 154.265C1822.12 154.265 1965.28 76.2654 2081.6 48.2654C2174.66 25.8654 2275.47 32.2654 2314.24 38.2654C2314.24 38.2654 2618.46 86.2654 2694.52 250.265C2770.57 414.265 2591.62 526.265 2524.51 564.265C2491.07 583.201 2436.53 601.143 2359.77 619.081C2347.43 636.232 2326.86 665.072 2322.23 673C2315.52 684.5 2303.22 686.5 2293.15 686.5C2283.09 686.5 2278.61 683 2270.78 671.5C2263.01 660.08 2238.69 660.987 2225.21 661.49L2224.93 661.5C2211.51 662 2193.61 664 2184.66 667C2175.71 670 2166.77 677 2162.29 684C2158.37 690.132 2163.9 707.773 2166.08 714.744L2166.08 714.746C2166.39 715.732 2166.63 716.504 2166.77 717C2167.03 717.954 2167.87 719.847 2168.95 722.278C2172.39 730.04 2178.27 743.289 2175.71 749C2172.36 756.5 2162.29 761 2153.34 763.5C2144.4 766 2124.26 764 2114.2 758.5C2104.13 753 2111.96 733.5 2114.2 730.5C2116.44 727.5 2127.62 701 2124.26 688.5C2120.91 676 2089.59 675.5 2060.51 677C2031.43 678.5 2021.37 683 2013.54 686.5C2005.71 690 2003.47 701 2005.71 707C2007.94 713 2011.3 728 2010.18 730.5C2009.06 733 2002.35 739 1979.98 736.5C1960.33 734.304 1962.26 725.936 1965.29 712.751C1965.71 710.925 1966.15 709.007 1966.56 707C1966.68 706.422 1966.79 705.859 1966.91 705.313L1966.91 705.29C1969.47 692.909 1970.4 688.421 1948.98 685.069C1932.02 685.86 1915.07 686.284 1898.18 686.39C1884 691.734 1878.51 700.956 1877.08 703.5C1874.85 707.5 1863.66 715 1849.12 715C1834.58 715 1826.75 707 1823.4 701C1820.04 695 1812.21 689 1806.62 685C1806.14 684.659 1805.53 684.318 1804.8 683.979C1778.88 682.547 1753.26 680.55 1728.1 678.171C1726.25 678.654 1724.19 679.376 1720.37 680.714C1718.6 681.332 1716.46 682.082 1713.79 683C1699.25 688 1694.77 704.5 1694.77 709.5C1694.77 714.5 1701.48 727 1704.84 730.5C1708.2 734 1710.43 747 1710.43 749C1710.43 751 1708.2 759 1685.83 758.5C1666.07 758.058 1664.63 750.204 1663.8 745.621C1663.69 745.015 1663.59 744.467 1663.46 744C1662.34 740 1669.05 718.5 1672.4 713C1675.76 707.5 1675.76 697.5 1672.4 685C1669.68 674.868 1653.74 673.934 1644.82 673.411C1642.73 673.289 1641.03 673.189 1639.97 673C1638.89 672.808 1638.6 672.708 1638.57 672.661C1637.85 672.737 1633.5 672.848 1612.01 672C1574.96 670.539 1575.07 686.16 1575.1 690.665L1575.1 690.888L1575.1 691C1575.1 694.046 1579.64 700.571 1582.3 704.393L1582.3 704.397C1583.13 705.593 1583.78 706.523 1584.05 707C1585.16 709 1586.28 715.5 1562.79 715C1543.13 714.581 1544.63 706.098 1545.64 700.415C1545.84 699.311 1546.02 698.313 1546.02 697.5C1546.02 695.401 1547.59 691.804 1549.34 687.819C1551.76 682.311 1554.5 676.061 1553.85 672C1552.73 665 1540.43 666.5 1534.83 668.5C1526.24 671.573 1510.23 673.222 1497.92 672C1487.86 671 1476.67 663.031 1476.67 659C1476.67 657.229 1474.18 651.708 1470.56 644.825C1444.18 641.274 1419.58 638.275 1397.1 636.265C1272.56 625.13 1241.41 625.382 1024.54 669.22C1015.78 686.531 1003.49 711.036 1000.51 718.252C995.765 729.775 987.057 731.779 979.933 731.779C972.809 731.779 969.643 728.272 964.102 716.749C958.599 705.306 941.387 706.215 931.846 706.719L931.647 706.729C922.148 707.23 909.483 709.234 903.151 712.24C896.818 715.246 890.486 722.26 887.319 729.274C884.546 735.419 888.454 753.096 889.998 760.08C890.216 761.069 890.387 761.844 890.486 762.341C890.674 763.297 891.268 765.193 892.031 767.629C894.468 775.406 898.627 788.682 896.818 794.405C894.443 801.92 887.319 806.429 880.987 808.934C874.654 811.439 860.406 809.435 853.282 803.924C846.158 798.413 851.699 778.874 853.282 775.868C854.865 772.862 862.781 746.309 860.406 733.783C858.031 721.258 835.867 720.757 815.286 722.26C794.705 723.763 787.581 728.272 782.04 731.779C776.499 735.286 774.916 746.309 776.499 752.321C778.082 758.333 780.457 773.363 779.666 775.868C778.874 778.373 774.125 784.385 758.293 781.88C744.387 779.679 745.75 771.294 747.896 758.083C748.193 756.253 748.505 754.331 748.794 752.321C748.879 751.733 748.962 751.162 749.043 750.607C751.244 735.538 751.74 732.138 724.256 728.272C724.222 728.268 724.188 728.263 724.154 728.258C716.345 729.359 708.678 730.365 701.151 731.28C690.559 736.565 686.5 746.201 685.469 748.814C683.886 752.822 675.97 760.337 665.679 760.337C655.389 760.337 649.848 752.321 647.473 746.309C646.191 743.062 643.985 739.815 641.604 736.884C612.155 738.79 585.261 739.155 560.753 738.267C557.591 744.61 556.442 751.808 556.442 754.826C556.442 759.836 561.192 772.361 563.567 775.868C565.941 779.375 567.524 792.401 567.524 794.405C567.524 796.409 565.941 804.425 550.11 803.924C536.126 803.481 535.112 795.611 534.52 791.018C534.442 790.412 534.371 789.862 534.278 789.395C533.487 785.387 538.236 763.844 540.611 758.333C542.523 753.896 542.896 746.536 541.729 737.3C515.978 735.601 493.097 732.457 472.858 728.257C471.722 731.381 471.736 734.36 471.743 735.953C471.744 736.073 471.744 736.185 471.744 736.288C471.744 739.341 474.957 745.879 476.839 749.709C477.429 750.908 477.888 751.843 478.077 752.321C478.868 754.325 479.66 760.838 463.037 760.337C449.117 759.917 450.184 751.417 450.899 745.722C451.038 744.616 451.163 743.616 451.163 742.802C451.163 740.698 452.279 737.094 453.516 733.101C454.398 730.252 455.341 727.206 455.985 724.365C447.225 722.131 439.028 719.69 431.371 717.083C426.632 717.753 421.541 717.871 417.126 717.25C410.547 716.325 403.293 709.445 402.221 705.216C366.787 688.055 347.943 667.255 341.267 650.265C339.775 635.599 344.846 597.865 377.058 564.265C409.269 530.665 341.267 467 192.673 453C5.81641 390.917 -11.7883 372.412 40.5619 271C80.8267 193 242.842 144.265 377.058 106.265Z" fill="#ECB06C"/>
</g>
<defs>
<filter id="filter0_d_123_77" x="0" y="0" width="2728" height="835" filterUnits="userSpaceOnUse" color-interpolation-filters="sRGB">
<feFlood flood-opacity="0" result="BackgroundImageFix"/>
<feColorMatrix in="SourceAlpha" type="matrix" values="0 0 0 0 0 0 0 0 0 0 0 0 0 0 0 0 0 0 127 0" result="hardAlpha"/>
<feOffset dy="10"/>
<feGaussianBlur stdDeviation="7.5"/>
<feColorMatrix type="matrix" values="0 0 0 0 0 0 0 0 0 0 0 0 0 0 0 0 0 0 0.05 0"/>
<feBlend mode="normal" in2="BackgroundImageFix" result="effect1_dropShadow_123_77"/>
<feBlend mode="normal" in="SourceGraphic" in2="effect1_dropShadow_123_77" result="shape"/>
</filter>
</defs>
</svg>
